SplineFontDB: 3.0
FontName: Sancreek
FullName: Sancreek
FamilyName: Sancreek
Weight: Normal
Copyright: Copyright (c) 2011 by vernon adams. All rights reserved.
Version: 001.001
ItalicAngle: 0
UnderlinePosition: -103
UnderlineWidth: 102
Ascent: 1638
Descent: 410
sfntRevision: 0x00010000
LayerCount: 2
Layer: 0 0 "Back"  1
Layer: 1 0 "Fore"  0
NeedsXUIDChange: 1
XUID: [1021 14 500265001 13366313]
FSType: 0
OS2Version: 3
OS2_WeightWidthSlopeOnly: 0
OS2_UseTypoMetrics: 1
CreationTime: 1314885505
ModificationTime: 1314978414
PfmFamily: 17
TTFWeight: 400
TTFWidth: 5
LineGap: 58
VLineGap: 0
Panose: 2 0 8 3 5 0 0 2 0 3
OS2TypoAscent: -196
OS2TypoAOffset: 1
OS2TypoDescent: -105
OS2TypoDOffset: 1
OS2TypoLinegap: 115
OS2WinAscent: -68
OS2WinAOffset: 1
OS2WinDescent: -13
OS2WinDOffset: 1
HheadAscent: -68
HheadAOffset: 1
HheadDescent: 13
HheadDOffset: 1
OS2SubXSize: 1331
OS2SubYSize: 1228
OS2SubXOff: 0
OS2SubYOff: 153
OS2SupXSize: 1331
OS2SupYSize: 1228
OS2SupXOff: 0
OS2SupYOff: 716
OS2StrikeYSize: 102
OS2StrikeYPos: 852
OS2Vendor: 'newt'
OS2CodePages: 20000083.00000000
OS2UnicodeRanges: 00000007.00000000.00000000.00000000
DEI: 91125
LangName: 1033 "" "" "Regular" "1.000;newt;Sancreek" "" "Version 1.000;PS 001.001;hotconv 1.0.56" "" "Sancreek is a trademark of vernon adams." "vernon adams" "vernon adams" "Copyright (c) 2011 by vernon adams. All rights reserved." 
Encoding: UnicodeBmp
Compacted: 1
UnicodeInterp: none
NameList: Adobe Glyph List
DisplaySize: -48
AntiAlias: 1
FitToEm: 1
WidthSeparation: 220
WinInfo: 0 27 13
BeginPrivate: 8
BlueValues 38 [-132 0 1420 1420 1442 1509 1561 1586]
OtherBlues 11 [-515 -349]
BlueScale 9 0.0059639
BlueShift 2 19
StdHW 5 [180]
StdVW 5 [232]
StemSnapH 9 [151 180]
StemSnapV 21 [127 232 260 311 331]
EndPrivate
BeginChars: 65544 351

StartChar: exclam
Encoding: 33 33 2
Width: 427
Flags: HW
LayerCount: 2
Fore
SplineSet
261 377 m 1
 157 377 l 1
 100 976 l 1
 95 1069 l 2
 92 1122 87 1176 87 1228 c 0
 87 1288 96 1341 119 1384 c 1
 141 1391 166 1395 193 1395 c 0
 253 1395 298 1379 331 1354 c 1
 338 1314 339 1272 339 1228 c 0
 339 1161 335 1094 332 1027 c 1
 261 377 l 1
76 183 m 1
 117 226 191 259 275 259 c 1
 318 218 351 144 351 60 c 1
 310 17 236 -16 152 -16 c 1
 109 25 76 99 76 183 c 1
EndSplineSet
EndChar

StartChar: quotedbl
Encoding: 34 34 3
Width: 703
Flags: HW
LayerCount: 2
Fore
SplineSet
246 1192 m 1
 213 841 l 1
 194 820 169 810 138 810 c 1
 123 819 115 839 112 870 c 2
 89 1113 l 1
 86 1186 81 1260 81 1332 c 1
 109 1379 150 1395 205 1395 c 1
 232 1379 247 1347 247 1284 c 0
 247 1253 246 1223 246 1192 c 1
618 1192 m 1
 585 841 l 1
 565 820 540 810 509 810 c 1
 496 819 487 839 484 870 c 2
 461 1113 l 1
 458 1186 453 1260 453 1332 c 1
 481 1379 522 1395 577 1395 c 1
 604 1379 619 1347 619 1284 c 0
 619 1253 618 1223 618 1192 c 1
EndSplineSet
EndChar

StartChar: numbersign
Encoding: 35 35 4
Width: 1138
Flags: HW
LayerCount: 2
Fore
SplineSet
1057 510 m 1
 1057 381 l 1
 809 381 l 1
 740 -8 l 1
 604 -8 l 1
 672 381 l 1
 368 381 l 1
 299 -8 l 1
 162 -8 l 1
 230 381 l 1
 49 381 l 1
 49 510 l 1
 254 510 l 1
 307 807 l 1
 76 807 l 1
 76 937 l 1
 331 937 l 1
 398 1326 l 1
 535 1326 l 1
 468 937 l 1
 771 937 l 1
 838 1326 l 1
 976 1326 l 1
 908 937 l 1
 1082 937 l 1
 1082 807 l 1
 884 807 l 1
 832 510 l 1
 1057 510 l 1
748 807 m 1
 443 807 l 1
 390 510 l 1
 695 510 l 1
 748 807 l 1
EndSplineSet
EndChar

StartChar: dollar
Encoding: 36 36 5
Width: 1074
Flags: HW
LayerCount: 2
Fore
SplineSet
537 -217 m 1
 426 -217 l 1
 419 -130 426 -71 426 3 c 1
 537 3 l 1
 537 -217 l 1
537 1383 m 1
 426 1383 l 1
 426 1603 l 1
 537 1603 l 1
 537 1383 l 1
717 -217 m 1
 606 -217 l 1
 606 3 l 1
 717 3 l 1
 717 -217 l 1
717 1383 m 1
 606 1383 l 1
 606 1603 l 1
 717 1603 l 1
 717 1383 l 1
358 517 m 0
 334 530 342 597 267 657 c 1
 165 747 101 879 101 1050 c 0
 101 1304 276 1441 539 1441 c 0
 697 1441 935 1400 935 1137 c 2
 935 1088 l 2
 935 1024 941 975 1011 932 c 1
 1011 932 994 906 951 906 c 0
 845 906 779 998 776 1006 c 1
 774 1002 718 934 652 934 c 0
 591 934 581 966 579 977 c 1
 642 1009 675 1051 675 1145 c 0
 675 1204 648 1259 568 1259 c 0
 443 1259 425 1154 425 1080 c 0
 425 949 473 887 559 847 c 0
 568 843 580 841 591 841 c 0
 636 841 691 866 709 866 c 0
 711 866 712 866 713 865 c 0
 730 856 735 768 796 734 c 1
 923 647 1020 515 1020 329 c 0
 1020 74 833 -84 547 -84 c 0
 375 -84 116 -39 116 225 c 0
 116 237 117 249 117 294 c 0
 117 355 103 411 39 452 c 1
 39 452 57 479 99 479 c 0
 209 479 264 373 264 369 c 1
 264 369 335 452 408 452 c 0
 472 452 483 415 484 407 c 1
 426 372 396 326 396 227 c 0
 396 168 435 107 540 107 c 0
 661 107 696 217 696 277 c 0
 696 415 623 471 535 516 c 1
 508 528 483 532 461 532 c 0
 416 532 382 516 365 516 c 0
 362 516 360 516 358 517 c 0
EndSplineSet
EndChar

StartChar: percent
Encoding: 37 37 6
Width: 1737
Flags: HW
LayerCount: 2
Fore
SplineSet
373 1220 m 0
 292 1220 251 1136 251 967 c 0
 251 797 292 712 373 712 c 0
 454 712 494 797 494 967 c 0
 494 1136 454 1220 373 1220 c 0
455 -16 m 1
 319 -16 l 1
 1295 1330 l 1
 1426 1330 l 1
 455 -16 l 1
1372 596 m 0
 1291 596 1250 511 1250 342 c 0
 1250 173 1291 88 1372 88 c 0
 1453 88 1494 173 1494 342 c 0
 1494 511 1453 596 1372 596 c 0
373 1340 m 0
 577 1340 685 1196 685 967 c 0
 685 738 577 594 373 594 c 0
 168 594 60 738 60 967 c 0
 60 1196 168 1340 373 1340 c 0
1372 715 m 0
 1576 715 1684 571 1684 342 c 0
 1684 114 1576 -31 1372 -31 c 0
 1167 -31 1060 114 1060 342 c 0
 1060 571 1167 715 1372 715 c 0
EndSplineSet
EndChar

StartChar: ampersand
Encoding: 38 38 7
Width: 1238
Flags: HW
LayerCount: 2
Fore
SplineSet
800 285 m 0
 800 302 804 335 804 372 c 0
 804 434 793 505 732 525 c 1
 732 525 740 551 783 551 c 0
 885 551 944 452 944 458 c 1
 944 458 999 546 1082 546 c 0
 1114 546 1159 533 1159 493 c 2
 1159 486 l 1
 1082 453 1082 398 1082 326 c 0
 1082 155 1115 47 1202 -22 c 1
 1202 -22 1171 -73 1098 -73 c 0
 998 -73 931 52 931 52 c 1
 854 -69 703 -86 587 -86 c 0
 349 -86 137 7 137 193 c 0
 137 326 50 384 50 408 c 0
 50 422 137 510 137 589 c 0
 137 640 188 806 293 821 c 1
 188 829 137 926 137 978 c 0
 137 1092 50 1118 50 1130 c 0
 50 1152 147 1209 147 1323 c 0
 147 1513 364 1586 607 1586 c 0
 730 1586 983 1536 983 1374 c 2
 983 1373 l 2
 983 1250 1003 1189 1066 1136 c 1
 1066 1136 1063 1096 994 1096 c 0
 911 1096 854 1174 854 1174 c 1
 854 1174 796 1096 701 1096 c 0
 670 1096 669 1136 669 1136 c 1
 706 1177 713 1211 713 1302 c 0
 713 1344 665 1372 583 1372 c 0
 433 1372 415 1273 415 1197 c 0
 415 1092 404 913 536 913 c 0
 650 913 685 935 716 979 c 1
 716 979 743 976 743 929 c 0
 743 865 703 826 703 826 c 1
 703 826 743 792 743 735 c 0
 743 686 716 684 716 684 c 1
 675 727 635 743 535 743 c 0
 411 743 414 532 414 336 c 0
 414 254 437 146 633 146 c 0
 781 146 800 209 800 285 c 0
EndSplineSet
EndChar

StartChar: quoteright
Encoding: 8217 8217 8
Width: 452
Flags: HW
LayerCount: 2
Fore
SplineSet
88 853 m 1
 88 947 l 1
 191 972 250 1026 250 1149 c 1
 248 1149 l 1
 221 1136 179 1132 140 1132 c 1
 109 1173 78 1239 78 1319 c 1
 99 1362 152 1395 216 1395 c 0
 267 1395 311 1381 350 1360 c 1
 367 1297 377 1229 377 1158 c 0
 377 974 264 869 88 853 c 1
EndSplineSet
EndChar

StartChar: parenleft
Encoding: 40 40 9
Width: 693
Flags: HW
LayerCount: 2
Fore
SplineSet
656 1608 m 1
 656 1467 l 1
 382 1342 305 1034 305 694 c 0
 305 355 382 44 656 -78 c 1
 656 -219 l 1
 268 -110 66 265 66 694 c 0
 66 1122 268 1499 656 1608 c 1
EndSplineSet
EndChar

StartChar: parenright
Encoding: 41 41 10
Width: 697
Flags: HW
LayerCount: 2
Fore
SplineSet
38 -219 m 1
 38 -78 l 1
 312 44 389 355 389 694 c 0
 389 1034 312 1342 38 1467 c 1
 38 1608 l 1
 425 1499 628 1123 628 694 c 0
 628 266 425 -112 38 -219 c 1
EndSplineSet
EndChar

StartChar: asterisk
Encoding: 42 42 11
Width: 848
Flags: HW
LayerCount: 2
Fore
SplineSet
660 412 m 1
 658 408 l 1
 430 550 l 1
 193 406 l 1
 192 409 l 1
 256 667 l 1
 46 849 l 1
 314 869 l 1
 422 1125 l 1
 524 876 l 1
 800 853 l 1
 595 679 l 1
 660 412 l 1
EndSplineSet
EndChar

StartChar: plus
Encoding: 43 43 12
Width: 1148
Flags: HW
LayerCount: 2
Fore
SplineSet
493 655 m 1
 493 1087 l 1
 656 1087 l 1
 656 655 l 1
 1088 655 l 1
 1088 492 l 1
 656 492 l 1
 656 60 l 1
 493 60 l 1
 493 492 l 1
 61 492 l 1
 61 655 l 1
 493 655 l 1
EndSplineSet
EndChar

StartChar: comma
Encoding: 44 44 13
Width: 469
Flags: HW
LayerCount: 2
Fore
SplineSet
96 -283 m 1
 96 -189 l 1
 199 -163 258 -109 258 13 c 1
 256 13 l 1
 229 1 187 -3 148 -3 c 1
 117 38 86 103 86 183 c 1
 107 226 160 259 224 259 c 0
 275 259 319 245 358 224 c 1
 375 161 385 93 385 22 c 0
 385 -160 272 -267 96 -283 c 1
EndSplineSet
EndChar

StartChar: hyphen
Encoding: 45 45 14
Width: 838
Flags: HW
LayerCount: 2
Fore
SplineSet
113 548 m 1
 113 548 88 551 88 594 c 2
 88 690 l 2
 88 733 113 736 113 736 c 1
 181 726 302 723 429 723 c 0
 545 723 671 729 723 736 c 1
 723 736 748 733 748 690 c 2
 748 594 l 2
 748 550 723 548 723 548 c 1
 676 554 544 561 426 561 c 0
 297 561 175 558 113 548 c 1
EndSplineSet
EndChar

StartChar: period
Encoding: 46 46 15
Width: 529
Flags: HW
LayerCount: 2
Fore
SplineSet
115 274 m 1
 156 295 209 307 267 307 c 0
 313 307 363 299 412 282 c 1
 433 241 445 189 445 132 c 0
 445 84 436 34 419 -15 c 1
 378 -36 325 -48 267 -48 c 0
 220 -48 170 -40 120 -22 c 1
 100 18 89 69 89 126 c 0
 89 173 97 224 115 274 c 1
EndSplineSet
EndChar

StartChar: slash
Encoding: 47 47 16
Width: 891
Flags: HW
LayerCount: 2
Fore
SplineSet
39 -35 m 1
 715 1612 l 1
 860 1542 l 1
 184 -105 l 1
 39 -35 l 1
EndSplineSet
EndChar

StartChar: zero
Encoding: 48 48 17
Width: 1244
Flags: HW
LayerCount: 2
Fore
SplineSet
498 421 m 0
 498 206 498 98 628 98 c 0
 759 98 760 218 760 432 c 0
 760 705 675 733 675 748 c 0
 675 777 760 772 760 1088 c 0
 760 1290 758 1372 628 1372 c 0
 499 1372 497 1290 497 1088 c 0
 497 772 581 777 581 748 c 0
 581 730 498 695 498 421 c 0
1093 421 m 0
 1093 37 926 -92 628 -92 c 0
 330 -92 163 37 163 421 c 0
 163 708 39 734 39 748 c 0
 39 773 163 779 163 1077 c 0
 163 1505 330 1586 629 1586 c 0
 926 1586 1093 1505 1093 1077 c 0
 1093 784 1203 772 1203 748 c 0
 1203 746 1200 744 1194 739 c 0
 1161 714 1093 659 1093 421 c 0
EndSplineSet
EndChar

StartChar: one
Encoding: 49 49 18
Width: 641
Flags: HW
LayerCount: 2
Fore
SplineSet
173 375 m 0
 173 726 64 722 64 756 c 0
 64 801 173 770 173 1148 c 0
 173 1338 142 1415 52 1503 c 1
 52 1503 56 1562 157 1562 c 0
 261 1562 322 1477 322 1477 c 1
 322 1477 384 1562 487 1562 c 0
 589 1562 593 1503 593 1503 c 1
 503 1415 472 1338 472 1148 c 0
 472 770 581 801 581 756 c 0
 581 722 472 726 472 375 c 0
 472 169 503 80 593 -14 c 1
 593 -14 589 -74 487 -74 c 0
 384 -74 322 11 322 11 c 1
 322 11 261 -74 157 -74 c 0
 57 -74 52 -14 52 -14 c 1
 142 80 173 169 173 375 c 0
EndSplineSet
EndChar

StartChar: two
Encoding: 50 50 19
Width: 1156
Flags: HW
LayerCount: 2
Fore
SplineSet
651 1006 m 1
 671 1036 723 1131 723 1206 c 0
 723 1295 692 1372 592 1372 c 0
 451 1372 438 1297 438 1226 c 0
 438 1130 439 1105 532 1068 c 1
 532 1068 527 1024 452 1024 c 0
 354 1024 295 1088 295 1088 c 1
 295 1088 228 1024 130 1024 c 0
 54 1024 51 1068 51 1068 c 1
 120 1108 142 1143 142 1227 c 0
 142 1547 405 1586 598 1586 c 0
 826 1586 1028 1483 1028 1223 c 0
 1028 1008 853 852 853 720 c 0
 853 671 875 646 875 635 c 1
 865 634 865 633 865 631 c 1
 830 619 753 591 618 246 c 1
 732 246 761 240 868 240 c 0
 970 240 1022 266 1074 327 c 1
 1074 327 1107 307 1107 251 c 0
 1107 183 1035 133 1027 129 c 1
 1044 116 1107 67 1107 2 c 0
 1107 -61 1080 -72 1073 -74 c 1
 1000 -20 936 0 879 0 c 0
 795 0 734 -75 667 -75 c 0
 630 -75 590 -45 542 18 c 1
 527 18 525 15 523 11 c 0
 508 -11 469 -75 412 -75 c 0
 312 -75 304 -17 304 -1 c 2
 304 46 l 1
 304 46 196 -76 118 -76 c 0
 89 -76 49 -50 49 -1 c 0
 49 7 50 14 54 24 c 1
 190 116 276 211 386 477 c 1
 441 595 450 671 450 717 c 0
 450 761 426 786 426 796 c 0
 426 818 537 757 651 1006 c 1
EndSplineSet
EndChar

StartChar: three
Encoding: 51 51 20
Width: 1151
Flags: HW
LayerCount: 2
Fore
SplineSet
624 675 m 0
 564 675 537 670 509 656 c 1
 509 656 482 659 482 707 c 0
 482 740 522 758 522 758 c 1
 522 758 482 781 482 821 c 0
 482 868 509 871 509 871 c 1
 538 857 564 853 624 853 c 0
 729 853 734 1030 734 1165 c 0
 734 1243 739 1372 587 1372 c 0
 446 1372 433 1297 433 1226 c 0
 433 1130 434 1105 527 1068 c 1
 527 1068 522 1024 447 1024 c 0
 349 1024 290 1088 290 1088 c 1
 290 1088 223 1024 125 1024 c 0
 49 1024 46 1068 46 1068 c 1
 115 1108 137 1143 137 1227 c 0
 137 1547 400 1586 593 1586 c 0
 811 1586 1003 1513 1003 1323 c 0
 1003 1209 1100 1152 1100 1130 c 0
 1100 1116 1013 1088 1013 958 c 0
 1013 894 962 772 857 761 c 1
 962 750 1013 612 1013 569 c 0
 1013 498 1100 420 1100 408 c 0
 1100 384 1013 326 1013 193 c 0
 1013 14 826 -75 593 -75 c 0
 400 -75 137 -37 137 274 c 0
 137 358 115 394 46 433 c 1
 46 433 49 477 125 477 c 0
 223 477 290 413 290 413 c 1
 290 413 349 477 447 477 c 0
 522 477 527 433 527 433 c 1
 434 398 433 375 433 285 c 0
 433 214 446 139 587 139 c 0
 724 139 734 275 734 359 c 0
 734 518 732 675 624 675 c 0
EndSplineSet
EndChar

StartChar: four
Encoding: 52 52 21
Width: 1225
Flags: HW
LayerCount: 2
Fore
SplineSet
950 515 m 2
 1043 515 1090 538 1138 584 c 1
 1138 584 1178 580 1178 514 c 0
 1178 455 1126 419 1121 416 c 1
 1123 414 1178 377 1178 317 c 0
 1178 251 1138 246 1138 246 c 1
 1069 290 1012 306 959 306 c 2
 948 306 l 1
 952 143 981 67 1058 -13 c 1
 1058 -13 1054 -67 962 -67 c 0
 868 -67 812 10 812 10 c 1
 812 10 756 -67 662 -67 c 0
 571 -67 566 -13 566 -13 c 1
 638 62 668 134 674 277 c 1
 667 278 660 278 653 278 c 0
 581 278 505 246 437 246 c 0
 379 246 327 270 290 360 c 1
 290 360 232 246 134 246 c 0
 68 246 45 277 45 324 c 0
 45 404 99 530 127 615 c 1
 161 699 180 753 180 794 c 0
 180 889 133 897 133 913 c 0
 133 951 257 925 363 1228 c 0
 383 1285 391 1332 391 1368 c 0
 391 1423 371 1462 331 1503 c 1
 331 1503 354 1562 455 1562 c 0
 565 1562 577 1457 577 1457 c 1
 592 1536 643 1565 694 1565 c 0
 750 1565 807 1519 812 1465 c 1
 812 1465 868 1562 962 1562 c 0
 1034 1562 1038 1508 1038 1508 c 1
 970 1412 948 1338 948 1146 c 2
 948 515 l 1
 950 515 l 2
390 516 m 1
 443 516 507 516 676 515 c 1
 676 1373 l 1
 511 854 416 611 390 516 c 1
EndSplineSet
EndChar

StartChar: five
Encoding: 53 53 22
Width: 893
Flags: HW
LayerCount: 2
Fore
SplineSet
340 359 m 0
 340 198 341 106 412 106 c 0
 512 106 516 235 516 300 c 0
 516 419 498 466 433 521 c 1
 433 521 436 561 505 561 c 0
 576 561 618 503 618 503 c 1
 618 503 661 561 732 561 c 0
 801 561 804 521 804 521 c 1
 742 469 730 422 730 314 c 2
 730 193 l 2
 730 -33 541 -66 400 -66 c 0
 209 -66 80 55 80 257 c 2
 80 351 l 2
 80 587 266 608 342 608 c 0
 359 608 370 607 373 607 c 1
 263 638 80 698 80 1024 c 2
 80 1118 l 2
 80 1355 242 1442 427 1442 c 0
 576 1442 770 1408 770 1111 c 0
 770 1013 790 971 853 924 c 1
 853 924 850 884 781 884 c 0
 710 884 667 942 667 942 c 1
 667 942 625 884 554 884 c 0
 485 884 482 924 482 924 c 1
 554 977 566 1021 566 1147 c 0
 566 1197 554 1262 451 1262 c 0
 346 1262 341 1180 341 1099 c 0
 341 866 430 866 530 843 c 1
 530 843 340 669 340 359 c 0
EndSplineSet
EndChar

StartChar: six
Encoding: 54 54 23
Width: 1150
Flags: HW
LayerCount: 2
Fore
SplineSet
504 486 m 0
 504 473 417 476 417 307 c 0
 417 200 430 129 582 129 c 0
 742 129 743 186 743 307 c 0
 743 476 655 472 655 486 c 0
 655 499 753 503 753 663 c 0
 753 784 752 837 582 837 c 0
 439 837 427 768 427 663 c 0
 427 503 504 499 504 486 c 0
585 -65 m 0
 359 -65 126 30 126 292 c 0
 126 472 39 470 39 486 c 0
 39 503 148 523 148 755 c 2
 148 1087 l 2
 148 1382 456 1444 590 1444 c 0
 635 1444 674 1440 721 1440 c 0
 781 1440 845 1458 921 1509 c 1
 921 1509 952 1492 952 1437 c 0
 952 1372 880 1324 880 1324 c 1
 880 1324 952 1279 952 1212 c 0
 952 1155 929 1144 922 1142 c 1
 870 1195 813 1221 711 1221 c 0
 427 1221 428 1131 428 981 c 1
 505 1002 570 1017 635 1017 c 0
 841 1017 1034 934 1034 687 c 0
 1034 507 1111 501 1111 486 c 0
 1111 470 1024 472 1024 292 c 0
 1024 30 811 -65 585 -65 c 0
EndSplineSet
EndChar

StartChar: seven
Encoding: 55 55 24
Width: 1092
Flags: HW
LayerCount: 2
Fore
SplineSet
822 662 m 1
 675 622 625 157 560 11 c 1
 545 -11 506 -75 449 -75 c 0
 367 -75 361 -17 361 -1 c 2
 361 46 l 1
 361 46 241 -76 155 -76 c 0
 126 -76 86 -50 86 -1 c 0
 86 7 87 14 91 24 c 1
 199 78 400 487 400 731 c 0
 400 768 395 801 384 828 c 1
 383 827 l 1
 387 832 l 1
 391 850 443 838 546 1099 c 1
 546 1098 l 1
 564 1150 601 1255 601 1255 c 1
 601 1255 411 1246 285 1246 c 0
 189 1246 136 1220 85 1162 c 1
 85 1162 54 1180 54 1236 c 0
 54 1305 123 1357 131 1363 c 1
 125 1366 54 1416 54 1485 c 0
 54 1542 77 1557 87 1560 c 1
 158 1506 217 1488 275 1488 c 0
 313 1488 343 1509 375 1529 c 1
 374 1529 l 1
 399 1546 425 1561 451 1561 c 0
 486 1561 531 1529 582 1461 c 1
 582 1461 645 1561 737 1561 c 0
 832 1561 839 1478 839 1438 c 1
 839 1438 933 1561 1003 1561 c 0
 1033 1561 1058 1528 1058 1472 c 0
 1058 1461 1057 1449 1052 1436 c 1
 972 1350 939 1253 860 994 c 1
 822 859 810 795 810 750 c 0
 810 701 832 676 832 665 c 1
 822 664 822 663 822 661 c 2
 822 662 l 1
EndSplineSet
EndChar

StartChar: eight
Encoding: 56 56 25
Width: 1092
Flags: HW
LayerCount: 2
Fore
SplineSet
396 627 m 1
 210 723 90 867 90 1050 c 0
 90 1304 289 1442 588 1442 c 0
 836 1442 1004 1265 1004 1068 c 0
 1004 928 890 778 620 673 c 1
 539 681 524 687 524 693 c 0
 524 717 540 760 545 759 c 1
 677 828 758 945 758 1051 c 0
 758 1182 662 1244 567 1244 c 0
 475 1244 384 1187 384 1080 c 0
 384 959 427 886 578 826 c 1
 809 738 1034 549 1034 297 c 0
 1034 30 815 -85 546 -85 c 0
 200 -85 58 92 58 294 c 0
 58 453 205 633 438 739 c 1
 507 702 l 1
 456 657 346 486 346 331 c 0
 346 172 447 116 544 116 c 0
 626 116 705 162 705 288 c 0
 705 517 535 541 396 627 c 1
EndSplineSet
EndChar

StartChar: nine
Encoding: 57 57 26
Width: 1153
Flags: HW
LayerCount: 2
Fore
SplineSet
647 891 m 0
 647 904 734 901 734 1070 c 0
 734 1177 721 1248 569 1248 c 0
 409 1248 408 1191 408 1070 c 0
 408 901 496 905 496 891 c 0
 496 878 398 874 398 714 c 0
 398 593 399 540 569 540 c 0
 712 540 724 609 724 714 c 0
 724 874 647 878 647 891 c 0
566 1442 m 0
 792 1442 1025 1347 1025 1085 c 0
 1025 905 1112 907 1112 891 c 0
 1112 874 1003 854 1003 622 c 2
 1003 290 l 2
 1003 -5 695 -67 561 -67 c 0
 516 -67 477 -63 430 -63 c 0
 370 -63 306 -81 230 -132 c 1
 230 -132 199 -115 199 -60 c 0
 199 5 271 53 271 53 c 1
 271 53 199 98 199 165 c 0
 199 222 222 233 229 235 c 1
 281 182 338 156 440 156 c 0
 724 156 723 246 723 396 c 1
 662 375 609 360 556 360 c 0
 330 360 117 443 117 690 c 0
 117 870 40 876 40 891 c 0
 40 907 127 905 127 1085 c 0
 127 1347 340 1442 566 1442 c 0
EndSplineSet
EndChar

StartChar: colon
Encoding: 58 58 27
Width: 445
Flags: HW
LayerCount: 2
Fore
SplineSet
86 183 m 1
 127 226 200 259 284 259 c 1
 327 218 360 144 360 60 c 1
 319 17 245 -16 161 -16 c 1
 118 25 86 99 86 183 c 1
86 867 m 1
 127 910 200 943 284 943 c 1
 327 902 360 828 360 744 c 1
 319 701 245 668 161 668 c 1
 118 709 86 783 86 867 c 1
EndSplineSet
EndChar

StartChar: semicolon
Encoding: 59 59 28
Width: 463
Flags: HW
LayerCount: 2
Fore
SplineSet
92 -283 m 1
 92 -189 l 1
 195 -163 254 -109 254 13 c 1
 252 13 l 1
 225 1 183 -3 144 -3 c 1
 113 38 82 103 82 183 c 1
 103 226 156 259 220 259 c 0
 271 259 315 245 354 224 c 1
 371 161 381 93 381 22 c 0
 381 -160 268 -267 92 -283 c 1
96 867 m 1
 137 910 210 943 294 943 c 1
 337 902 370 828 370 744 c 1
 329 701 255 668 171 668 c 1
 128 709 96 783 96 867 c 1
EndSplineSet
EndChar

StartChar: less
Encoding: 60 60 29
Width: 1198
Flags: HW
LayerCount: 2
Fore
SplineSet
1127 216 m 1
 1127 41 l 1
 58 498 l 1
 58 648 l 1
 1127 1107 l 1
 1127 931 l 1
 282 573 l 1
 1127 216 l 1
EndSplineSet
EndChar

StartChar: equal
Encoding: 61 61 30
Width: 1220
Flags: HW
LayerCount: 2
Fore
SplineSet
1123 870 m 1
 1123 707 l 1
 96 707 l 1
 96 870 l 1
 1123 870 l 1
1123 441 m 1
 1123 278 l 1
 96 278 l 1
 96 441 l 1
 1123 441 l 1
EndSplineSet
EndChar

StartChar: greater
Encoding: 62 62 31
Width: 1198
Flags: HW
LayerCount: 2
Fore
SplineSet
72 216 m 1
 917 573 l 1
 72 931 l 1
 72 1106 l 1
 1141 648 l 1
 1141 498 l 1
 72 41 l 1
 72 216 l 1
EndSplineSet
EndChar

StartChar: question
Encoding: 63 63 32
Width: 977
Flags: HW
LayerCount: 2
Fore
SplineSet
492 377 m 1
 363 377 l 1
 363 654 l 1
 366 697 391 730 422 763 c 1
 449 776 476 790 503 806 c 1
 599 838 679 906 679 1031 c 0
 679 1170 567 1249 444 1249 c 0
 293 1249 204 1167 197 1006 c 1
 208 1012 221 1017 235 1017 c 0
 241 1017 256 1018 256 1008 c 0
 256 998 251 976 228 944 c 1
 227 917 206 897 168 897 c 0
 91 897 46 984 46 1062 c 0
 46 1067 47 1072 47 1077 c 0
 74 1306 284 1406 470 1406 c 0
 711 1406 923 1275 923 1024 c 0
 923 761 638 662 505 533 c 1
 500 481 496 429 492 377 c 1
294 183 m 1
 335 226 409 259 493 259 c 1
 536 218 568 144 568 60 c 1
 527 17 454 -16 370 -16 c 1
 327 25 294 99 294 183 c 1
EndSplineSet
EndChar

StartChar: at
Encoding: 64 64 33
Width: 1792
Flags: HW
LayerCount: 2
Fore
SplineSet
655 496 m 0
 655 356 727 268 821 268 c 0
 993 268 1119 555 1119 733 c 0
 1119 862 1063 938 957 938 c 0
 777 938 655 682 655 496 c 0
1168 923 m 1
 1196 1038 l 1
 1363 1038 l 1
 1210 379 l 1
 1207 371 1206 363 1206 354 c 0
 1206 309 1226 266 1277 266 c 0
 1391 266 1594 475 1594 748 c 0
 1594 1046 1332 1319 944 1319 c 0
 562 1319 241 1034 241 553 c 0
 241 175 516 -106 967 -106 c 0
 1220 -106 1400 -32 1532 95 c 1
 1638 49 l 1
 1481 -121 1274 -237 969 -237 c 0
 345 -237 60 163 60 557 c 0
 60 985 362 1446 948 1446 c 0
 1411 1446 1728 1132 1728 747 c 0
 1728 463 1519 140 1226 140 c 0
 1095 140 1034 225 1034 298 c 1
 1032 298 l 1
 977 230 872 145 756 142 c 1
 652 142 527 203 495 379 c 1
 483 416 476 458 476 503 c 0
 476 763 678 1067 943 1067 c 0
 1054 1067 1117 1007 1168 923 c 1
EndSplineSet
EndChar

StartChar: A
Encoding: 65 65 34
Width: 1356
Flags: HW
LayerCount: 2
Fore
SplineSet
668 1562 m 0
 751 1562 835 1531 877 1456 c 1
 877 1456 934 1562 1057 1562 c 0
 1157 1562 1169 1503 1169 1503 c 1
 1101 1425 1075 1346 1075 1263 c 0
 1075 1226 1077 1189 1080 1148 c 0
 1108 765 1197 802 1197 754 c 0
 1197 726 1133 721 1133 510 c 0
 1133 473 1137 428 1141 375 c 1
 1164 169 1207 80 1312 -14 c 1
 1312 -14 1313 -74 1216 -74 c 0
 1125 -74 1063 11 1063 11 c 1
 1063 11 1010 -74 896 -74 c 0
 795 -74 784 -14 784 -14 c 1
 821 61 842 134 842 257 c 0
 842 406 825 527 801 610 c 1
 779 629 725 640 667 640 c 0
 617 640 566 629 544 610 c 1
 520 527 503 406 503 257 c 0
 503 134 523 61 561 -14 c 1
 561 -14 550 -74 449 -74 c 0
 335 -74 282 11 282 11 c 1
 282 11 220 -74 129 -74 c 0
 32 -74 33 -14 33 -14 c 1
 138 80 181 169 204 375 c 0
 210 428 212 473 212 510 c 0
 212 721 148 726 148 754 c 0
 148 802 237 765 265 1148 c 0
 268 1189 270 1226 270 1263 c 0
 270 1346 244 1425 176 1503 c 1
 176 1503 188 1562 288 1562 c 0
 411 1562 468 1456 468 1456 c 1
 510 1531 591 1562 668 1562 c 0
667 790 m 0
 721 790 776 799 776 817 c 0
 776 1008 778 1122 755 1297 c 1
 745 1345 729 1367 671 1367 c 0
 613 1367 600 1345 590 1297 c 1
 567 1122 569 1008 569 817 c 0
 569 799 621 790 667 790 c 0
EndSplineSet
EndChar

StartChar: B
Encoding: 66 66 35
Width: 1124
Flags: HW
LayerCount: 2
Fore
SplineSet
862 761 m 1
 967 750 1018 612 1018 569 c 0
 1018 498 1105 420 1105 408 c 0
 1105 384 1018 326 1018 193 c 0
 1018 14 846 -73 648 -73 c 0
 544 -73 413 -61 344 42 c 1
 344 42 269 -73 157 -73 c 0
 84 -73 53 -22 53 -22 c 1
 140 59 173 185 173 386 c 0
 173 727 64 723 64 756 c 0
 64 801 173 772 173 1151 c 0
 173 1334 142 1417 52 1503 c 1
 52 1503 56 1562 157 1562 c 0
 274 1562 344 1459 344 1459 c 1
 413 1569 544 1586 648 1586 c 0
 841 1586 1008 1513 1008 1323 c 0
 1008 1209 1105 1152 1105 1130 c 0
 1105 1116 1018 1088 1018 958 c 0
 1018 894 967 772 862 761 c 1
471 853 m 1
 559 853 l 2
 724 853 738 1007 738 1137 c 0
 738 1204 758 1372 622 1372 c 0
 474 1372 472 1285 472 1220 c 0
 472 870 471 853 471 853 c 1
471 682 m 1
 471 682 472 659 472 309 c 0
 472 240 474 146 622 146 c 0
 758 146 739 330 739 400 c 0
 739 545 723 683 510 683 c 0
 485 683 471 682 471 682 c 1
EndSplineSet
EndChar

StartChar: C
Encoding: 67 67 36
Width: 1051
Flags: HW
LayerCount: 2
Fore
SplineSet
443 395 m 0
 443 218 444 117 555 117 c 0
 645 117 648 254 648 327 c 0
 648 460 630 512 557 573 c 1
 557 573 560 617 636 617 c 0
 727 617 782 553 782 553 c 1
 782 553 849 617 947 617 c 0
 1023 617 1026 573 1026 573 c 1
 958 516 945 464 945 345 c 2
 945 212 l 2
 945 -36 711 -73 542 -73 c 0
 299 -73 135 61 135 283 c 2
 135 386 l 2
 135 727 26 723 26 756 c 0
 26 799 135 770 135 1126 c 2
 135 1230 l 2
 135 1491 324 1586 539 1586 c 0
 712 1586 945 1549 945 1300 c 2
 945 1167 l 2
 945 1043 967 988 1036 928 c 1
 1036 928 1033 884 957 884 c 0
 859 884 792 948 792 948 c 1
 792 948 733 884 635 884 c 0
 560 884 555 928 555 928 c 1
 636 994 648 1045 648 1202 c 0
 648 1275 637 1372 543 1372 c 0
 430 1372 442 1232 442 1154 c 0
 442 779 552 809 552 765 c 0
 552 732 443 736 443 395 c 0
EndSplineSet
EndChar

StartChar: D
Encoding: 68 68 37
Width: 1202
Flags: HW
LayerCount: 2
Fore
SplineSet
485 342 m 0
 485 210 488 117 616 117 c 0
 749 117 747 200 747 351 c 0
 747 722 671 719 671 756 c 0
 671 809 747 762 747 1218 c 0
 747 1258 747 1372 625 1372 c 0
 487 1372 485 1285 485 1220 c 0
 485 763 561 807 561 756 c 0
 561 718 485 723 485 342 c 0
175 386 m 0
 175 727 66 723 66 756 c 0
 66 802 175 773 175 1163 c 0
 175 1341 144 1419 54 1503 c 1
 54 1503 58 1562 159 1562 c 0
 270 1562 337 1462 337 1462 c 1
 414 1570 558 1586 673 1586 c 0
 888 1586 1077 1491 1077 1230 c 2
 1077 1126 l 2
 1077 770 1164 799 1164 756 c 0
 1164 723 1077 727 1077 386 c 2
 1077 283 l 2
 1077 61 917 -74 681 -74 c 0
 558 -74 415 -51 337 41 c 1
 337 41 270 -74 159 -74 c 0
 58 -74 54 -14 54 -14 c 1
 144 74 175 197 175 386 c 0
EndSplineSet
EndChar

StartChar: E
Encoding: 69 69 38
Width: 1100
Flags: HW
LayerCount: 2
Fore
SplineSet
526 669 m 5
 482 206 l 1
 482 120 546 117 581 117 c 0
 669 117 700 176 700 237 c 0
 700 310 671 354 629 395 c 1
 629 395 634 435 700 435 c 0
 781 435 831 377 831 377 c 1
 831 377 881 435 963 435 c 0
 1029 435 1033 395 1033 395 c 1
 971 346 952 278 952 199 c 0
 952 100 974 28 1043 -30 c 1
 1043 -30 1040 -74 964 -74 c 0
 859 -74 794 21 794 21 c 1
 738 -46 633 -74 557 -74 c 0
 423 -74 346 41 346 40 c 2
 346 40 275 -74 158 -74 c 0
 57 -74 53 -14 53 -14 c 1
 173 62 173 132 173 375 c 0
 173 726 64 722 64 756 c 0
 64 801 173 770 173 1148 c 0
 173 1332 142 1417 52 1503 c 1
 52 1503 56 1562 157 1562 c 0
 274 1562 344 1447 344 1447 c 1
 344 1444 421 1562 556 1562 c 0
 631 1562 737 1533 793 1466 c 1
 793 1466 858 1562 963 1562 c 0
 1038 1562 1042 1516 1042 1516 c 1
 973 1464 951 1402 951 1312 c 0
 951 1237 970 1174 1032 1127 c 1
 1032 1127 1027 1088 962 1088 c 0
 880 1088 830 1145 830 1145 c 1
 830 1145 780 1088 699 1088 c 0
 633 1088 628 1127 628 1127 c 1
 670 1165 699 1209 699 1277 c 0
 699 1329 674 1372 591 1372 c 0
 551 1372 483 1368 483 1294 c 1
 526 847 l 5
 671 847 746 861 811 905 c 5
 811 905 838 902 838 855 c 4
 838 791 798 752 798 752 c 5
 798 752 838 718 838 661 c 4
 838 613 811 610 811 610 c 5
 746 653 671 669 526 669 c 5
EndSplineSet
EndChar

StartChar: F
Encoding: 70 70 39
Width: 1001
Flags: HW
LayerCount: 2
Fore
SplineSet
481 375 m 1
 481 125 482 55 602 -23 c 1
 602 -23 571 -74 497 -74 c 0
 398 -74 332 40 332 40 c 1
 332 40 261 -74 155 -74 c 0
 81 -74 51 -23 51 -23 c 1
 171 55 171 125 171 375 c 0
 171 726 62 722 62 756 c 0
 62 801 171 770 171 1148 c 0
 171 1332 140 1417 50 1503 c 1
 50 1503 54 1562 155 1562 c 0
 278 1562 354 1457 354 1457 c 1
 354 1455 418 1562 532 1562 c 0
 598 1562 687 1533 737 1466 c 1
 737 1466 798 1562 895 1562 c 0
 971 1562 975 1518 975 1518 c 1
 905 1466 883 1402 883 1312 c 0
 883 1237 903 1174 965 1127 c 1
 965 1127 960 1088 894 1088 c 0
 820 1088 773 1145 773 1145 c 1
 773 1145 728 1088 653 1088 c 0
 587 1088 583 1127 583 1127 c 1
 625 1165 653 1201 653 1266 c 0
 653 1312 635 1371 568 1371 c 0
 537 1371 481 1362 481 1287 c 1
 514 833 l 1
 653 833 725 850 788 894 c 1
 788 894 815 891 815 844 c 0
 815 780 774 741 774 741 c 1
 774 741 815 703 815 639 c 0
 815 591 788 588 788 588 c 1
 725 631 653 651 514 651 c 1
 481 375 l 1
EndSplineSet
EndChar

StartChar: G
Encoding: 71 71 40
Width: 1148
Flags: HW
LayerCount: 2
Fore
SplineSet
447 395 m 0
 447 205 448 96 559 96 c 0
 670 96 673 245 673 326 c 0
 673 460 657 512 582 573 c 1
 582 573 585 617 661 617 c 0
 753 617 812 553 812 553 c 1
 812 553 879 617 977 617 c 0
 1053 617 1056 573 1056 573 c 1
 988 516 975 464 975 345 c 0
 975 157 1010 85 1102 1 c 1
 1102 -45 1042 -75 971 -75 c 0
 929 -75 859 -40 819 36 c 1
 731 -70 610 -94 513 -94 c 0
 290 -94 134 40 134 262 c 2
 134 386 l 2
 134 727 26 723 26 756 c 0
 26 799 134 770 134 1126 c 2
 134 1230 l 2
 134 1491 328 1586 543 1586 c 0
 724 1586 975 1549 975 1300 c 2
 975 1167 l 2
 975 1043 997 988 1066 928 c 1
 1066 928 1063 884 987 884 c 0
 889 884 822 948 822 948 c 1
 822 948 758 884 660 884 c 0
 584 884 581 928 581 928 c 1
 661 997 673 1055 673 1219 c 0
 673 1287 662 1372 569 1372 c 0
 458 1372 446 1288 446 1209 c 0
 446 1186 447 1163 447 1143 c 0
 447 779 556 807 556 765 c 0
 556 732 447 736 447 395 c 0
EndSplineSet
EndChar

StartChar: H
Encoding: 72 72 41
Width: 1286
Flags: HW
LayerCount: 2
Fore
SplineSet
175 364 m 0
 175 715 66 722 66 756 c 0
 66 801 175 770 175 1148 c 0
 175 1332 144 1417 54 1503 c 1
 54 1503 58 1562 160 1562 c 0
 263 1562 325 1457 325 1457 c 1
 325 1457 386 1562 490 1562 c 0
 591 1562 595 1503 595 1503 c 1
 505 1417 474 1332 474 1148 c 0
 474 1004 492 922 512 872 c 1
 544 856 589 847 635 847 c 0
 681 847 728 856 764 872 c 1
 785 922 802 1004 802 1148 c 0
 802 1332 771 1417 681 1503 c 1
 681 1503 687 1562 787 1562 c 0
 890 1562 952 1457 952 1457 c 1
 952 1457 1013 1562 1117 1562 c 0
 1218 1562 1222 1503 1222 1503 c 1
 1131 1417 1101 1332 1101 1148 c 0
 1101 770 1210 801 1210 756 c 0
 1210 722 1101 715 1101 364 c 0
 1101 169 1132 76 1222 -14 c 1
 1222 -14 1218 -74 1117 -74 c 0
 1013 -74 952 41 952 41 c 1
 952 41 890 -74 787 -74 c 0
 687 -74 681 -14 681 -14 c 1
 771 76 802 169 802 364 c 0
 802 514 780 606 756 654 c 1
 726 670 681 679 636 679 c 0
 593 679 550 671 520 654 c 1
 496 606 474 514 474 364 c 0
 474 169 504 76 595 -14 c 1
 595 -14 590 -74 490 -74 c 0
 386 -74 325 41 325 41 c 1
 325 41 263 -74 160 -74 c 0
 60 -74 54 -14 54 -14 c 1
 144 76 175 169 175 364 c 0
EndSplineSet
EndChar

StartChar: I
Encoding: 73 73 42
Width: 659
Flags: HW
LayerCount: 2
Fore
SplineSet
175 375 m 0
 175 726 66 722 66 756 c 0
 66 801 175 770 175 1148 c 0
 175 1338 144 1415 54 1503 c 1
 54 1503 58 1562 159 1562 c 0
 263 1562 324 1457 324 1457 c 1
 324 1457 386 1562 489 1562 c 0
 591 1562 595 1503 595 1503 c 1
 505 1415 474 1338 474 1148 c 0
 474 770 583 801 583 756 c 0
 583 722 474 726 474 375 c 0
 474 169 505 80 595 -14 c 1
 595 -14 591 -74 489 -74 c 0
 386 -74 324 41 324 41 c 1
 324 41 263 -74 159 -74 c 0
 59 -74 54 -14 54 -14 c 1
 144 80 175 169 175 375 c 0
EndSplineSet
EndChar

StartChar: J
Encoding: 74 74 43
Width: 791
Flags: HW
LayerCount: 2
Fore
SplineSet
254 -147 m 0
 199 -147 140 -163 68 -207 c 1
 68 -207 28 -202 28 -136 c 0
 28 -69 85 -27 85 -27 c 1
 85 -27 28 17 28 91 c 0
 28 157 68 162 68 162 c 1
 106 115 147 93 223 93 c 0
 333 93 334 200 334 387 c 0
 334 736 226 726 226 759 c 0
 226 804 334 770 334 1148 c 0
 334 1321 303 1421 213 1503 c 1
 213 1503 219 1562 318 1562 c 0
 420 1562 481 1457 481 1457 c 1
 481 1457 540 1562 648 1562 c 0
 749 1562 754 1503 754 1503 c 1
 662 1421 633 1321 633 1148 c 0
 633 770 740 801 740 756 c 0
 740 723 633 727 633 386 c 0
 633 7 524 -147 254 -147 c 0
EndSplineSet
EndChar

StartChar: K
Encoding: 75 75 44
Width: 1418
Flags: HW
LayerCount: 2
Fore
SplineSet
738 649 m 1
 725 660 l 1
 701 661 667 661 636 661 c 2
 568 661 l 2
 550 661 532 661 506 665 c 1
 495 406 l 1
 495 177 533 77 645 -33 c 1
 645 -33 622 -92 527 -92 c 0
 420 -92 346 45 346 45 c 1
 346 45 271 -92 165 -92 c 0
 69 -92 50 -46 47 -33 c 1
 148 76 185 176 185 406 c 0
 185 745 61 757 61 788 c 0
 61 833 185 812 185 1102 c 0
 185 1313 150 1401 46 1499 c 1
 46 1499 69 1561 165 1561 c 0
 271 1561 346 1442 346 1442 c 1
 346 1442 420 1561 527 1561 c 0
 626 1561 642 1514 645 1500 c 1
 533 1404 495 1316 495 1113 c 0
 495 953 499 912 504 849 c 1
 526 844 545 843 570 843 c 0
 643 843 737 856 737 856 c 1
 771 1063 771 1285 879 1491 c 1
 879 1491 903 1562 960 1562 c 0
 1022 1562 1052 1456 1052 1456 c 1
 1052 1456 1148 1562 1237 1562 c 0
 1353 1562 1368 1522 1369 1505 c 1
 1204 1430 1121 1297 1121 1146 c 0
 1121 733 896 798 896 747 c 0
 896 698 1121 752 1121 364 c 0
 1121 202 1204 50 1369 -35 c 1
 1367 -52 1352 -92 1237 -92 c 0
 1153 -92 1062 43 1062 43 c 1
 1062 43 1028 -92 960 -92 c 0
 893 -92 881 -26 881 -26 c 1
 851 31 738 462 738 635 c 2
 738 649 l 1
EndSplineSet
EndChar

StartChar: L
Encoding: 76 76 45
Width: 908
Flags: HW
LayerCount: 2
Fore
SplineSet
624 195 m 0
 717 195 765 217 812 264 c 1
 812 264 852 260 852 194 c 0
 852 135 800 99 795 96 c 1
 797 94 852 57 852 -3 c 0
 852 -69 812 -74 812 -74 c 1
 743 -30 686 -14 633 -14 c 0
 566 -14 514 -73 457 -73 c 0
 413 -73 367 -37 314 40 c 1
 314 40 256 -74 158 -74 c 0
 57 -74 53 -14 53 -14 c 1
 173 62 173 132 173 375 c 0
 173 726 64 722 64 756 c 0
 64 801 173 770 173 1148 c 0
 173 1332 142 1417 52 1503 c 1
 52 1503 56 1562 157 1562 c 0
 276 1562 323 1457 323 1457 c 1
 323 1457 384 1562 487 1562 c 0
 588 1562 593 1503 593 1503 c 1
 503 1417 472 1332 472 1148 c 0
 472 770 581 801 581 756 c 0
 581 722 472 726 472 375 c 0
 472 213 484 200 484 200 c 1
 484 200 484 195 624 195 c 0
EndSplineSet
EndChar

StartChar: M
Encoding: 77 77 46
Width: 1451
Flags: HW
LayerCount: 2
Fore
SplineSet
175 375 m 0
 175 726 66 722 66 756 c 0
 66 801 175 770 175 1148 c 0
 175 1338 144 1415 54 1503 c 1
 54 1503 58 1562 160 1562 c 0
 256 1562 314 1457 314 1457 c 1
 314 1457 375 1562 479 1562 c 0
 580 1562 584 1503 584 1503 c 1
 528 1445 495 1390 478 1310 c 1
 726 748 l 1
 967 1288 l 1
 952 1382 918 1440 857 1503 c 1
 857 1503 862 1562 963 1562 c 0
 1066 1562 1128 1457 1128 1457 c 1
 1128 1457 1185 1562 1282 1562 c 0
 1383 1562 1387 1503 1387 1503 c 1
 1296 1415 1266 1338 1266 1148 c 0
 1266 770 1375 801 1375 756 c 0
 1375 722 1266 726 1266 375 c 0
 1266 169 1296 80 1387 -14 c 1
 1387 -14 1383 -74 1282 -74 c 0
 1185 -74 1128 41 1128 41 c 1
 1128 41 1066 -74 963 -74 c 0
 862 -74 857 -14 857 -14 c 1
 947 80 978 169 978 375 c 0
 978 557 977 691 975 791 c 1
 775 299 l 1
 668 299 l 1
 467 820 l 1
 464 716 463 574 463 375 c 0
 463 169 494 80 584 -14 c 1
 584 -14 580 -74 479 -74 c 0
 375 -74 314 41 314 41 c 1
 314 41 256 -74 160 -74 c 0
 58 -74 54 -14 54 -14 c 1
 144 80 175 169 175 375 c 0
EndSplineSet
EndChar

StartChar: N
Encoding: 78 78 47
Width: 1316
Flags: HW
LayerCount: 2
Fore
SplineSet
175 375 m 0
 175 726 66 722 66 756 c 0
 66 801 175 770 175 1148 c 0
 175 1338 144 1415 54 1503 c 1
 54 1503 58 1562 160 1562 c 0
 263 1562 325 1457 325 1457 c 1
 325 1457 386 1562 490 1562 c 0
 591 1562 595 1503 595 1503 c 1
 515 1438 483 1375 475 1251 c 1
 790 701 l 1
 805 739 832 822 832 1148 c 0
 832 1338 801 1415 711 1503 c 1
 711 1503 715 1562 816 1562 c 0
 920 1562 981 1457 981 1457 c 1
 981 1457 1043 1562 1146 1562 c 0
 1248 1562 1252 1503 1252 1503 c 1
 1161 1415 1131 1338 1131 1148 c 0
 1131 770 1240 801 1240 756 c 0
 1240 722 1131 726 1131 375 c 0
 1131 169 1161 80 1252 -14 c 1
 1252 -14 1248 -74 1146 -74 c 0
 1043 -74 981 41 981 41 c 1
 981 41 920 -74 816 -74 c 0
 716 -74 711 -14 711 -14 c 1
 789 56 821 127 830 260 c 1
 490 831 l 1
 484 785 474 689 474 375 c 0
 474 169 505 80 595 -14 c 1
 595 -14 591 -74 490 -74 c 0
 386 -74 325 41 325 41 c 1
 325 41 263 -74 160 -74 c 0
 58 -74 54 -14 54 -14 c 1
 144 80 175 169 175 375 c 0
EndSplineSet
EndChar

StartChar: O
Encoding: 79 79 48
Width: 1213
Flags: HW
LayerCount: 2
Fore
SplineSet
480 421 m 0
 480 206 480 98 610 98 c 0
 741 98 742 218 742 432 c 0
 742 705 657 733 657 748 c 0
 657 777 742 772 742 1088 c 0
 742 1290 740 1372 610 1372 c 0
 481 1372 479 1290 479 1088 c 0
 479 772 563 777 563 748 c 0
 563 730 480 695 480 421 c 0
1075 421 m 0
 1075 37 908 -92 610 -92 c 0
 312 -92 145 37 145 421 c 0
 145 708 21 734 21 748 c 0
 21 773 145 779 145 1077 c 0
 145 1505 312 1586 611 1586 c 0
 908 1586 1075 1505 1075 1077 c 0
 1075 784 1185 772 1185 748 c 0
 1185 746 1182 744 1176 739 c 0
 1143 714 1075 659 1075 421 c 0
EndSplineSet
EndChar

StartChar: P
Encoding: 80 80 49
Width: 1096
Flags: HW
LayerCount: 2
Fore
SplineSet
485 586 m 1
 485 386 l 2
 485 175 516 82 606 -14 c 1
 606 -14 601 -74 500 -74 c 0
 390 -74 324 41 324 41 c 1
 324 41 263 -74 159 -74 c 0
 59 -74 54 -14 54 -14 c 1
 144 80 175 180 175 386 c 0
 175 727 66 723 66 756 c 0
 66 800 175 770 175 1137 c 0
 175 1327 144 1415 54 1503 c 1
 54 1503 58 1562 159 1562 c 0
 276 1562 349 1466 349 1466 c 1
 349 1466 403 1586 639 1586 c 0
 815 1586 968 1485 1011 1299 c 1
 1039 1144 1087 1151 1087 1130 c 0
 1087 1115 1043 1111 1011 928 c 1
 959 655 686 586 485 586 c 1
600 1372 m 0
 547 1372 485 1346 485 1322 c 2
 485 748 l 1
 618 757 701 805 701 871 c 2
 701 1302 l 2
 701 1334 659 1372 600 1372 c 0
EndSplineSet
EndChar

StartChar: Q
Encoding: 81 81 50
Width: 1060
Flags: HW
LayerCount: 2
Fore
SplineSet
919 386 m 0
 919 123 825 -7 657 -53 c 1
 684 -57 715 -59 750 -59 c 0
 848 -59 901 -34 950 21 c 1
 950 21 989 16 989 -50 c 0
 989 -108 937 -144 932 -147 c 1
 934 -149 989 -186 989 -246 c 0
 989 -312 950 -317 950 -317 c 1
 880 -273 823 -257 770 -257 c 0
 577 -257 445 -195 359 -52 c 1
 207 -4 124 127 124 386 c 0
 124 727 27 723 27 756 c 0
 27 799 124 770 124 1126 c 0
 124 1507 267 1586 523 1586 c 0
 776 1586 919 1507 919 1126 c 0
 919 770 1006 799 1006 756 c 0
 1006 723 919 727 919 386 c 0
412 386 m 0
 412 207 412 117 522 117 c 0
 632 117 633 218 633 395 c 0
 633 726 557 724 557 756 c 0
 557 800 633 768 633 1135 c 0
 633 1303 630 1372 522 1372 c 0
 413 1372 411 1303 411 1135 c 0
 411 768 486 800 486 756 c 0
 486 724 412 717 412 386 c 0
EndSplineSet
EndChar

StartChar: R
Encoding: 82 82 51
Width: 1247
Flags: HW
LayerCount: 2
Fore
SplineSet
324 31 m 1
 324 31 263 -74 159 -74 c 0
 58 -74 54 -14 54 -14 c 1
 144 71 175 191 175 375 c 0
 175 726 66 722 66 756 c 0
 66 802 175 773 175 1163 c 0
 175 1341 144 1419 54 1503 c 1
 54 1503 58 1562 159 1562 c 0
 283 1562 357 1462 357 1462 c 1
 357 1462 392 1586 614 1586 c 0
 839 1586 1010 1537 1038 1307 c 1
 1048 1186 1114 1167 1114 1146 c 0
 1114 1131 1053 1102 1038 953 c 0
 1032 887 976 798 882 789 c 1
 1181 690 969 172 1219 13 c 1
 1157 -50 1087 -74 994 -74 c 0
 613 -74 832 695 619 695 c 2
 485 695 l 1
 485 375 l 2
 485 169 514 80 596 -14 c 1
 596 -14 592 -74 491 -74 c 0
 387 -74 324 31 324 31 c 1
615 1372 m 0
 559 1372 485 1346 485 1322 c 2
 485 851 l 1
 640 851 715 883 715 963 c 2
 715 1302 l 2
 715 1334 674 1372 615 1372 c 0
EndSplineSet
EndChar

StartChar: S
Encoding: 83 83 52
Width: 1053
Flags: HW
LayerCount: 2
Fore
SplineSet
344 569 m 0
 318 583 327 657 244 723 c 1
 135.077148438 822 67 967 67 1155 c 0
 67 1434 253.012695312 1585 533 1585 c 0
 698.619140625 1585 948 1540 948 1251 c 6
 948 1197 l 6
 948 1126 955 1072 1032 1025 c 5
 1032 1025 1013 997 966 997 c 4
 849 997 777 1098 773 1107 c 5
 771 1102 709 1027 637 1027 c 4
 578.271484375 1027 568.629882812 1063 566 1075 c 5
 629.396484375 1110 662 1156 662 1259 c 4
 662 1324 634.541992188 1385 554 1385 c 4
 435.325195312 1385 418 1269 418 1188 c 0
 418 1044 467.39453125 976 555 932 c 1
 606.764648438 909 700.8828125 959 715 952 c 0
 734 942 739 845 806 807 c 1
 925.028320312 710.291992188 1016 561.666992188 1016 354 c 0
 1016 77.951171875 828.583007812 -92 542 -92 c 0
 368.55078125 -92 107 -43 107 248 c 0
 107 261 108 274 108 323 c 0
 108 391 93 452 23 497 c 1
 23 497 42 527 89 527 c 0
 210 527 270 410 270 406 c 1
 270 406 343.063476562 497 418 497 c 0
 480.547851562 497 491.119140625 457 492 448 c 1
 434.59765625 409 405 359 405 250 c 0
 405 185 440.157226562 118 535 118 c 0
 636.888671875 118 666 232.529296875 666 295 c 0
 666 452.779296875 604.079101562 516.098632812 529 568 c 1
 436.025390625 610 362.974609375 558 344 569 c 0
EndSplineSet
EndChar

StartChar: T
Encoding: 84 84 53
Width: 1031
Flags: HW
LayerCount: 2
Fore
SplineSet
517 1480 m 1
 556 1548 593 1562 627 1562 c 0
 681 1562 728 1514 789 1514 c 0
 835 1514 885 1526 946 1562 c 1
 946 1562 985 1558 985 1492 c 0
 985 1431 930 1394 928 1393 c 1
 934 1389 985 1353 985 1295 c 0
 985 1229 946 1224 946 1224 c 1
 904 1272 859 1294 778 1294 c 0
 675 1294 675 1290 675 1290 c 1
 675 1290 663 1278 663 1136 c 0
 663 785 772 791 772 757 c 0
 772 712 663 743 663 364 c 0
 663 169 693 76 784 -14 c 1
 784 -14 780 -74 678 -74 c 0
 575 -74 517 41 517 41 c 1
 517 41 470 -74 351 -74 c 0
 250 -74 245 -14 245 -14 c 1
 335 76 366 169 366 364 c 0
 366 743 257 712 257 757 c 0
 257 791 366 785 366 1136 c 0
 366 1278 354 1290 354 1290 c 1
 354 1290 354 1294 230 1294 c 0
 159 1294 122 1272 86 1224 c 1
 86 1224 46 1229 46 1295 c 0
 46 1354 100 1390 102 1393 c 1
 99 1395 46 1431 46 1492 c 0
 46 1558 86 1562 86 1562 c 1
 146 1525 197 1514 243 1514 c 0
 303 1514 351 1562 405 1562 c 0
 439 1562 477 1548 517 1480 c 1
EndSplineSet
EndChar

StartChar: U
Encoding: 85 85 54
Width: 1272
Flags: HW
LayerCount: 2
Fore
SplineSet
646 -92 m 0
 333 -92 150 35 150 407 c 0
 150 728 63 725 63 756 c 0
 63 801 150 770 150 1148 c 0
 150 1332 119 1417 29 1503 c 1
 29 1503 33 1562 134 1562 c 0
 251 1562 321 1457 321 1457 c 1
 321 1457 392 1562 508 1562 c 0
 610 1562 614 1503 614 1503 c 1
 523 1417 493 1332 493 1148 c 0
 493 770 569 810 569 765 c 0
 569 738 493 741 493 460 c 0
 493 243 494 117 659 117 c 0
 811 117 810 240 810 451 c 0
 810 741 734 738 734 765 c 0
 734 810 810 770 810 1148 c 0
 810 1332 782 1417 700 1503 c 1
 700 1503 704 1562 806 1562 c 0
 909 1562 971 1457 971 1457 c 1
 971 1457 1032 1562 1135 1562 c 0
 1237 1562 1241 1503 1241 1503 c 1
 1150 1417 1120 1332 1120 1148 c 0
 1120 770 1207 801 1207 756 c 0
 1207 725 1120 728 1120 407 c 0
 1120 35 946 -92 646 -92 c 0
EndSplineSet
EndChar

StartChar: V
Encoding: 86 86 55
Width: 1247
Flags: HW
LayerCount: 2
Fore
SplineSet
943.022460938 375 m 1
 910.022460938 169 927.022460938 80 1002.02246094 -14 c 1
 1002.02246094 -14 985.022460938 -74 858.022460938 -74 c 0
 713.022460938 -74 623.022460938 39 623.022460938 39 c 1
 623.022460938 39 583.022460938 -74 388.022460938 -74 c 0
 270.022460938 -74 254.022460938 -14 254.022460938 -14 c 1
 329.022460938 80 346.022460938 169 313.022460938 375 c 1
 263.022460938 726 168.022460938 722 163.022460938 756 c 1
 158.022460938 801 247.022460938 770 200.022460938 1148 c 1
 170.022460938 1338 127.022460938 1415 24.0224609375 1503 c 1
 24.0224609375 1503 20.0224609375 1562 119.022460938 1562 c 0
 222.022460938 1562 300.022460938 1457 300.022460938 1457 c 1
 300.022460938 1457 345.022460938 1562 448.022460938 1562 c 0
 550.022460938 1562 563.022460938 1503 563.022460938 1503 c 1
 487.022460938 1415 481.022460938 1339 499.022460938 1148 c 1
 541.022460938 759 574.022460938 379 623.022460938 379 c 0
 672.022460938 379 705.022460938 759 747.022460938 1148 c 1
 765.022460938 1339 759.022460938 1415 683.022460938 1503 c 1
 683.022460938 1503 696.022460938 1562 798.022460938 1562 c 0
 901.022460938 1562 946.022460938 1457 946.022460938 1457 c 1
 946.022460938 1457 1024.02246094 1562 1127.02246094 1562 c 0
 1227.02246094 1562 1222.02246094 1503 1222.02246094 1503 c 1
 1119.02246094 1415 1076.02246094 1338 1046.02246094 1148 c 0
 986.022460938 770 1099.02246094 801 1093.02246094 756 c 0
 1088.02246094 722 993.022460938 726 943.022460938 375 c 1
EndSplineSet
EndChar

StartChar: W
Encoding: 87 87 56
Width: 1570
Flags: HW
LayerCount: 2
Fore
SplineSet
793 809 m 1
 590 232 l 1
 617 121 659 55 732 -14 c 1
 732 -17 732 -74 633 -74 c 0
 531 -74 462 41 462 41 c 1
 462 41 417 -74 325 -74 c 0
 225 -74 213 -14 213 -14 c 1
 272 57 299 125 299 243 c 0
 299 280 297 324 291 375 c 0
 254 737 143 721 143 759 c 0
 143 793 194 784 194 1000 c 0
 194 1286 138 1401 24 1503 c 1
 24 1503 23 1562 123 1562 c 0
 226 1562 297 1457 297 1457 c 1
 297 1457 347 1562 453 1562 c 0
 554 1562 565 1503 565 1503 c 1
 503 1436 477 1375 477 1266 c 0
 477 1232 479 1193 485 1148 c 1
 495 876 510 754 524 698 c 1
 713 1257 l 1
 863 1257 l 1
 1053 711 l 1
 1066 770 1077 893 1085 1148 c 1
 1090 1193 1093 1232 1093 1266 c 0
 1093 1375 1066 1436 1005 1503 c 1
 1005 1503 1016 1562 1117 1562 c 0
 1223 1562 1273 1457 1273 1457 c 1
 1273 1457 1344 1562 1447 1562 c 0
 1547 1562 1546 1503 1546 1503 c 1
 1432 1401 1376 1286 1376 1000 c 0
 1376 784 1428 793 1428 759 c 0
 1428 721 1315 737 1279 375 c 1
 1275 324 1270 280 1270 243 c 0
 1270 125 1298 57 1357 -14 c 1
 1357 -14 1345 -74 1245 -74 c 0
 1153 -74 1109 41 1109 41 c 1
 1109 41 1039 -74 937 -74 c 0
 838 -74 838 -17 838 -14 c 1
 917 61 959 131 984 260 c 1
 793 809 l 1
EndSplineSet
EndChar

StartChar: X
Encoding: 88 88 57
Width: 1283
Flags: HW
LayerCount: 2
Fore
SplineSet
631 519 m 1
 561 311 l 1
 521 200 507 130 507 71 c 0
 507 41 510 13 515 -14 c 1
 515 -14 483 -74 399 -74 c 0
 318 -74 315 31 315 31 c 1
 315 31 225 -74 146 -74 c 0
 62 -74 47 -50 47 -33 c 0
 47 -22 52 -14 52 -14 c 1
 151 80 200 171 286 375 c 2
 398 641 l 1
 359 708 320 738 320 756 c 0
 320 785 353 792 398 868 c 1
 280 1148 l 1
 199 1336 149 1415 51 1503 c 1
 51 1503 46 1510 46 1520 c 0
 46 1538 61 1562 144 1562 c 0
 228 1562 323 1457 323 1457 c 1
 323 1457 327 1562 419 1562 c 0
 488 1562 513 1503 513 1503 c 1
 508 1475 503 1448 503 1417 c 0
 503 1367 516 1307 554 1212 c 1
 631 991 l 1
 719 1212 l 1
 758 1300 770 1359 770 1409 c 0
 770 1443 765 1473 759 1503 c 1
 759 1503 785 1562 854 1562 c 0
 943 1562 949 1457 949 1457 c 1
 949 1457 1044 1562 1128 1562 c 0
 1211 1562 1226 1538 1226 1520 c 0
 1226 1510 1221 1503 1221 1503 c 1
 1122 1415 1080 1332 991 1148 c 2
 852 862 l 1
 896 791 928 784 928 756 c 0
 928 738 891 711 852 648 c 1
 984 375 l 2
 1080 177 1120 80 1220 -14 c 1
 1220 -14 1226 -22 1226 -33 c 0
 1226 -50 1210 -74 1127 -74 c 0
 1048 -74 957 31 957 31 c 1
 957 31 953 -74 863 -74 c 0
 787 -74 757 -14 757 -14 c 1
 763 16 767 47 767 82 c 0
 767 140 754 209 711 311 c 1
 631 519 l 1
EndSplineSet
EndChar

StartChar: Y
Encoding: 89 89 58
Width: 1314
Flags: HW
LayerCount: 2
Fore
SplineSet
482 431 m 0
 482 610 366 683 311 723 c 0
 299 732 289 743 288 744 c 1
 290 746 l 1
 289 748 289 749 289 750 c 0
 289 770 350 798 350 911 c 0
 350 948 341 1008 310 1102 c 1
 217 1317 155 1405 28 1506 c 1
 28 1506 25 1515 25 1519 c 0
 25 1537 41 1561 138 1561 c 0
 221 1561 340 1434 340 1434 c 1
 340 1434 352 1561 450 1561 c 0
 533 1561 571 1513 580 1497 c 1
 561 1459 550 1420 550 1375 c 0
 550 1261 641 832 660 832 c 0
 688 832 775 1270 775 1375 c 0
 775 1419 766 1459 747 1497 c 1
 747 1497 796 1561 877 1561 c 0
 984 1561 998 1434 998 1434 c 1
 998 1434 1102 1561 1177 1561 c 0
 1274 1561 1288 1537 1288 1519 c 0
 1288 1514 1287 1507 1287 1504 c 1
 1159 1404 1098 1316 1005 1102 c 1
 975 1008 964 947 964 909 c 0
 964 802 1024 752 1025 752 c 1
 1025 746 1026 741 1027 739 c 1
 1004 723 l 1
 947 687 832 609 832 431 c 0
 832 194 865 101 956 -15 c 1
 956 -15 933 -75 837 -75 c 0
 731 -75 657 43 657 43 c 1
 657 43 582 -75 477 -75 c 0
 379 -75 362 -29 359 -15 c 1
 449 101 482 194 482 431 c 0
EndSplineSet
EndChar

StartChar: Z
Encoding: 90 90 59
Width: 1169
Flags: HW
LayerCount: 2
Fore
SplineSet
376 827 m 1
 380 832 l 1
 384 844 442 838 559 1039 c 1
 559 1038 l 1
 595 1108 664 1255 664 1255 c 1
 664 1255 474 1246 348 1246 c 0
 252 1246 199 1220 148 1162 c 1
 148 1162 117 1180 117 1236 c 0
 117 1305 186 1357 194 1363 c 1
 188 1366 117 1416 117 1485 c 0
 117 1542 140 1557 150 1560 c 1
 221 1506 280 1488 338 1488 c 0
 376 1488 406 1509 438 1529 c 1
 437 1529 l 1
 462 1546 488 1561 514 1561 c 0
 549 1561 594 1529 645 1461 c 1
 645 1461 708 1561 800 1561 c 0
 895 1561 902 1478 902 1438 c 1
 902 1438 996 1561 1066 1561 c 0
 1096 1561 1121 1528 1121 1472 c 0
 1121 1461 1120 1449 1115 1436 c 1
 1015 1350 972 1253 873 994 c 0
 821 860 803 795 803 750 c 0
 803 701 825 676 825 665 c 0
 825 664 822 663 815 661 c 1
 815 662 l 1
 780 648 703 618 568 246 c 1
 702 246 735 240 858 240 c 0
 960 240 1012 266 1064 327 c 1
 1064 327 1097 307 1097 251 c 0
 1097 183 1025 133 1017 129 c 1
 1034 116 1097 67 1097 2 c 0
 1097 -61 1070 -72 1063 -74 c 1
 990 -20 926 0 869 0 c 0
 785 0 724 -75 657 -75 c 0
 620 -75 580 -45 532 18 c 1
 517 18 515 15 513 11 c 0
 498 -11 459 -75 402 -75 c 0
 302 -75 294 -17 294 -1 c 2
 294 46 l 1
 294 46 186 -76 108 -76 c 0
 79 -76 39 -50 39 -1 c 0
 39 7 40 14 44 24 c 1
 164 116 216 223 336 477 c 1
 377 615 400 695 400 747 c 0
 400 794 377 818 377 828 c 1
 376 827 l 1
EndSplineSet
EndChar

StartChar: bracketleft
Encoding: 91 91 60
Width: 665
Flags: HW
LayerCount: 2
Fore
SplineSet
610 -387 m 1
 107 -387 l 1
 107 1375 l 1
 610 1375 l 1
 610 1235 l 1
 331 1235 l 1
 331 -247 l 1
 610 -247 l 1
 610 -387 l 1
EndSplineSet
EndChar

StartChar: backslash
Encoding: 92 92 61
Width: 830
Flags: HW
LayerCount: 2
Fore
SplineSet
205 1395 m 1
 794 -35 l 1
 629 -35 l 1
 40 1395 l 1
 205 1395 l 1
EndSplineSet
EndChar

StartChar: bracketright
Encoding: 93 93 62
Width: 661
Flags: HW
LayerCount: 2
Fore
SplineSet
552 -387 m 1
 49 -387 l 1
 49 -247 l 1
 328 -247 l 1
 328 1235 l 1
 49 1235 l 1
 49 1375 l 1
 552 1375 l 1
 552 -387 l 1
EndSplineSet
EndChar

StartChar: asciicircum
Encoding: 94 94 63
Width: 1041
Flags: HW
LayerCount: 2
Fore
SplineSet
229 583 m 1
 50 583 l 1
 448 1315 l 1
 595 1315 l 1
 991 583 l 1
 812 583 l 1
 521 1126 l 1
 229 583 l 1
EndSplineSet
EndChar

StartChar: underscore
Encoding: 95 95 64
Width: 1268
Flags: HW
LayerCount: 2
Fore
SplineSet
115 -154 m 1
 1151 -154 l 1
 1151 -256 l 1
 115 -256 l 1
 115 -154 l 1
EndSplineSet
EndChar

StartChar: quoteleft
Encoding: 8216 8216 65
Width: 448
Flags: HW
LayerCount: 2
Fore
SplineSet
362 1395 m 1
 362 1300 l 1
 258 1273 199 1219 199 1098 c 1
 201 1098 l 1
 228 1111 271 1115 310 1115 c 1
 341 1074 371 1008 371 928 c 1
 351 885 298 853 234 853 c 0
 183 853 139 867 100 888 c 1
 83 951 72 1018 72 1089 c 0
 72 1272 186 1379 362 1395 c 1
EndSplineSet
EndChar

StartChar: a
Encoding: 97 97 66
Width: 1090
Flags: HW
LayerCount: 2
Fore
SplineSet
615 417 m 0
 615 599 530 619 502 619 c 0
 410 619 376 535 376 336 c 0
 376 266 371 89 491 89 c 0
 614 89 615 209 615 417 c 0
520 1442 m 0
 778 1442 919 1293 919 966 c 0
 919 737 1017 701 1043 682 c 1
 1043 661 929 637 929 365 c 0
 929 157 973 73 1031 5 c 1
 1016 -47 964 -67 904 -67 c 0
 787 -67 708 61 704 68 c 1
 628 -55 551 -84 454 -84 c 0
 312 -84 137 -48 93 199 c 1
 80 278 19 336 19 350 c 0
 19 365 80 416 89 478 c 1
 122 678 252 757 459 757 c 0
 576 757 615 834 615 955 c 0
 615 1142 611 1246 494 1246 c 0
 370 1246 366 1139 366 1085 c 0
 366 991 395 949 470 907 c 1
 470 907 448 873 393 873 c 0
 310 873 249 956 249 956 c 1
 249 956 188 873 106 873 c 0
 47 873 32 897 29 907 c 1
 106 949 121 986 121 1073 c 0
 121 1397 344 1442 520 1442 c 0
EndSplineSet
EndChar

StartChar: b
Encoding: 98 98 67
Width: 1020
Flags: HW
LayerCount: 2
Fore
SplineSet
781 692 m 1
 877 682 923 556 923 517 c 0
 923 453 1002 382 1002 371 c 0
 1002 349 923 296 923 175 c 0
 923 13 771 -66 596 -66 c 0
 504 -66 390 -57 329 20 c 1
 329 20 261 -66 159 -66 c 0
 92 -66 64 -20 64 -20 c 1
 143 54 173 168 173 351 c 0
 173 661 74 657 74 687 c 0
 74 728 173 702 173 1046 c 0
 173 1213 145 1288 63 1366 c 1
 63 1366 67 1420 159 1420 c 0
 265 1420 329 1354 329 1354 c 1
 390 1430 504 1442 596 1442 c 0
 771 1442 923 1375 923 1203 c 0
 923 1099 1002 1047 1002 1027 c 0
 1002 1015 923 989 923 871 c 0
 923 813 877 702 781 692 c 1
464 775 m 1
 535 775 l 2
 587 775 663 783 663 899 c 0
 663 1018 664 1016 664 1025 c 0
 664 1043 663 1031 663 1152 c 0
 663 1180 663 1262 572 1262 c 0
 447 1262 445 1183 445 1124 c 0
 445 797 464 775 464 775 c 1
464 620 m 1
 464 620 445 599 445 281 c 0
 445 218 447 133 572 133 c 0
 663 133 663 215 663 243 c 0
 663 373 664 361 664 380 c 0
 664 388 663 385 663 496 c 0
 663 604 567 621 480 621 c 0
 470 621 464 620 464 620 c 1
EndSplineSet
EndChar

StartChar: c
Encoding: 99 99 68
Width: 1004
Flags: HW
LayerCount: 2
Fore
SplineSet
408 359 m 0
 408 198 409 106 530 106 c 0
 630 106 634 235 634 300 c 0
 634 419 617 466 551 521 c 1
 551 521 554 561 623 561 c 0
 706 561 756 503 756 503 c 1
 756 503 817 561 906 561 c 0
 975 561 978 521 978 521 c 1
 916 469 904 422 904 314 c 2
 904 193 l 2
 904 -51 673 -85 508 -85 c 0
 281 -85 128 43 128 257 c 2
 128 351 l 2
 128 661 29 657 29 687 c 0
 29 726 128 700 128 1024 c 2
 128 1118 l 2
 128 1355 310 1442 515 1442 c 0
 680 1442 904 1408 904 1182 c 2
 904 1061 l 2
 904 948 924 898 987 844 c 1
 987 844 984 804 915 804 c 0
 826 804 765 862 765 862 c 1
 765 862 711 804 622 804 c 0
 553 804 550 844 550 844 c 1
 623 907 634 959 634 1110 c 0
 634 1175 622 1262 519 1262 c 0
 418 1262 407 1176 407 1100 c 0
 407 1077 408 1056 408 1037 c 0
 408 708 507 734 507 695 c 0
 507 665 408 669 408 359 c 0
EndSplineSet
EndChar

StartChar: d
Encoding: 100 100 69
Width: 1103
Flags: HW
LayerCount: 2
Fore
SplineSet
447 311 m 0
 447 191 447 106 583 106 c 0
 684 106 685 182 685 319 c 0
 685 656 616 654 616 687 c 0
 616 736 685 698 685 1122 c 0
 685 1159 685 1262 594 1262 c 0
 449 1262 447 1183 447 1124 c 0
 447 699 516 735 516 687 c 0
 516 653 447 657 447 311 c 0
175 351 m 0
 175 661 76 657 76 687 c 0
 76 729 175 703 175 1057 c 0
 175 1219 147 1291 65 1367 c 1
 65 1367 69 1420 161 1420 c 0
 267 1420 331 1365 331 1365 c 1
 396 1432 520 1442 618 1442 c 0
 813 1442 985 1355 985 1118 c 2
 985 1024 l 2
 985 700 1064 726 1064 687 c 0
 1064 657 985 661 985 351 c 2
 985 257 l 2
 985 55 840 -67 625 -67 c 0
 520 -67 397 -52 331 10 c 1
 331 10 267 -67 161 -67 c 0
 69 -67 65 -13 65 -13 c 1
 147 67 175 179 175 351 c 0
EndSplineSet
EndChar

StartChar: e
Encoding: 101 101 70
Width: 1048
Flags: HW
LayerCount: 2
Fore
SplineSet
942 936 m 0
 942 743 971 681 990 656 c 1
 614 656 l 2
 568 656 508 654 456 649 c 1
 453 597 451 513 451 405 c 0
 451 219 452 113 579 113 c 0
 693 113 697 219 697 273 c 0
 697 367 668 409 593 451 c 1
 593 451 615 485 670 485 c 0
 753 485 814 402 814 402 c 1
 814 402 875 485 957 485 c 0
 1016 485 1031 461 1034 451 c 1
 957 409 942 372 942 285 c 0
 942 -39 731 -84 563 -84 c 0
 295 -84 146 66 146 395 c 0
 146 596 68 647 32 671 c 0
 26 675 22 677 22 679 c 0
 22 696 146 722 146 966 c 0
 146 1293 295 1442 563 1442 c 0
 731 1442 942 1385 942 936 c 0
451 955 m 0
 451 898 449 856 445 823 c 1
 491 813 534 813 581 813 c 0
 631 813 664 820 687 831 c 1
 697 861 697 894 697 936 c 0
 697 1025 703 1246 579 1246 c 0
 452 1246 451 1142 451 955 c 0
EndSplineSet
EndChar

StartChar: f
Encoding: 102 102 71
Width: 933
Flags: HW
LayerCount: 2
Fore
SplineSet
454 341 m 1
 454 114 455 50 564 -21 c 1
 564 -21 536 -67 469 -67 c 0
 379 -67 319 9 319 9 c 1
 319 9 254 -67 158 -67 c 0
 91 -67 63 -21 63 -21 c 1
 172 50 172 114 172 341 c 0
 172 660 73 656 73 687 c 0
 73 728 172 700 172 1044 c 0
 172 1211 144 1288 62 1366 c 1
 62 1366 66 1420 158 1420 c 0
 270 1420 339 1343 339 1343 c 1
 339 1341 397 1420 501 1420 c 0
 561 1420 642 1402 687 1360 c 1
 687 1360 742 1420 831 1420 c 0
 900 1420 903 1380 903 1380 c 1
 840 1333 820 1275 820 1193 c 0
 820 1125 838 1067 894 1025 c 1
 894 1025 890 989 830 989 c 0
 762 989 720 1041 720 1041 c 1
 720 1041 679 989 611 989 c 0
 551 989 547 1025 547 1025 c 1
 585 1059 611 1092 611 1151 c 0
 611 1193 594 1246 533 1246 c 0
 505 1246 454 1238 454 1170 c 1
 484 757 l 1
 611 757 676 773 733 813 c 1
 733 813 758 810 758 767 c 0
 758 709 721 674 721 674 c 1
 721 674 758 639 758 581 c 0
 758 537 733 535 733 535 c 1
 676 574 611 592 484 592 c 1
 454 341 l 1
EndSplineSet
EndChar

StartChar: g
Encoding: 103 103 72
Width: 1168
Flags: HW
LayerCount: 2
Fore
SplineSet
635 680 m 0
 635 706 722 703 722 989 c 0
 722 1144 709 1247 557 1247 c 0
 397 1247 396 1166 396 989 c 0
 396 703 484 707 484 680 c 0
 484 660 396 656 396 433 c 0
 396 284 397 219 567 219 c 0
 710 219 722 304 722 433 c 0
 722 656 635 660 635 680 c 0
721 75 m 1
 644 54 579 39 514 39 c 0
 308 39 115 136 115 419 c 0
 115 653 28 659 28 680 c 0
 28 709 115 707 115 1004 c 0
 115 1322 318 1441 534 1441 c 0
 642 1441 766 1383 844 1306 c 1
 844 1306 909 1419 1005 1419 c 0
 1116 1419 1135 1380 1138 1367 c 1
 1036 1272 1001 1182 1001 979 c 0
 1001 713 1100 702 1100 680 c 0
 1100 660 1001 635 1001 381 c 2
 1001 9 l 2
 1001 -294 847 -358 779 -358 c 0
 709 -358 647 -354 568 -354 c 0
 487 -354 402 -372 298 -423 c 1
 298 -423 267 -406 267 -351 c 0
 267 -286 339 -238 339 -238 c 1
 339 -238 267 -193 267 -126 c 0
 267 -69 290 -58 297 -56 c 1
 370 -109 441 -135 578 -135 c 0
 722 -135 721 -57 721 75 c 1
EndSplineSet
EndChar

StartChar: h
Encoding: 104 104 73
Width: 1197
Flags: HW
LayerCount: 2
Fore
SplineSet
174 331 m 0
 174 650 75 656 75 687 c 0
 75 728 174 700 174 1044 c 0
 174 1211 146 1288 64 1366 c 1
 64 1366 68 1420 160 1420 c 0
 254 1420 310 1343 310 1343 c 1
 310 1343 366 1420 460 1420 c 0
 552 1420 556 1366 556 1366 c 1
 474 1288 446 1211 446 1044 c 0
 446 913 462 838 480 793 c 1
 509 778 550 770 592 770 c 0
 634 770 677 778 709 793 c 1
 728 838 744 913 744 1044 c 0
 744 1211 716 1288 634 1366 c 1
 634 1366 639 1420 730 1420 c 0
 824 1420 880 1343 880 1343 c 1
 880 1343 936 1420 1030 1420 c 0
 1122 1420 1126 1366 1126 1366 c 1
 1043 1288 1016 1211 1016 1044 c 0
 1016 700 1115 728 1115 687 c 0
 1115 656 1016 650 1016 331 c 0
 1016 154 1044 69 1126 -13 c 1
 1126 -13 1122 -67 1030 -67 c 0
 936 -67 880 10 880 10 c 1
 880 10 824 -67 730 -67 c 0
 639 -67 634 -13 634 -13 c 1
 716 69 744 154 744 331 c 0
 744 467 724 551 702 595 c 1
 675 609 634 617 593 617 c 0
 554 617 515 610 488 595 c 1
 466 551 446 467 446 331 c 0
 446 154 473 69 556 -13 c 1
 556 -13 551 -67 460 -67 c 0
 366 -67 310 10 310 10 c 1
 310 10 254 -67 160 -67 c 0
 69 -67 64 -13 64 -13 c 1
 146 69 174 154 174 331 c 0
EndSplineSet
EndChar

StartChar: i
Encoding: 105 105 74
Width: 627
Flags: HW
LayerCount: 2
Fore
SplineSet
174 341 m 0
 174 660 75 656 75 687 c 0
 75 728 174 700 174 1044 c 0
 174 1216 146 1286 64 1366 c 1
 64 1366 68 1420 160 1420 c 0
 254 1420 310 1343 310 1343 c 1
 310 1343 366 1420 460 1420 c 0
 552 1420 556 1366 556 1366 c 1
 474 1286 446 1216 446 1044 c 0
 446 700 545 728 545 687 c 0
 545 656 446 660 446 341 c 0
 446 154 474 73 556 -13 c 1
 556 -13 552 -67 460 -67 c 0
 366 -67 310 10 310 10 c 1
 310 10 254 -67 160 -67 c 0
 69 -67 64 -13 64 -13 c 1
 146 73 174 154 174 341 c 0
EndSplineSet
EndChar

StartChar: j
Encoding: 106 106 75
Width: 801
Flags: HW
LayerCount: 2
Fore
SplineSet
265 -289 m 0
 210 -289 151 -305 79 -349 c 1
 79 -349 39 -344 39 -278 c 0
 39 -211 96 -169 96 -169 c 1
 96 -169 39 -125 39 -51 c 0
 39 15 79 20 79 20 c 1
 117 -27 158 -49 234 -49 c 0
 344 -49 345 58 345 245 c 0
 345 594 237 584 237 617 c 0
 237 662 345 628 345 1006 c 0
 345 1179 314 1279 224 1361 c 1
 224 1361 230 1420 329 1420 c 0
 431 1420 492 1335 492 1335 c 1
 492 1335 551 1420 659 1420 c 0
 760 1420 765 1361 765 1361 c 1
 673 1279 644 1179 644 1006 c 0
 644 628 751 659 751 614 c 0
 751 581 644 585 644 244 c 0
 644 -135 535 -289 265 -289 c 0
EndSplineSet
EndChar

StartChar: k
Encoding: 107 107 76
Width: 1316
Flags: HW
LayerCount: 2
Fore
SplineSet
688 590 m 1
 676 600 l 1
 654 601 624 601 595 601 c 2
 534 601 l 2
 517 601 501 601 477 605 c 1
 467 369 l 1
 467 161 502 70 604 -30 c 1
 604 -30 583 -84 496 -84 c 0
 399 -84 332 23 332 23 c 1
 332 23 264 -84 167 -84 c 0
 80 -84 63 -42 60 -30 c 1
 152 69 185 160 185 369 c 0
 185 677 73 688 73 716 c 0
 73 757 185 738 185 1002 c 0
 185 1194 154 1274 59 1363 c 1
 59 1363 80 1419 167 1419 c 0
 264 1419 332 1311 332 1311 c 1
 332 1311 399 1419 496 1419 c 0
 586 1419 601 1376 604 1364 c 1
 502 1276 467 1196 467 1012 c 0
 467 866 471 829 475 772 c 1
 495 767 513 766 535 766 c 0
 602 766 687 778 687 778 c 1
 718 966 718 1168 816 1355 c 1
 816 1355 838 1420 890 1420 c 0
 958 1420 992 1324 992 1324 c 1
 992 1324 1070 1420 1142 1420 c 0
 1247 1420 1261 1384 1262 1368 c 1
 1112 1300 1036 1179 1036 1042 c 0
 1036 666 832 725 832 679 c 0
 832 635 1036 684 1036 331 c 0
 1036 184 1112 45 1262 -32 c 1
 1260 -47 1246 -84 1142 -84 c 0
 1070 -84 992 12 992 12 c 1
 992 12 958 -84 890 -84 c 0
 829 -84 818 -24 818 -24 c 1
 791 28 688 420 688 577 c 2
 688 590 l 1
EndSplineSet
EndChar

StartChar: l
Encoding: 108 108 77
Width: 893
Flags: HW
LayerCount: 2
Fore
SplineSet
628 177 m 0
 712 177 756 197 799 240 c 1
 799 240 835 236 835 176 c 0
 835 123 788 90 783 87 c 1
 785 85 835 52 835 -3 c 0
 835 -63 799 -67 799 -67 c 1
 736 -27 684 -13 636 -13 c 0
 565 -13 510 -66 449 -66 c 0
 409 -66 367 -45 319 0 c 1
 319 0 259 -67 159 -67 c 0
 67 -67 63 -13 63 -13 c 1
 172 56 172 120 172 341 c 0
 172 660 73 656 73 687 c 0
 73 728 172 700 172 1044 c 0
 172 1211 144 1288 62 1366 c 1
 62 1366 66 1420 158 1420 c 0
 266 1420 309 1343 309 1343 c 1
 309 1343 364 1420 458 1420 c 0
 550 1420 554 1366 554 1366 c 1
 472 1288 444 1211 444 1044 c 0
 444 700 543 728 543 687 c 0
 543 656 444 660 444 341 c 0
 444 194 455 182 455 182 c 1
 455 182 455 177 628 177 c 0
EndSplineSet
EndChar

StartChar: m
Encoding: 109 109 78
Width: 1837
Flags: HW
LayerCount: 2
Fore
SplineSet
351 1317 m 1
 437 1393 567 1442 690 1442 c 0
 791 1442 893 1401 968 1298 c 1
 1061 1387 1189 1442 1307 1442 c 0
 1492 1442 1666 1329 1666 1004 c 0
 1666 706 1752 709 1752 680 c 0
 1752 665 1666 644 1666 383 c 0
 1666 178 1698 84 1791 -13 c 1
 1791 -13 1770 -67 1683 -67 c 0
 1586 -67 1519 40 1519 40 c 1
 1519 40 1443 -67 1334 -67 c 0
 1272 -67 1263 -25 1260 -13 c 1
 1336 85 1365 187 1365 393 c 0
 1365 641 1297 667 1297 680 c 0
 1297 705 1365 702 1365 970 c 0
 1365 1161 1363 1246 1224 1246 c 0
 1098 1246 1072 1150 1068 1004 c 1
 1068 703 1156 706 1156 680 c 0
 1156 665 1070 644 1070 383 c 0
 1070 178 1100 84 1195 -13 c 1
 1195 -13 1174 -67 1087 -67 c 0
 991 -67 922 40 922 40 c 1
 922 40 851 -67 749 -67 c 0
 670 -67 657 -25 654 -13 c 1
 745 85 779 187 779 393 c 0
 779 638 692 665 692 680 c 0
 692 705 779 705 779 970 c 0
 779 1161 777 1246 638 1246 c 0
 495 1246 482 1137 482 970 c 0
 482 702 550 705 550 680 c 0
 550 663 484 630 484 383 c 0
 484 178 511 84 589 -13 c 1
 589 -13 574 -67 514 -67 c 0
 405 -67 330 40 330 40 c 1
 330 40 262 -67 166 -67 c 0
 78 -67 61 -25 58 -13 c 1
 151 85 184 179 184 383 c 0
 184 599 122 649 93 672 c 0
 89 676 85 678 85 680 c 0
 85 698 184 726 184 979 c 0
 184 1181 149 1271 46 1367 c 1
 46 1367 71 1419 179 1419 c 0
 276 1419 351 1317 351 1317 c 1
EndSplineSet
EndChar

StartChar: n
Encoding: 110 110 79
Width: 1261
Flags: HW
LayerCount: 2
Fore
SplineSet
334 1319 m 1
 352 1317 l 1
 436 1393 568 1441 691 1441 c 0
 896 1441 1090 1329 1090 1004 c 0
 1090 706 1176 709 1176 680 c 0
 1176 665 1090 644 1090 383 c 0
 1090 178 1121 84 1215 -13 c 1
 1215 -13 1193 -67 1107 -67 c 0
 1010 -67 943 40 943 40 c 1
 943 40 875 -67 778 -67 c 0
 700 -67 687 -25 684 -13 c 1
 774 85 809 187 809 393 c 0
 809 638 721 665 721 680 c 0
 721 705 809 706 809 971 c 0
 809 1162 807 1246 648 1246 c 0
 478 1246 462 1138 462 971 c 0
 462 706 549 705 549 680 c 0
 549 663 464 630 464 383 c 0
 464 178 496 84 589 -13 c 1
 589 -13 570 -67 493 -67 c 0
 397 -67 330 40 330 40 c 1
 330 40 261 -67 166 -67 c 0
 77 -67 61 -25 58 -13 c 1
 150 85 184 179 184 383 c 0
 184 599 122 649 92 672 c 0
 87 676 84 678 84 680 c 0
 84 697 184 723 184 979 c 0
 184 1181 148 1271 46 1367 c 1
 46 1367 71 1419 179 1419 c 0
 276 1419 334 1319 334 1319 c 1
EndSplineSet
EndChar

StartChar: o
Encoding: 111 111 80
Width: 1133
Flags: HW
LayerCount: 2
Fore
SplineSet
442 383 m 0
 442 187 442 89 570 89 c 0
 699 89 700 198 700 393 c 0
 700 601 645 649 620 672 c 0
 615 676 613 678 613 680 c 0
 613 706 700 705 700 979 c 0
 700 1170 698 1247 570 1247 c 0
 443 1247 441 1170 441 979 c 0
 441 705 527 706 527 680 c 0
 527 663 442 630 442 383 c 0
1003 383 m 0
 1003 34 847 -84 570 -84 c 0
 293 -84 137 34 137 383 c 0
 137 644 25 667 25 680 c 0
 25 703 137 708 137 979 c 0
 137 1368 293 1442 571 1442 c 0
 847 1442 1003 1368 1003 979 c 0
 1003 713 1103 702 1103 680 c 0
 1103 678 1100 676 1095 672 c 0
 1065 649 1003 599 1003 383 c 0
EndSplineSet
EndChar

StartChar: p
Encoding: 112 112 81
Width: 1194
Flags: HW
LayerCount: 2
Fore
SplineSet
67 680 m 0
 67 697 167 723 167 979 c 0
 167 1181 132 1271 30 1367 c 1
 30 1367 55 1419 163 1419 c 0
 260 1419 324 1306 324 1306 c 1
 416 1389 551 1441 674 1441 c 0
 879 1441 1073 1329 1073 1004 c 0
 1073 707 1160 709 1160 680 c 0
 1160 651 1073 653 1073 356 c 0
 1073 87 879 -2 674 -2 c 0
 604 -2 524 15 447 50 c 1
 447 -173 480 -281 572 -380 c 1
 572 -380 553 -435 478 -435 c 0
 381 -435 313 -326 313 -326 c 1
 313 -326 246 -435 149 -435 c 0
 60 -435 44 -392 41 -380 c 1
 130 -285 165 -186 167 9 c 1
 167 381 l 2
 167 650 67 657 67 680 c 0
533 680 m 0
 533 659 446 660 446 430 c 0
 446 277 461 178 623 178 c 0
 791 178 792 253 792 430 c 0
 792 663 705 660 705 680 c 0
 705 705 792 695 792 972 c 0
 792 1163 791 1247 623 1247 c 0
 461 1247 446 1139 446 972 c 0
 446 698 533 706 533 680 c 0
EndSplineSet
EndChar

StartChar: q
Encoding: 113 113 82
Width: 1190
Flags: HW
LayerCount: 2
Fore
SplineSet
656 680 m 0
 656 707 744 696 744 982 c 0
 744 1157 730 1247 579 1247 c 0
 399 1247 397 1166 397 982 c 0
 397 699 484 707 484 680 c 0
 484 653 397 654 397 370 c 0
 397 179 399 96 579 96 c 0
 730 96 744 205 744 370 c 0
 744 657 656 653 656 680 c 0
1121 680 m 0
 1121 660 1022 635 1022 381 c 2
 1022 -71 l 1
 1025 -265 1059 -364 1148 -460 c 1
 1148 -460 1125 -515 1040 -515 c 0
 944 -515 876 -406 876 -406 c 1
 876 -406 809 -515 712 -515 c 0
 633 -515 620 -472 617 -460 c 1
 709 -361 742 -253 742 -31 c 1
 665 -64 585 -84 516 -84 c 0
 309 -84 116 31 116 356 c 0
 116 650 30 650 30 680 c 0
 30 709 116 706 116 1004 c 0
 116 1329 309 1441 516 1441 c 0
 639 1441 773 1389 866 1306 c 1
 866 1306 930 1419 1027 1419 c 0
 1138 1419 1157 1380 1160 1367 c 1
 1057 1271 1022 1181 1022 979 c 0
 1022 713 1121 702 1121 680 c 0
EndSplineSet
EndChar

StartChar: r
Encoding: 114 114 83
Width: 1164
Flags: HW
LayerCount: 2
Fore
SplineSet
311 10 m 1
 311 10 255 -67 161 -67 c 0
 69 -67 65 -13 65 -13 c 1
 147 65 175 174 175 341 c 0
 175 660 76 656 76 687 c 0
 76 729 175 703 175 1057 c 0
 175 1219 147 1290 65 1366 c 1
 65 1366 69 1420 161 1420 c 0
 273 1420 341 1365 341 1365 c 1
 341 1365 374 1442 594 1442 c 0
 794 1442 946 1397 971 1188 c 1
 980 1078 1040 1061 1040 1042 c 0
 1040 1028 984 1002 971 866 c 0
 965 806 914 725 829 717 c 1
 1101 627 908 156 1135 12 c 1
 1079 -45 1015 -67 931 -67 c 0
 612 -67 794 632 617 632 c 2
 457 632 l 1
 457 341 l 2
 457 154 483 73 558 -13 c 1
 558 -13 554 -67 462 -67 c 0
 368 -67 311 10 311 10 c 1
595 1247 m 0
 536 1247 457 1224 457 1202 c 2
 457 774 l 1
 606 774 677 803 677 875 c 2
 677 1184 l 2
 677 1213 643 1247 595 1247 c 0
EndSplineSet
EndChar

StartChar: s
Encoding: 115 115 84
Width: 984
Flags: HW
LayerCount: 2
Fore
SplineSet
337 517 m 0
 313 530 321 597 246 657 c 1
 144 747 80 879 80 1050 c 0
 80 1304 247.008789062 1441 498 1441 c 0
 648.020507812 1441 874 1400 874 1137 c 6
 874 1088 l 6
 874 1024 880 975 950 932 c 5
 950 932 933 906 890 906 c 4
 784 906 718 998 715 1006 c 5
 713 1002 657 934 591 934 c 4
 538.356445312 934 529.725585938 966 528 977 c 5
 584.4375 1009 614 1051 614 1145 c 4
 614 1204 592.046875 1259 527 1259 c 0
 419.482421875 1259 404 1154 404 1080 c 0
 404 949 444.8359375 887 518 847 c 1
 561.506835938 826 639.818359375 872 652 865 c 4
 669 856 674 768 735 734 c 5
 862 647 959 515 959 329 c 4
 959 74 779.907226562 -84 506 -84 c 0
 341.981445312 -84 95 -39 95 225 c 0
 95 237 96 249 96 294 c 0
 96 355 82 411 18 452 c 1
 18 452 36 479 78 479 c 0
 188 479 243 373 243 369 c 1
 243 369 314 452 387 452 c 0
 451 452 462 415 463 407 c 1
 405 372 375 326 375 227 c 0
 375 168 408.583007812 107 499 107 c 0
 604.487304688 107 635 217 635 277 c 4
 635 415 571.068359375 471 494 516 c 1
 415.056640625 555 352.965820312 507 337 517 c 0
EndSplineSet
EndChar

StartChar: t
Encoding: 116 116 85
Width: 930
Flags: HW
LayerCount: 2
Fore
SplineSet
470 1373 m 1
 506 1412 539 1420 570 1420 c 0
 619 1420 662 1376 717 1376 c 0
 759 1376 805 1387 860 1420 c 1
 860 1420 896 1416 896 1356 c 0
 896 1301 846 1267 844 1266 c 1
 849 1263 896 1230 896 1177 c 0
 896 1117 860 1113 860 1113 c 1
 822 1156 781 1176 707 1176 c 0
 614 1176 614 1173 614 1173 c 1
 614 1173 603 1162 603 1033 c 0
 603 714 702 719 702 688 c 0
 702 647 603 675 603 331 c 0
 603 154 630 69 713 -13 c 1
 713 -13 709 -67 617 -67 c 0
 523 -67 470 10 470 10 c 1
 470 10 427 -67 319 -67 c 0
 227 -67 223 -13 223 -13 c 1
 305 69 333 154 333 331 c 0
 333 675 234 647 234 688 c 0
 234 719 333 714 333 1033 c 0
 333 1162 322 1173 322 1173 c 1
 322 1173 322 1176 209 1176 c 0
 145 1176 111 1156 78 1113 c 1
 78 1113 42 1117 42 1177 c 0
 42 1231 91 1264 93 1266 c 1
 90 1268 42 1301 42 1356 c 0
 42 1416 78 1420 78 1420 c 1
 133 1386 179 1376 221 1376 c 0
 276 1376 319 1420 368 1420 c 0
 399 1420 434 1412 470 1373 c 1
EndSplineSet
EndChar

StartChar: u
Encoding: 117 117 86
Width: 1230
Flags: HW
LayerCount: 2
Fore
SplineSet
898 36 m 1
 798 -35 671 -84 551 -84 c 0
 344 -84 152 31 152 356 c 0
 152 653 64 651 64 680 c 0
 64 693 152 714 152 978 c 0
 152 1176 124 1271 36 1365 c 1
 36 1365 53 1420 144 1420 c 0
 240 1420 308 1313 308 1313 c 1
 308 1313 375 1420 472 1420 c 0
 549 1420 558 1374 559 1365 c 1
 473 1272 443 1164 443 968 c 0
 443 714 519 693 519 680 c 0
 519 653 443 654 443 370 c 0
 443 179 480 96 604 96 c 0
 744 96 769 205 769 370 c 0
 769 654 691 653 691 680 c 0
 691 695 767 726 767 978 c 0
 767 1176 739 1271 651 1365 c 1
 651 1365 665 1420 737 1420 c 0
 834 1420 901 1313 901 1313 c 1
 901 1313 969 1420 1066 1420 c 0
 1160 1420 1173 1374 1174 1365 c 1
 1079 1271 1046 1176 1046 978 c 0
 1046 760 1108 710 1138 688 c 0
 1142 684 1146 682 1146 680 c 0
 1146 660 1046 634 1046 381 c 0
 1046 173 1075 85 1166 -14 c 1
 1166 -14 1145 -65 1031 -65 c 0
 947 -65 898 36 898 36 c 1
EndSplineSet
EndChar

StartChar: v
Encoding: 118 118 87
Width: 1254
Flags: HW
LayerCount: 2
Fore
SplineSet
627 171 m 1
 647 348 764 560 689 697 c 1
 736 780 768 909 768 1060 c 0
 768 1201 757 1280 736 1366 c 1
 736 1366 746 1420 838 1420 c 0
 927 1420 969 1343 969 1343 c 1
 969 1343 1030 1420 1118 1420 c 0
 1227 1420 1226 1366 1226 1366 c 1
 1083 1245 1051 1063 1051 889 c 0
 1051 694 1089 692 1089 666 c 1
 1086 625 975 653 932 309 c 1
 927 193 927 85 964 -13 c 1
 964 -13 953 -67 862 -67 c 0
 780 -67 741 10 741 10 c 1
 712 -41 671 -67 627 -67 c 0
 584 -67 538 -44 514 10 c 1
 514 10 475 -67 393 -67 c 0
 302 -67 291 -13 291 -13 c 1
 325 76 329 180 323 309 c 1
 279 658 166 624 166 668 c 0
 166 693 203 698 203 889 c 0
 203 1060 178 1234 29 1366 c 1
 29 1366 28 1420 137 1420 c 0
 225 1420 286 1343 286 1343 c 1
 286 1343 328 1420 417 1420 c 0
 509 1420 519 1366 519 1366 c 1
 498 1280 487 1201 487 1059 c 0
 487 908 519 779 566 696 c 1
 491 559 607 348 627 171 c 1
EndSplineSet
EndChar

StartChar: w
Encoding: 119 119 88
Width: 1441
Flags: HW
LayerCount: 2
Fore
SplineSet
728 735 m 1
 544 211 l 1
 568 110 606 50 673 -13 c 1
 673 -15 673 -67 583 -67 c 0
 501 -67 445 10 445 10 c 1
 445 10 399 -67 303 -67 c 0
 212 -67 201 -13 201 -13 c 1
 255 52 279 114 279 221 c 0
 279 255 277 295 272 341 c 0
 238 670 137 655 137 690 c 0
 137 721 184 713 184 909 c 0
 184 1169 133 1274 29 1366 c 1
 29 1366 28 1420 119 1420 c 0
 213 1420 277 1343 277 1343 c 1
 277 1343 323 1420 419 1420 c 0
 511 1420 521 1366 521 1366 c 1
 465 1305 441 1250 441 1151 c 0
 441 1120 443 1085 448 1044 c 1
 457 796 471 685 484 635 c 1
 655 1143 l 1
 792 1143 l 1
 965 646 l 1
 976 700 986 812 994 1044 c 1
 998 1085 1001 1120 1001 1151 c 0
 1001 1250 976 1305 921 1366 c 1
 921 1366 931 1420 1023 1420 c 0
 1119 1420 1165 1343 1165 1343 c 1
 1165 1343 1229 1420 1323 1420 c 0
 1414 1420 1413 1366 1413 1366 c 1
 1309 1274 1258 1169 1258 909 c 0
 1258 713 1305 721 1305 690 c 0
 1305 655 1203 670 1170 341 c 0
 1166 295 1162 255 1162 221 c 0
 1162 114 1187 52 1241 -13 c 1
 1241 -13 1230 -67 1139 -67 c 0
 1043 -67 997 10 997 10 c 1
 997 10 941 -67 859 -67 c 0
 769 -67 769 -15 769 -13 c 1
 841 55 879 119 902 236 c 1
 728 735 l 1
EndSplineSet
EndChar

StartChar: x
Encoding: 120 120 89
Width: 1265
Flags: HW
LayerCount: 2
Fore
SplineSet
622 449 m 1
 558 271 l 2
 527 182 498 120 498 71 c 0
 498 41 501 13 506 -14 c 1
 506 -14 477 -74 400 -74 c 0
 319 -74 316 11 316 11 c 1
 316 11 226 -74 147 -74 c 0
 63 -74 48 -50 48 -33 c 0
 48 -22 53 -14 53 -14 c 1
 152 63 204 137 287 305 c 1
 399 571 l 1
 360 638 321 668 321 686 c 0
 321 715 354 722 399 798 c 1
 291 1078 l 1
 210 1228 160 1291 62 1361 c 1
 62 1361 57 1368 57 1378 c 0
 57 1396 72 1420 155 1420 c 0
 235 1420 325 1335 325 1335 c 1
 325 1335 329 1420 420 1420 c 0
 489 1420 514 1361 514 1361 c 1
 509 1333 504 1306 504 1275 c 0
 504 1233 524 1195 555 1102 c 1
 622 921 l 1
 700 1102 l 1
 728 1182 751 1225 751 1267 c 0
 751 1301 746 1331 740 1361 c 1
 740 1361 766 1420 835 1420 c 0
 924 1420 930 1335 930 1335 c 1
 930 1335 1020 1420 1099 1420 c 0
 1182 1420 1197 1396 1197 1378 c 0
 1197 1368 1192 1361 1192 1361 c 1
 1093 1291 1051 1225 962 1078 c 1
 833 792 l 1
 877 721 909 714 909 686 c 0
 909 668 872 641 833 578 c 1
 965 305 l 1
 1056 141 1101 63 1201 -14 c 1
 1201 -14 1207 -22 1207 -33 c 0
 1207 -50 1191 -74 1108 -74 c 0
 1029 -74 938 11 938 11 c 1
 938 11 934 -74 844 -74 c 0
 775 -74 748 -14 748 -14 c 1
 754 16 758 47 758 82 c 0
 758 130 731 184 696 271 c 1
 622 449 l 1
EndSplineSet
EndChar

StartChar: y
Encoding: 121 121 90
Width: 1208
Flags: HW
LayerCount: 2
Fore
SplineSet
445 392 m 0
 445 555 340 621 290 657 c 0
 279 665 270 675 269 676 c 1
 271 678 l 1
 270 680 270 681 270 682 c 0
 270 700 325 725 325 828 c 0
 325 862 317 916 289 1002 c 1
 204 1197 148 1277 33 1369 c 1
 33 1369 30 1377 30 1381 c 0
 30 1397 44 1419 133 1419 c 0
 208 1419 316 1304 316 1304 c 1
 316 1304 327 1419 416 1419 c 0
 492 1419 526 1375 534 1361 c 1
 517 1326 507 1291 507 1250 c 0
 507 1146 590 756 607 756 c 0
 633 756 712 1155 712 1250 c 0
 712 1290 703 1326 686 1361 c 1
 686 1361 731 1419 804 1419 c 0
 902 1419 914 1304 914 1304 c 1
 914 1304 1009 1419 1077 1419 c 0
 1165 1419 1178 1397 1178 1381 c 0
 1178 1376 1177 1370 1177 1367 c 1
 1061 1276 1005 1196 921 1002 c 1
 893 916 883 861 883 826 c 0
 883 729 938 684 939 684 c 1
 939 678 940 674 941 672 c 1
 920 657 l 1
 868 625 763 554 763 392 c 0
 763 176 793 92 876 -14 c 1
 876 -14 855 -68 768 -68 c 0
 672 -68 604 39 604 39 c 1
 604 39 536 -68 441 -68 c 0
 352 -68 336 -26 333 -14 c 1
 415 92 445 176 445 392 c 0
EndSplineSet
EndChar

StartChar: z
Encoding: 122 122 91
Width: 1076
Flags: HW
LayerCount: 2
Fore
SplineSet
347 752 m 1
 350 756 l 1
 354 767 407 762 513 945 c 1
 513 944 l 1
 546 1007 609 1141 609 1141 c 1
 609 1141 436 1133 321 1133 c 0
 234 1133 186 1109 140 1056 c 1
 140 1056 111 1073 111 1124 c 0
 111 1186 174 1234 181 1239 c 1
 176 1242 111 1287 111 1350 c 0
 111 1402 132 1415 141 1418 c 1
 206 1369 260 1353 312 1353 c 0
 347 1353 374 1372 403 1390 c 1
 402 1390 l 1
 425 1405 449 1419 472 1419 c 0
 504 1419 545 1390 591 1328 c 1
 591 1328 649 1419 732 1419 c 0
 819 1419 825 1344 825 1307 c 1
 825 1307 910 1419 974 1419 c 0
 1001 1419 1024 1389 1024 1338 c 0
 1024 1328 1023 1317 1019 1305 c 1
 928 1227 889 1139 799 904 c 1
 751 782 735 723 735 682 c 0
 735 637 755 615 755 605 c 0
 755 604 752 603 746 601 c 1
 746 602 l 1
 714 589 644 562 521 224 c 1
 643 224 673 218 785 218 c 0
 878 218 925 242 972 297 c 1
 972 297 1002 279 1002 228 c 0
 1002 166 937 121 930 117 c 1
 945 105 1002 61 1002 2 c 0
 1002 -55 978 -65 971 -67 c 1
 905 -18 847 0 795 0 c 0
 719 0 663 -68 602 -68 c 0
 569 -68 532 -41 489 16 c 1
 475 16 473 14 471 10 c 0
 458 -10 422 -68 370 -68 c 0
 280 -68 272 -15 272 -1 c 2
 272 42 l 1
 272 42 174 -69 103 -69 c 0
 77 -69 40 -45 40 -1 c 0
 40 6 41 13 45 22 c 1
 154 105 201 203 310 434 c 1
 348 559 369 632 369 679 c 0
 369 722 348 744 348 753 c 1
 347 752 l 1
EndSplineSet
EndChar

StartChar: braceleft
Encoding: 123 123 92
Width: 648
Flags: HW
LayerCount: 2
Fore
SplineSet
215 -110 m 2
 215 70 l 2
 215 183 202 281 112 313 c 1
 112 406 97 465 34 510 c 1
 214 537 215 666 215 871 c 2
 215 1050 l 2
 215 1302 306 1374 604 1374 c 1
 604 1289 l 1
 447 1265 428 1206 428 1018 c 2
 428 862 l 2
 428 633 407 530 240 472 c 1
 240 470 l 1
 406 411 428 313 428 77 c 2
 428 -122 l 2
 428 -282 462 -334 604 -350 c 1
 604 -434 l 1
 306 -434 215 -362 215 -110 c 2
EndSplineSet
EndChar

StartChar: bar
Encoding: 124 124 93
Width: 380
Flags: HW
LayerCount: 2
Fore
SplineSet
108 1463 m 1
 270 1463 l 1
 270 -473 l 1
 108 -473 l 1
 108 1463 l 1
EndSplineSet
EndChar

StartChar: braceright
Encoding: 125 125 94
Width: 654
Flags: HW
LayerCount: 2
Fore
SplineSet
222 818 m 2
 222 1062 l 2
 222 1223 185 1270 44 1289 c 1
 44 1374 l 1
 344 1374 433 1302 433 1050 c 2
 433 852 l 2
 433 655 437 534 615 510 c 1
 615 430 l 1
 438 406 433 289 433 87 c 2
 433 -110 l 2
 433 -362 344 -434 44 -434 c 1
 44 -350 l 1
 185 -334 222 -282 222 -122 c 2
 222 33 l 2
 222 293 233 408 409 469 c 1
 409 471 l 1
 256 527 222 614 222 818 c 2
EndSplineSet
EndChar

StartChar: asciitilde
Encoding: 126 126 95
Width: 1149
Flags: HW
LayerCount: 2
Fore
SplineSet
1031 764 m 1
 1067 587 l 1
 993 503 917 441 799 441 c 0
 626 441 510 579 334 579 c 0
 244 579 187 524 118 436 c 1
 81 610 l 1
 137 692 226 759 347 759 c 0
 519 759 687 620 810 620 c 0
 892 620 966 683 1031 764 c 1
EndSplineSet
EndChar

StartChar: exclamdown
Encoding: 161 161 96
Width: 439
Flags: HW
LayerCount: 2
Fore
SplineSet
170 589 m 1
 274 589 l 1
 333 -26 l 1
 337 -104 l 2
 340 -156 344 -210 344 -262 c 0
 344 -338 321 -401 272 -429 c 1
 180 -429 127 -394 92 -347 c 1
 93 -267 96 -184 100 -104 c 2
 104 -26 l 1
 170 589 l 1
356 782 m 1
 315 739 241 706 157 706 c 1
 114 747 81 821 81 905 c 1
 122 948 196 981 280 981 c 1
 323 940 356 866 356 782 c 1
EndSplineSet
EndChar

StartChar: cent
Encoding: 162 162 97
Width: 1050
Flags: HW
LayerCount: 2
Fore
SplineSet
377 -217 m 1
 377 3 l 1
 488 3 l 1
 488 -217 l 1
 377 -217 l 1
377 1383 m 1
 377 1603 l 1
 488 1603 l 1
 488 1383 l 1
 377 1383 l 1
557 -217 m 1
 557 3 l 1
 668 3 l 1
 668 -217 l 1
 557 -217 l 1
557 1383 m 1
 557 1603 l 1
 668 1603 l 1
 668 1383 l 1
 557 1383 l 1
420 359 m 0
 420 198 421 106 542 106 c 0
 642 106 646 235 646 300 c 0
 646 419 629 466 563 521 c 1
 563 521 566 561 635 561 c 0
 718 561 768 503 768 503 c 1
 768 503 829 561 918 561 c 0
 987 561 990 521 990 521 c 1
 928 469 916 422 916 314 c 2
 916 193 l 2
 916 -51 685 -85 520 -85 c 0
 293 -85 140 43 140 257 c 2
 140 351 l 2
 140 661 41 657 41 687 c 0
 41 726 140 700 140 1024 c 2
 140 1118 l 2
 140 1355 322 1442 527 1442 c 0
 692 1442 916 1408 916 1182 c 2
 916 1061 l 2
 916 948 936 898 999 844 c 1
 999 844 996 804 927 804 c 0
 838 804 777 862 777 862 c 1
 777 862 723 804 634 804 c 0
 565 804 562 844 562 844 c 1
 635 907 646 959 646 1110 c 0
 646 1175 634 1262 531 1262 c 0
 430 1262 419 1176 419 1100 c 0
 419 1077 420 1056 420 1037 c 0
 420 708 519 734 519 695 c 0
 519 665 420 669 420 359 c 0
EndSplineSet
EndChar

StartChar: sterling
Encoding: 163 163 98
Width: 1176
Flags: HW
LayerCount: 2
Fore
SplineSet
74 670 m 1
 74 670 49 673 49 716 c 2
 49 812 l 2
 49 855 74 858 74 858 c 1
 112 854 175 835 237 835 c 0
 246 835 255 838 264 848 c 1
 261 931 260 1028 260 1124 c 0
 260 1358 375 1586 669 1586 c 0
 834 1586 1055 1554 1055 1217 c 0
 1055 1153 1073 1127 1126 1098 c 1
 1126 1098 1123 1054 1047 1054 c 0
 979 1054 932 1118 932 1118 c 1
 932 1118 885 1054 805 1054 c 0
 730 1054 725 1098 725 1098 c 1
 788 1124 798 1145 798 1202 c 0
 798 1275 787 1372 693 1372 c 0
 587 1372 554 1287 554 1189 c 0
 554 1032 581 855 590 847 c 1
 601 832 612 828 624 828 c 0
 708 828 789 854 834 858 c 1
 834 858 859 855 859 812 c 2
 859 716 l 2
 859 672 834 670 834 670 c 1
 791 672 710 699 625 699 c 0
 587 699 573 675 573 494 c 0
 573 206 545 179 545 179 c 1
 545 179 545 204 875 204 c 0
 968 204 1016 226 1063 273 c 1
 1063 273 1103 269 1103 203 c 0
 1103 144 1051 108 1046 105 c 1
 1048 103 1103 66 1103 6 c 0
 1103 -60 1063 -65 1063 -65 c 1
 994 -21 937 -5 884 -5 c 0
 782 -5 703 -64 618 -64 c 0
 562 -64 504 -41 435 9 c 1
 435 9 369 -65 259 -65 c 0
 158 -65 154 -5 154 -5 c 1
 274 71 274 141 274 384 c 0
 274 594 274 693 236 693 c 0
 173 693 111 673 74 670 c 1
EndSplineSet
EndChar

StartChar: fraction
Encoding: 8260 8260 99
Width: 1203
Flags: HW
LayerCount: 2
Fore
SplineSet
37 -16 m 1
 1035 1330 l 1
 1163 1330 l 1
 166 -16 l 1
 37 -16 l 1
EndSplineSet
EndChar

StartChar: yen
Encoding: 165 165 100
Width: 1223
Flags: HW
LayerCount: 2
Fore
SplineSet
207 562 m 1
 207 562 182 565 182 608 c 2
 182 654 l 2
 182 697 207 700 207 700 c 1
 256 694 328 691 411 689 c 1
 345 950 207 1230 41 1369 c 1
 41 1369 38 1377 38 1381 c 0
 38 1397 52 1419 141 1419 c 0
 216 1419 324 1304 324 1304 c 1
 324 1304 335 1419 424 1419 c 0
 500 1419 534 1375 542 1361 c 1
 525 1326 515 1291 515 1250 c 0
 515 1146 598 756 615 756 c 0
 641 756 720 1155 720 1250 c 0
 720 1290 711 1326 694 1361 c 1
 694 1361 739 1419 812 1419 c 0
 910 1419 922 1304 922 1304 c 1
 922 1304 1017 1419 1085 1419 c 0
 1173 1419 1186 1397 1186 1381 c 0
 1186 1376 1185 1370 1185 1367 c 1
 1019 1229 879 950 813 689 c 1
 912 692 998 695 1047 700 c 1
 1047 700 1072 697 1072 654 c 2
 1072 608 l 2
 1072 565 1047 562 1047 562 c 1
 997 566 899 570 788 573 c 1
 780 529 775 486 773 445 c 1
 888 447 992 452 1047 457 c 1
 1047 457 1072 454 1072 411 c 2
 1072 365 l 2
 1072 322 1047 319 1047 319 c 1
 995 323 889 328 772 330 c 1
 777 159 809 81 884 -14 c 1
 884 -14 863 -68 776 -68 c 0
 680 -68 612 39 612 39 c 1
 612 39 544 -68 449 -68 c 0
 360 -68 344 -26 341 -14 c 1
 415 81 446 159 452 331 c 1
 349 329 260 325 207 319 c 1
 207 319 182 322 182 365 c 2
 182 411 l 2
 182 454 207 457 207 457 c 1
 263 450 351 446 451 445 c 1
 448 486 444 529 436 573 c 1
 340 571 258 567 207 562 c 1
EndSplineSet
EndChar

StartChar: florin
Encoding: 402 402 101
Width: 1143
Flags: HW
LayerCount: 2
Fore
SplineSet
270 832 m 1
 281 963 l 1
 523 963 l 1
 549 1110 l 2
 582 1300 675 1445 886 1445 c 0
 971 1445 1075 1408 1117 1332 c 1
 1110 1264 1077 1210 1032 1183 c 1
 956 1192 910 1219 889 1254 c 1
 889 1278 902 1295 927 1299 c 1
 919 1304 902 1307 886 1307 c 0
 789 1307 767 1215 747 1066 c 1
 735 963 l 1
 977 963 l 1
 965 832 l 1
 715 832 l 1
 603 87 l 2
 553 -244 493 -434 238 -434 c 0
 135 -434 51 -398 8 -319 c 1
 15 -254 49 -201 96 -174 c 1
 171 -182 216 -217 235 -249 c 1
 235 -265 219 -287 196 -296 c 1
 196 -297 l 1
 199 -302 208 -304 222 -304 c 0
 338 -304 353 -221 382 0 c 1
 503 832 l 1
 270 832 l 1
EndSplineSet
EndChar

StartChar: section
Encoding: 167 167 102
Width: 1052
Flags: HW
LayerCount: 2
Fore
SplineSet
237 556 m 0
 237 400 540 353 663 301 c 1
 743 322 821 384 821 482 c 0
 821 642 503 696 396 736 c 1
 291 705 237 652 237 556 c 0
1001 530 m 0
 1001 390 910 295 772 231 c 1
 772 229 l 1
 888 178 950 75 950 -45 c 0
 950 -270 745 -395 525 -395 c 0
 334 -395 134 -308 118 -120 c 1
 118 -64 139 -17 184 -2 c 1
 264 -2 322 -33 354 -61 c 1
 354 -104 338 -122 298 -122 c 1
 301 -230 434 -257 530 -257 c 0
 649 -257 762 -183 762 -72 c 0
 762 193 56 100 56 506 c 0
 56 643 139 749 288 800 c 1
 288 802 l 1
 180 862 114 954 114 1075 c 0
 114 1288 317 1407 533 1407 c 0
 726 1407 924 1318 924 1105 c 1
 892 1066 837 1032 764 1032 c 0
 706 1032 693 1064 693 1131 c 0
 693 1173 697 1206 699 1227 c 1
 682 1242 656 1251 621 1252 c 1
 590 1264 560 1271 528 1271 c 0
 417 1271 301 1221 301 1108 c 0
 301 863 1001 910 1001 530 c 0
EndSplineSet
EndChar

StartChar: quotesingle
Encoding: 39 39 104
Width: 331
Flags: HW
LayerCount: 2
Fore
SplineSet
246 1192 m 1
 214 841 l 1
 194 820 169 810 138 810 c 1
 123 819 115 839 112 870 c 2
 89 1113 l 1
 86 1186 81 1260 81 1332 c 1
 109 1379 150 1395 205 1395 c 1
 232 1379 247 1347 247 1284 c 0
 247 1253 246 1223 246 1192 c 1
EndSplineSet
EndChar

StartChar: quotedblleft
Encoding: 8220 8220 105
Width: 923
Flags: HW
LayerCount: 2
Fore
SplineSet
837 1395 m 1
 837 1300 l 1
 733 1273 674 1219 674 1098 c 1
 676 1098 l 1
 703 1111 746 1115 785 1115 c 1
 816 1074 846 1008 846 928 c 1
 826 885 773 853 709 853 c 0
 658 853 614 867 575 888 c 1
 558 951 547 1018 547 1089 c 0
 547 1272 661 1379 837 1395 c 1
362 1395 m 1
 362 1300 l 1
 258 1273 199 1219 199 1098 c 1
 201 1098 l 1
 228 1111 271 1115 310 1115 c 1
 341 1074 371 1008 371 928 c 1
 351 885 298 853 234 853 c 0
 183 853 139 867 100 888 c 1
 83 951 72 1018 72 1089 c 0
 72 1272 186 1379 362 1395 c 1
EndSplineSet
EndChar

StartChar: guillemotleft
Encoding: 171 171 106
Width: 961
Flags: HW
LayerCount: 2
Fore
SplineSet
306 894 m 1
 473 894 l 1
 420 790 317 575 269 484 c 1
 317 390 419 176 473 71 c 1
 306 71 l 1
 239 183 109 371 59 480 c 1
 110 587 239 782 306 894 c 1
722 894 m 1
 890 894 l 1
 834 790 734 575 686 484 c 1
 734 390 834 175 890 71 c 1
 722 71 l 1
 658 184 526 371 476 480 c 1
 527 587 658 782 722 894 c 1
EndSplineSet
EndChar

StartChar: guilsinglleft
Encoding: 8249 8249 107
Width: 545
Flags: HW
LayerCount: 2
Fore
SplineSet
305 894 m 1
 474 894 l 1
 418 791 317 576 269 484 c 1
 317 390 418 176 474 71 c 1
 305 71 l 1
 241 184 109 371 59 480 c 1
 110 587 241 782 305 894 c 1
EndSplineSet
EndChar

StartChar: guilsinglright
Encoding: 8250 8250 108
Width: 544
Flags: HW
LayerCount: 2
Fore
SplineSet
239 71 m 1
 71 71 l 1
 127 175 228 388 276 481 c 1
 227 575 127 790 71 894 c 1
 239 894 l 1
 306 782 435 593 486 485 c 1
 435 375 306 184 239 71 c 1
EndSplineSet
EndChar

StartChar: endash
Encoding: 8211 8211 109
Width: 1216
Flags: HW
LayerCount: 2
Fore
SplineSet
1128 410 m 1
 92 410 l 1
 92 579 l 1
 1128 579 l 1
 1128 410 l 1
EndSplineSet
EndChar

StartChar: dagger
Encoding: 8224 8224 110
Width: 1087
Flags: HW
LayerCount: 2
Fore
SplineSet
47 775 m 1
 47 842 70 897 105 929 c 1
 156 929 205 924 256 919 c 1
 331 884 398 863 494 863 c 1
 494 997 472 1082 440 1160 c 1
 433 1227 429 1287 429 1346 c 1
 464 1383 523 1406 595 1406 c 1
 630 1367 657 1307 657 1231 c 1
 633 1146 591 1040 591 863 c 1
 683 863 774 895 830 919 c 1
 881 926 930 929 981 929 c 1
 1016 897 1039 842 1039 775 c 1
 1007 740 951 718 883 718 c 1
 800 737 713 783 591 783 c 1
 591 704 605 624 625 557 c 1
 628 331 633 145 633 -26 c 0
 633 -143 630 -253 624 -363 c 1
 612 -408 584 -439 524 -439 c 1
 454 -388 448 -267 448 -146 c 0
 448 55 455 265 460 557 c 1
 487 629 494 658 494 783 c 1
 382 783 275 731 203 718 c 1
 135 718 79 740 47 775 c 1
EndSplineSet
EndChar

StartChar: daggerdbl
Encoding: 8225 8225 111
Width: 1079
Flags: HW
LayerCount: 2
Fore
SplineSet
1020 830 m 1
 999 797 945 776 890 776 c 0
 800 776 707 836 585 836 c 1
 585 720 616 588 656 487 c 1
 617 388 585 257 585 139 c 1
 704 139 797 199 890 199 c 0
 945 199 999 178 1020 145 c 1
 1020 81 987 27 952 -4 c 1
 800 -4 747 48 585 59 c 1
 590 -93 631 -171 650 -257 c 1
 650 -333 624 -391 592 -430 c 1
 488 -430 l 1
 453 -391 429 -333 429 -257 c 1
 445 -174 493 -104 493 59 c 1
 409 56 326 30 258 1 c 1
 214 -2 170 -4 127 -4 c 1
 92 27 59 81 59 145 c 1
 80 178 133 199 189 199 c 0
 293 199 384 139 493 139 c 1
 485 277 463 373 420 487 c 1
 462 604 485 698 493 836 c 1
 371 836 282 776 189 776 c 0
 133 776 80 797 59 830 c 1
 59 894 92 949 127 980 c 1
 189 980 l 2
 278 980 380 921 493 916 c 1
 488 1075 448 1146 429 1233 c 1
 429 1308 455 1367 488 1406 c 1
 592 1406 l 1
 624 1367 650 1308 650 1233 c 1
 629 1148 590 1069 585 916 c 1
 689 921 752 948 820 974 c 1
 864 977 907 980 952 980 c 1
 987 949 1020 894 1020 830 c 1
EndSplineSet
EndChar

StartChar: periodcentered
Encoding: 183 183 112
Width: 528
Flags: HW
LayerCount: 2
Fore
SplineSet
110 828 m 1
 151 849 204 861 262 861 c 0
 308 861 358 853 407 836 c 1
 428 795 440 743 440 686 c 0
 440 638 431 588 414 539 c 1
 373 518 320 506 262 506 c 0
 215 506 165 514 115 532 c 1
 95 572 84 623 84 680 c 0
 84 727 92 778 110 828 c 1
EndSplineSet
EndChar

StartChar: paragraph
Encoding: 182 182 113
Width: 1149
Flags: HW
LayerCount: 2
Fore
SplineSet
615 -421 m 1
 445 -421 l 1
 445 540 l 1
 197 548 58 712 58 961 c 0
 58 1213 186 1374 501 1374 c 2
 1105 1374 l 1
 1105 1263 l 1
 1029 1263 977 1246 953 1182 c 1
 953 -421 l 1
 783 -421 l 1
 783 1256 l 1
 615 1256 l 1
 615 -421 l 1
EndSplineSet
EndChar

StartChar: bullet
Encoding: 8226 8226 114
Width: 1209
Flags: HW
LayerCount: 2
Fore
SplineSet
959 235 m 1
 957 229 l 1
 615 442 l 1
 259 226 l 1
 257 231 l 1
 353 618 l 1
 39 891 l 1
 441 921 l 1
 603 1305 l 1
 755 931 l 1
 1169 897 l 1
 862 636 l 1
 959 235 l 1
EndSplineSet
EndChar

StartChar: quotesinglbase
Encoding: 8218 8218 115
Width: 469
Flags: HW
LayerCount: 2
Fore
SplineSet
96 -283 m 1
 96 -189 l 1
 199 -163 258 -109 258 13 c 1
 256 13 l 1
 229 1 187 -3 148 -3 c 1
 117 38 86 103 86 183 c 1
 107 226 160 259 224 259 c 0
 275 259 319 245 358 224 c 1
 375 161 385 93 385 22 c 0
 385 -160 272 -267 96 -283 c 1
EndSplineSet
EndChar

StartChar: quotedblbase
Encoding: 8222 8222 116
Width: 944
Flags: HW
LayerCount: 2
Fore
SplineSet
96 -283 m 1
 96 -189 l 1
 199 -163 258 -109 258 13 c 1
 256 13 l 1
 229 1 187 -3 148 -3 c 1
 117 38 86 103 86 183 c 1
 107 226 160 259 224 259 c 0
 275 259 319 245 358 224 c 1
 375 161 385 93 385 22 c 0
 385 -160 272 -267 96 -283 c 1
570 -283 m 1
 570 -189 l 1
 674 -162 733 -110 733 13 c 1
 731 13 l 1
 704 1 662 -3 623 -3 c 1
 592 38 561 103 561 183 c 1
 582 226 634 259 698 259 c 0
 749 259 793 245 832 224 c 1
 851 161 860 93 860 22 c 0
 860 -160 747 -267 570 -283 c 1
EndSplineSet
EndChar

StartChar: quotedblright
Encoding: 8221 8221 117
Width: 927
Flags: HW
LayerCount: 2
Fore
SplineSet
88 853 m 1
 88 947 l 1
 191 972 250 1026 250 1149 c 1
 248 1149 l 1
 221 1136 179 1132 140 1132 c 1
 109 1173 78 1239 78 1319 c 1
 99 1362 152 1395 216 1395 c 0
 267 1395 311 1381 350 1360 c 1
 367 1297 377 1229 377 1158 c 0
 377 974 264 869 88 853 c 1
562 853 m 1
 562 947 l 1
 666 972 725 1026 725 1149 c 1
 723 1149 l 1
 696 1136 654 1132 615 1132 c 1
 584 1173 553 1239 553 1319 c 1
 574 1362 626 1395 690 1395 c 0
 741 1395 785 1381 824 1360 c 1
 843 1297 852 1229 852 1158 c 0
 852 974 739 869 562 853 c 1
EndSplineSet
EndChar

StartChar: guillemotright
Encoding: 187 187 118
Width: 960
Flags: HW
LayerCount: 2
Fore
SplineSet
655 71 m 1
 488 71 l 1
 542 176 644 388 692 481 c 1
 644 575 542 789 488 894 c 1
 655 894 l 1
 722 782 851 592 902 485 c 1
 851 376 722 184 655 71 c 1
239 71 m 1
 71 71 l 1
 127 175 227 388 275 481 c 1
 227 575 127 790 71 894 c 1
 239 894 l 1
 303 782 434 592 485 485 c 1
 434 376 304 184 239 71 c 1
EndSplineSet
EndChar

StartChar: ellipsis
Encoding: 8230 8230 119
Width: 1806
Flags: HW
LayerCount: 2
Fore
SplineSet
85 183 m 1
 126 226 200 259 284 259 c 1
 327 218 360 144 360 60 c 1
 319 17 245 -16 161 -16 c 1
 118 25 85 99 85 183 c 1
767 183 m 1
 808 226 882 259 966 259 c 1
 1009 218 1042 144 1042 60 c 1
 1001 17 927 -16 843 -16 c 1
 800 25 767 99 767 183 c 1
1449 183 m 1
 1490 226 1564 259 1648 259 c 1
 1691 218 1724 144 1724 60 c 1
 1683 17 1609 -16 1525 -16 c 1
 1482 25 1449 99 1449 183 c 1
EndSplineSet
EndChar

StartChar: perthousand
Encoding: 8240 8240 120
Width: 2159
Flags: HW
LayerCount: 2
Fore
SplineSet
1807 576 m 0
 1727 576 1687 499 1687 330 c 0
 1687 161 1727 82 1807 82 c 0
 1886 82 1927 161 1927 330 c 0
 1927 499 1886 576 1807 576 c 0
307 -16 m 1
 171 -16 l 1
 1142 1330 l 1
 1274 1330 l 1
 307 -16 l 1
356 1227 m 0
 276 1227 236 1150 236 981 c 0
 236 812 276 733 356 733 c 0
 435 733 476 812 476 981 c 0
 476 1150 435 1227 356 1227 c 0
1807 689 m 0
 2004 689 2106 533 2106 330 c 0
 2106 128 2004 -30 1807 -30 c 0
 1607 -30 1508 128 1508 330 c 0
 1508 533 1607 689 1807 689 c 0
356 1340 m 0
 553 1340 655 1184 655 981 c 0
 655 779 553 621 356 621 c 0
 156 621 57 779 57 981 c 0
 57 1184 156 1340 356 1340 c 0
1082 689 m 0
 1279 689 1381 533 1381 330 c 0
 1381 128 1279 -30 1082 -30 c 0
 882 -30 783 128 783 330 c 0
 783 533 882 689 1082 689 c 0
1082 576 m 0
 1002 576 962 499 962 330 c 0
 962 161 1002 82 1082 82 c 0
 1161 82 1202 161 1202 330 c 0
 1202 499 1161 576 1082 576 c 0
EndSplineSet
EndChar

StartChar: questiondown
Encoding: 191 191 121
Width: 984
Flags: HW
LayerCount: 2
Fore
SplineSet
488 589 m 1
 617 589 l 1
 617 311 l 1
 614 268 590 235 559 203 c 1
 444 139 302 108 302 -66 c 0
 302 -205 413 -284 536 -284 c 0
 688 -284 776 -204 783 -41 c 1
 773 -48 762 -51 750 -51 c 0
 743 -51 724 -52 724 -43 c 0
 724 -33 729 -11 752 21 c 1
 753 47 774 68 812 68 c 0
 897 68 934 -29 934 -111 c 1
 907 -340 695 -440 511 -440 c 0
 270 -440 58 -309 58 -58 c 0
 58 201 341 305 476 432 c 1
 479 447 479 462 480 477 c 2
 488 589 l 1
687 782 m 1
 646 739 572 706 488 706 c 1
 445 747 413 821 413 905 c 1
 454 948 527 981 611 981 c 1
 654 940 687 866 687 782 c 1
EndSplineSet
EndChar

StartChar: grave
Encoding: 96 96 122
Width: 591
Flags: HW
LayerCount: 2
Fore
SplineSet
521 1098 m 1
 396 1098 l 1
 138 1310 l 1
 103 1337 79 1359 67 1404 c 1
 86 1427 127 1446 167 1446 c 0
 240 1446 295 1402 351 1370 c 1
 371 1324 l 1
 521 1098 l 1
EndSplineSet
EndChar

StartChar: acute
Encoding: 180 180 123
Width: 586
Flags: HW
LayerCount: 2
Fore
SplineSet
193 1098 m 1
 68 1098 l 1
 238 1370 l 1
 296 1401 355 1446 430 1446 c 0
 467 1446 506 1427 521 1404 c 1
 505 1355 478 1328 438 1296 c 2
 193 1098 l 1
EndSplineSet
EndChar

StartChar: circumflex
Encoding: 710 710 124
Width: 787
Flags: HW
LayerCount: 2
Fore
SplineSet
276 1435 m 1
 504 1435 l 1
 716 1099 l 1
 588 1099 l 1
 391 1287 l 1
 193 1099 l 1
 68 1099 l 1
 276 1435 l 1
EndSplineSet
EndChar

StartChar: tilde
Encoding: 732 732 125
Width: 863
Flags: HW
LayerCount: 2
Fore
SplineSet
686 1395 m 1
 785 1395 l 1
 772 1250 704 1127 574 1127 c 0
 446 1127 342 1239 252 1239 c 0
 205 1239 184 1190 179 1135 c 1
 80 1135 l 1
 88 1297 173 1398 293 1398 c 0
 400 1398 533 1286 592 1286 c 0
 650 1286 673 1327 686 1395 c 1
EndSplineSet
EndChar

StartChar: macron
Encoding: 175 175 126
Width: 809
Flags: HW
LayerCount: 2
Fore
SplineSet
719 1184 m 1
 88 1184 l 1
 88 1311 l 1
 719 1311 l 1
 719 1184 l 1
EndSplineSet
EndChar

StartChar: breve
Encoding: 728 728 127
Width: 766
Flags: HW
LayerCount: 2
Fore
SplineSet
74 1415 m 1
 190 1415 l 1
 205 1312 274 1253 378 1253 c 0
 487 1253 556 1303 575 1415 c 1
 692 1415 l 1
 679 1227 567 1106 377 1106 c 0
 192 1106 82 1238 74 1415 c 1
EndSplineSet
EndChar

StartChar: dotaccent
Encoding: 729 729 128
Width: 414
Flags: HW
LayerCount: 2
Fore
SplineSet
82 1253 m 0
 82 1320 135 1377 206 1377 c 0
 277 1377 330 1320 330 1253 c 0
 330 1186 277 1129 206 1129 c 0
 135 1129 82 1186 82 1253 c 0
EndSplineSet
EndChar

StartChar: dieresis
Encoding: 168 168 129
Width: 810
Flags: HW
LayerCount: 2
Fore
SplineSet
479 1253 m 0
 479 1320 533 1377 602 1377 c 0
 673 1377 726 1320 726 1253 c 0
 726 1186 673 1129 602 1129 c 0
 533 1129 479 1186 479 1253 c 0
82 1253 m 0
 82 1320 135 1377 206 1377 c 0
 277 1377 330 1320 330 1253 c 0
 330 1186 277 1129 206 1129 c 0
 135 1129 82 1186 82 1253 c 0
EndSplineSet
EndChar

StartChar: ring
Encoding: 730 730 130
Width: 578
Flags: HW
LayerCount: 2
Fore
SplineSet
288 1490 m 0
 405 1490 497 1400 497 1283 c 0
 497 1166 405 1074 288 1074 c 0
 171 1074 80 1166 80 1283 c 0
 80 1400 171 1490 288 1490 c 0
288 1401 m 0
 220 1401 169 1350 169 1283 c 0
 169 1215 220 1163 288 1163 c 0
 356 1163 407 1215 407 1283 c 0
 407 1350 356 1401 288 1401 c 0
EndSplineSet
EndChar

StartChar: cedilla
Encoding: 184 184 131
Width: 537
Flags: HW
LayerCount: 2
Fore
SplineSet
158 -185 m 1
 218 7 l 1
 308 7 l 1
 272 -98 l 1
 281 -97 290 -97 299 -97 c 0
 398 -97 456 -157 456 -252 c 0
 456 -369 321 -424 204 -424 c 0
 162 -424 117 -418 75 -406 c 1
 91 -317 l 1
 121 -324 150 -328 177 -328 c 0
 233 -328 284 -314 284 -255 c 0
 284 -218 258 -198 223 -194 c 0
 215 -194 203 -195 190 -198 c 1
 181 -193 170 -189 158 -185 c 1
EndSplineSet
EndChar

StartChar: hungarumlaut
Encoding: 733 733 132
Width: 893
Flags: HW
LayerCount: 2
Fore
SplineSet
188 1103 m 1
 70 1103 l 1
 195 1361 l 1
 246 1399 294 1446 374 1446 c 0
 417 1446 446 1430 461 1410 c 1
 436 1361 397 1319 351 1272 c 2
 188 1103 l 1
554 1103 m 1
 436 1103 l 1
 561 1361 l 1
 609 1399 656 1446 731 1446 c 0
 776 1446 809 1430 828 1410 c 1
 804 1361 764 1320 717 1272 c 2
 554 1103 l 1
EndSplineSet
EndChar

StartChar: ogonek
Encoding: 731 731 133
Width: 576
Flags: HW
LayerCount: 2
Fore
SplineSet
282 0 m 1
 415 0 l 1
 330 -74 270 -144 270 -222 c 0
 270 -292 313 -312 368 -312 c 0
 413 -312 442 -305 479 -286 c 1
 495 -393 l 1
 431 -424 375 -434 303 -434 c 0
 193 -434 79 -378 79 -256 c 0
 79 -156 198 -78 282 0 c 1
EndSplineSet
EndChar

StartChar: caron
Encoding: 711 711 134
Width: 771
Flags: HW
LayerCount: 2
Fore
SplineSet
503 1099 m 1
 275 1099 l 1
 62 1435 l 1
 190 1435 l 1
 391 1247 l 1
 585 1435 l 1
 710 1435 l 1
 503 1099 l 1
EndSplineSet
EndChar

StartChar: emdash
Encoding: 8212 8212 135
Width: 2240
Flags: HW
LayerCount: 2
Fore
SplineSet
2152 410 m 1
 92 410 l 1
 92 579 l 1
 2152 579 l 1
 2152 410 l 1
EndSplineSet
EndChar

StartChar: AE
Encoding: 198 198 136
Width: 1782
Flags: HW
LayerCount: 2
Fore
SplineSet
1188 669 m 1
 1164 206 l 1
 1164 120 1228 117 1263 117 c 0
 1351 117 1382 176 1382 237 c 0
 1382 310 1353 354 1311 395 c 1
 1311 395 1316 435 1382 435 c 0
 1463 435 1513 377 1513 377 c 1
 1513 377 1563 435 1645 435 c 0
 1711 435 1715 395 1715 395 c 1
 1653 346 1634 278 1634 199 c 0
 1634 100 1656 28 1725 -30 c 1
 1725 -30 1722 -74 1646 -74 c 0
 1541 -74 1476 21 1476 21 c 1
 1424 -36 1336 -74 1252 -74 c 0
 1183 -74 1118 -49 1078 11 c 1
 1078 11 1014 -74 901 -74 c 0
 799 -74 796 -14 796 -14 c 1
 850 61 884 134 899 256 c 0
 908 327 912 392 912 449 c 0
 912 508 907 560 901 601 c 1
 877 627 819 640 759 640 c 0
 701 640 640 627 611 602 c 1
 576 521 544 402 526 257 c 0
 522 225 520 196 520 169 c 0
 520 95 535 41 560 -14 c 1
 560 -14 541 -74 440 -74 c 0
 326 -74 284 11 284 11 c 1
 284 11 211 -74 123 -74 c 0
 42 -74 35 -33 35 -19 c 2
 35 -14 l 1
 148 80 202 169 252 375 c 0
 277 481 284 552 284 604 c 0
 284 721 243 731 243 753 c 0
 243 801 376 764 474 1148 c 1
 484 1205 497 1256 497 1309 c 0
 497 1375 477 1440 416 1503 c 1
 416 1503 436 1562 536 1562 c 0
 659 1562 702 1456 702 1456 c 1
 745 1531 815 1562 876 1562 c 0
 939 1562 995 1526 1024 1456 c 1
 1027 1448 l 1
 1034 1456 1109 1562 1238 1562 c 0
 1313 1562 1419 1533 1475 1466 c 1
 1475 1466 1540 1562 1645 1562 c 0
 1720 1562 1724 1516 1724 1516 c 1
 1655 1464 1633 1402 1633 1312 c 0
 1633 1237 1652 1174 1714 1127 c 1
 1714 1127 1709 1088 1644 1088 c 0
 1562 1088 1512 1145 1512 1145 c 1
 1512 1145 1462 1088 1381 1088 c 0
 1315 1088 1310 1127 1310 1127 c 1
 1352 1165 1381 1209 1381 1277 c 0
 1381 1329 1356 1372 1273 1372 c 0
 1233 1372 1165 1368 1165 1294 c 1
 1188 847 l 1
 1343 847 1424 861 1493 905 c 1
 1493 905 1520 902 1520 855 c 0
 1520 791 1480 752 1480 752 c 1
 1480 752 1520 718 1520 661 c 0
 1520 613 1493 610 1493 610 c 1
 1424 653 1343 669 1188 669 c 1
679 857 m 1
 677 854 677 852 677 849 c 0
 677 810 722 790 777 790 c 0
 837 790 896 812 896 858 c 1
 892 917 890 1367 854 1367 c 0
 817 1367 697 915 679 857 c 1
EndSplineSet
EndChar

StartChar: ordfeminine
Encoding: 170 170 137
Width: 796
Flags: HW
LayerCount: 2
Fore
SplineSet
695 903 m 1
 737 852 l 1
 700 768 652 736 546 736 c 1
 511 748 482 773 477 817 c 1
 422 758 348 732 268 732 c 0
 163 732 71 784 71 894 c 0
 71 1010 177 1073 305 1087 c 0
 374 1094 442 1098 469 1119 c 1
 469 1211 434 1259 327 1259 c 0
 309 1259 277 1253 266 1240 c 1
 259 1240 256 1223 242 1172 c 0
 235 1147 212 1141 183 1141 c 0
 137 1141 101 1168 88 1197 c 1
 115 1305 240 1341 358 1341 c 0
 469 1341 608 1309 608 1176 c 2
 608 880 l 2
 608 857 613 842 623 834 c 1
 639 834 652 846 659 881 c 1
 695 903 l 1
469 932 m 1
 469 1005 l 1
 443 1010 416 1012 390 1012 c 0
 298 1012 217 982 217 909 c 0
 217 854 251 822 314 822 c 0
 387 822 444 871 469 932 c 1
EndSplineSet
EndChar

StartChar: Lslash
Encoding: 321 321 138
Width: 1132
Flags: HW
LayerCount: 2
Fore
SplineSet
768 195 m 0
 861 195 909 217 956 264 c 1
 956 264 996 260 996 194 c 0
 996 135 944 99 939 96 c 1
 941 94 996 57 996 -3 c 0
 996 -69 956 -74 956 -74 c 1
 887 -30 830 -14 777 -14 c 0
 710 -14 658 -73 601 -73 c 0
 557 -73 511 -37 458 40 c 1
 458 40 400 -74 302 -74 c 0
 201 -74 197 -14 197 -14 c 1
 317 62 317 132 317 375 c 0
 317 726 208 722 208 756 c 0
 208 801 317 770 317 1148 c 0
 317 1332 286 1417 196 1503 c 1
 196 1503 200 1562 301 1562 c 0
 420 1562 467 1457 467 1457 c 1
 467 1457 528 1562 631 1562 c 0
 732 1562 737 1503 737 1503 c 1
 647 1417 616 1332 616 1148 c 0
 616 770 725 801 725 756 c 0
 725 722 616 726 616 375 c 0
 616 213 628 200 628 200 c 1
 628 200 628 195 768 195 c 0
1074 659 m 1
 38 659 l 1
 38 828 l 1
 1074 828 l 1
 1074 659 l 1
EndSplineSet
EndChar

StartChar: Oslash
Encoding: 216 216 139
Width: 1212
Flags: HW
LayerCount: 2
Fore
SplineSet
148 -229 m 1
 966 1750 l 1
 1050 1710 l 1
 232 -269 l 1
 148 -229 l 1
479 421 m 0
 479 206 479 98 609 98 c 0
 740 98 741 218 741 432 c 2
 741 1088 l 2
 741 1290 739 1372 609 1372 c 0
 480 1372 478 1290 478 1088 c 0
 478 494 479 998 479 421 c 0
1074 421 m 0
 1074 37 907 -92 609 -92 c 0
 311 -92 144 37 144 421 c 0
 144 708 20 734 20 748 c 0
 20 773 144 779 144 1077 c 0
 144 1505 311 1586 610 1586 c 0
 907 1586 1074 1505 1074 1077 c 0
 1074 784 1184 772 1184 748 c 0
 1184 746 1181 744 1175 739 c 0
 1142 714 1074 659 1074 421 c 0
EndSplineSet
EndChar

StartChar: OE
Encoding: 338 338 140
Width: 1670
Flags: HW
LayerCount: 2
Fore
SplineSet
1096 669 m 1
 1052 206 l 1
 1052 120 1116 117 1151 117 c 0
 1239 117 1270 176 1270 237 c 0
 1270 310 1241 354 1199 395 c 1
 1199 395 1204 435 1270 435 c 0
 1351 435 1401 377 1401 377 c 1
 1401 377 1451 435 1533 435 c 0
 1599 435 1603 395 1603 395 c 1
 1541 346 1522 278 1522 199 c 0
 1522 100 1544 28 1613 -30 c 1
 1613 -30 1610 -74 1534 -74 c 0
 1429 -74 1364 21 1364 21 c 1
 1308 -46 1203 -74 1127 -74 c 0
 981 -74 896 41 896 40 c 0
 852 -56 709 -92 610 -92 c 0
 312 -92 145 37 145 421 c 0
 145 708 21 734 21 748 c 0
 21 773 145 779 145 1077 c 0
 145 1505 312 1586 611 1586 c 0
 738 1586 834 1547 894 1447 c 1
 894 1444 979 1562 1126 1562 c 0
 1201 1562 1307 1533 1363 1466 c 1
 1363 1466 1428 1562 1533 1562 c 0
 1608 1562 1612 1516 1612 1516 c 1
 1543 1464 1521 1402 1521 1312 c 0
 1521 1237 1540 1174 1602 1127 c 1
 1602 1127 1597 1088 1532 1088 c 0
 1450 1088 1400 1145 1400 1145 c 1
 1400 1145 1350 1088 1269 1088 c 0
 1203 1088 1198 1127 1198 1127 c 1
 1240 1165 1269 1209 1269 1277 c 0
 1269 1329 1244 1372 1161 1372 c 0
 1121 1372 1053 1368 1053 1294 c 1
 1096 847 l 1
 1241 847 1316 861 1381 905 c 1
 1381 905 1408 902 1408 855 c 0
 1408 791 1368 752 1368 752 c 1
 1368 752 1408 718 1408 661 c 0
 1408 613 1381 610 1381 610 c 1
 1316 653 1241 669 1096 669 c 1
480 421 m 0
 480 206 480 98 610 98 c 0
 741 98 742 218 742 432 c 1
 731 725 634 724 634 756 c 0
 634 798 730 774 742 1086 c 1
 742 1088 l 2
 742 1290 740 1372 610 1372 c 0
 481 1372 479 1290 479 1088 c 0
 479 772 563 777 563 748 c 0
 563 730 480 695 480 421 c 0
EndSplineSet
EndChar

StartChar: ordmasculine
Encoding: 186 186 141
Width: 806
Flags: HW
LayerCount: 2
Fore
SplineSet
221 1034 m 0
 221 903 291 824 402 824 c 0
 513 824 583 903 583 1034 c 0
 583 1163 513 1244 402 1244 c 0
 291 1244 221 1163 221 1034 c 0
65 1034 m 0
 65 1220 208 1341 402 1341 c 0
 597 1341 738 1220 738 1034 c 0
 738 850 597 728 402 728 c 0
 208 728 65 850 65 1034 c 0
EndSplineSet
EndChar

StartChar: ae
Encoding: 230 230 142
Width: 1528
Flags: HW
LayerCount: 2
Fore
SplineSet
1422 936 m 0
 1422 743 1451 681 1470 656 c 1
 1094 656 l 2
 1048 656 988 654 936 649 c 1
 933 597 931 513 931 405 c 0
 931 219 932 113 1059 113 c 0
 1173 113 1177 219 1177 273 c 0
 1177 367 1148 409 1073 451 c 1
 1073 451 1095 485 1150 485 c 0
 1233 485 1294 402 1294 402 c 1
 1294 402 1355 485 1437 485 c 0
 1496 485 1511 461 1514 451 c 1
 1437 409 1422 372 1422 285 c 0
 1422 -39 1211 -84 1043 -84 c 0
 922 -84 832 -40 774 48 c 1
 677 -59 579 -84 454 -84 c 0
 312 -84 137 -48 93 199 c 1
 80 278 19 336 19 350 c 0
 19 365 80 416 89 478 c 1
 122 678 252 757 459 757 c 0
 576 757 615 834 615 955 c 0
 615 1142 611 1246 494 1246 c 0
 370 1246 366 1139 366 1085 c 0
 366 991 395 949 470 907 c 1
 470 907 448 873 393 873 c 0
 310 873 249 956 249 956 c 1
 249 956 188 873 106 873 c 0
 47 873 32 897 29 907 c 1
 106 949 121 986 121 1073 c 0
 121 1397 344 1442 520 1442 c 0
 625 1442 711 1405 776 1325 c 1
 844 1405 933 1442 1043 1442 c 0
 1211 1442 1422 1385 1422 936 c 0
615 417 m 0
 615 599 530 619 502 619 c 0
 410 619 376 535 376 336 c 0
 376 266 371 89 491 89 c 0
 614 89 615 209 615 417 c 0
931 955 m 0
 931 898 929 856 925 823 c 1
 971 813 1014 813 1061 813 c 0
 1111 813 1144 820 1167 831 c 1
 1177 861 1177 894 1177 936 c 0
 1177 1025 1183 1246 1059 1246 c 0
 932 1246 931 1142 931 955 c 0
EndSplineSet
EndChar

StartChar: dotlessi
Encoding: 305 305 143
Width: 627
Flags: HW
LayerCount: 2
Fore
SplineSet
174 341 m 0
 174 660 75 656 75 687 c 0
 75 728 174 700 174 1044 c 0
 174 1216 146 1286 64 1366 c 1
 64 1366 68 1420 160 1420 c 0
 254 1420 310 1343 310 1343 c 1
 310 1343 366 1420 460 1420 c 0
 552 1420 556 1366 556 1366 c 1
 474 1286 446 1216 446 1044 c 0
 446 700 545 728 545 687 c 0
 545 656 446 660 446 341 c 0
 446 154 474 73 556 -13 c 1
 556 -13 552 -67 460 -67 c 0
 366 -67 310 10 310 10 c 1
 310 10 254 -67 160 -67 c 0
 69 -67 64 -13 64 -13 c 1
 146 73 174 154 174 341 c 0
EndSplineSet
EndChar

StartChar: lslash
Encoding: 322 322 144
Width: 1075
Flags: HW
LayerCount: 2
Fore
SplineSet
675 177 m 0
 759 177 803 197 846 240 c 1
 846 240 882 236 882 176 c 0
 882 123 835 90 830 87 c 1
 832 85 882 52 882 -3 c 0
 882 -63 846 -67 846 -67 c 1
 783 -27 731 -13 683 -13 c 0
 612 -13 557 -66 496 -66 c 0
 456 -66 414 -45 366 0 c 1
 366 0 306 -67 206 -67 c 0
 114 -67 110 -13 110 -13 c 1
 219 56 219 120 219 341 c 0
 219 660 120 656 120 687 c 0
 120 728 219 700 219 1044 c 0
 219 1211 191 1288 109 1366 c 1
 109 1366 113 1420 205 1420 c 0
 313 1420 356 1343 356 1343 c 1
 356 1343 411 1420 505 1420 c 0
 597 1420 601 1366 601 1366 c 1
 519 1288 491 1211 491 1044 c 0
 491 700 590 728 590 687 c 0
 590 656 491 660 491 341 c 0
 491 194 502 182 502 182 c 1
 502 182 502 177 675 177 c 0
1061 410 m 1
 25 410 l 1
 25 579 l 1
 1061 579 l 1
 1061 410 l 1
EndSplineSet
EndChar

StartChar: oslash
Encoding: 248 248 145
Width: 1130
Flags: HW
LayerCount: 2
Fore
SplineSet
146 -229 m 1
 896 1605 l 1
 980 1565 l 1
 230 -269 l 1
 146 -229 l 1
440 383 m 0
 440 187 440 89 568 89 c 0
 697 89 698 198 698 393 c 2
 698 979 l 2
 698 1170 696 1247 568 1247 c 0
 441 1247 439 1170 439 979 c 0
 439 458 440 898 440 383 c 0
1001 383 m 0
 1001 34 845 -84 568 -84 c 0
 291 -84 135 34 135 383 c 0
 135 644 23 667 23 680 c 0
 23 703 135 708 135 979 c 0
 135 1368 291 1442 569 1442 c 0
 845 1442 1001 1368 1001 979 c 0
 1001 713 1101 702 1101 680 c 0
 1101 678 1098 676 1093 672 c 0
 1063 649 1001 599 1001 383 c 0
EndSplineSet
EndChar

StartChar: oe
Encoding: 339 339 146
Width: 1604
Flags: HW
LayerCount: 2
Fore
SplineSet
1498 936 m 0
 1498 743 1527 681 1546 656 c 1
 1170 656 l 2
 1124 656 1064 654 1012 649 c 1
 1009 597 1007 513 1007 405 c 0
 1007 219 1008 113 1135 113 c 0
 1249 113 1253 219 1253 273 c 0
 1253 367 1224 409 1149 451 c 1
 1149 451 1171 485 1226 485 c 0
 1309 485 1370 402 1370 402 c 1
 1370 402 1431 485 1513 485 c 0
 1572 485 1587 461 1590 451 c 1
 1513 409 1498 372 1498 285 c 0
 1498 -39 1287 -84 1119 -84 c 0
 1009 -84 920 -44 852 43 c 1
 785 -46 691 -84 570 -84 c 0
 293 -84 137 34 137 383 c 0
 137 644 25 667 25 680 c 0
 25 703 137 708 137 979 c 0
 137 1368 293 1442 571 1442 c 0
 697 1442 794 1416 862 1322 c 1
 928 1404 1014 1442 1119 1442 c 0
 1287 1442 1498 1385 1498 936 c 0
442 383 m 0
 442 187 442 89 570 89 c 0
 699 89 700 198 700 393 c 0
 700 601 645 649 620 672 c 0
 615 676 613 678 613 680 c 0
 613 706 700 705 700 979 c 0
 700 1170 698 1247 570 1247 c 0
 443 1247 441 1170 441 979 c 0
 441 705 527 706 527 680 c 0
 527 663 442 630 442 383 c 0
1007 955 m 0
 1007 898 1005 856 1001 823 c 1
 1047 813 1090 813 1137 813 c 0
 1187 813 1220 820 1243 831 c 1
 1253 861 1253 894 1253 936 c 0
 1253 1025 1259 1246 1135 1246 c 0
 1008 1246 1007 1142 1007 955 c 0
EndSplineSet
EndChar

StartChar: germandbls
Encoding: 223 223 147
Width: 1132
Flags: HW
LayerCount: 2
Fore
SplineSet
610 734 m 5
 529 801.758789062 578 865 578 865 c 5
 757.616438356 780 754 1011.40820312 754 1135 c 0
 754 1202.5703125 778.827148438 1372 610 1372 c 0
 452.133789062 1372 450 1222.0390625 450 1110 c 1
 450 979.099609375 429.823242188 865.099609375 499 754.099609375 c 1
 499 754.099609375 427 732.018554688 427 396 c 0
 427 195 460 69 547 -12 c 1
 547 -12 516 -63 443 -63 c 0
 348.967773438 -63 286 42 286 42 c 1
 286 42 231.294921875 -73 145 -73 c 0
 72 -73 41 -22 41 -22 c 1
 128 59 161 185 161 386 c 0
 161 727 52 723 52 756 c 0
 52 801 161 772 161 1151 c 0
 161 1578.76953125 451 1586 636 1586 c 0
 829 1586 996 1513 996 1323 c 0
 996 1209 1093 1152 1093 1130 c 0
 1093 1116 1006 1088 1006 958 c 0
 1006 894 973.807692308 789 820 761 c 5
 980.872928177 738 1031 606.567382812 1031 562 c 0
 1031 491 1118 413 1118 401 c 0
 1118 377 1031 319 1031 186 c 0
 1031 11.7109375 914.784179688 -73 781 -73 c 1
 717.912109375 -73 685.280273438 -89 657 -132 c 1
 657 -132 630 -129 630 -81 c 0
 630 -5.208984375 670 40 670 40 c 1
 670 40 630 79 630 143 c 0
 630 190 646 193 646 193 c 1
 778 90 805 237.768554688 805 378 c 0
 805 479.490234375 764.42939835 711 596 590 c 5
 596 590 523 674.184570312 610 734 c 5
EndSplineSet
EndChar

StartChar: onesuperior
Encoding: 185 185 148
Width: 571
Flags: HMW
HStem: 544 21G<77 77 517 517> 553 87
VStem: 77 317<544 693 640 693>
LayerCount: 2
Fore
SplineSet
394 1389 m 1x60
 394 693 l 2
 394 671 396 656 400 643 c 1
 416 640 432 640 450 640 c 2
 517 640 l 1
 517 544 l 1
 438 551 368 553 302 553 c 0x60
 230 553 157 550 77 544 c 1xa0
 77 640 l 1x60
 159 640 l 2
 171 640 183 640 193 643 c 1
 197 657 200 677 200 708 c 2xa0
 200 1278 l 2
 200 1291 200 1303 199 1315 c 1
 185 1321 171 1324 152 1324 c 0
 146 1324 140 1323 134 1323 c 2
 69 1317 l 1
 64 1381 l 1
 152 1405 246 1429 321 1429 c 0
 380 1429 390 1418 394 1389 c 1x60
EndSplineSet
EndChar

StartChar: logicalnot
Encoding: 172 172 149
Width: 1208
Flags: HW
LayerCount: 2
Fore
SplineSet
944 278 m 1
 944 712 l 1
 80 712 l 1
 80 874 l 1
 1107 874 l 1
 1107 278 l 1
 944 278 l 1
EndSplineSet
EndChar

StartChar: mu
Encoding: 181 181 150
Width: 1232
Flags: HW
LayerCount: 2
Fore
SplineSet
161 -50 m 0
 161 323 162 356 162 356 c 2
 162 653 74 651 74 680 c 0
 74 693 162 714 162 978 c 0
 162 1176 134 1271 46 1365 c 1
 46 1365 63 1420 154 1420 c 0
 250 1420 318 1313 318 1313 c 1
 318 1313 385 1420 482 1420 c 0
 559 1420 568 1374 569 1365 c 1
 483 1272 453 1164 453 968 c 0
 453 714 529 693 529 680 c 0
 529 653 453 654 453 370 c 0
 453 179 490 96 614 96 c 0
 754 96 779 205 779 370 c 0
 779 654 701 653 701 680 c 0
 701 695 777 726 777 978 c 0
 777 1176 749 1271 661 1365 c 1
 661 1365 675 1420 747 1420 c 0
 844 1420 911 1313 911 1313 c 1
 911 1313 979 1420 1076 1420 c 0
 1170 1420 1183 1374 1184 1365 c 1
 1089 1271 1056 1176 1056 978 c 0
 1056 760 1118 710 1148 688 c 0
 1152 684 1156 682 1156 680 c 0
 1156 660 1056 634 1056 381 c 0
 1056 173 1085 85 1176 -14 c 1
 1176 -14 1155 -65 1041 -65 c 0
 957 -65 908 36 908 36 c 1
 818 -18 700 -84 591 -84 c 0
 534 -84 479 -66 433 -17 c 1
 433 -50 l 2
 433 -207 461 -271 543 -344 c 1
 543 -344 539 -398 447 -398 c 0
 353 -398 297 -321 297 -321 c 1
 297 -321 241 -398 147 -398 c 0
 56 -398 51 -344 51 -344 c 1
 133 -271 161 -207 161 -50 c 0
EndSplineSet
EndChar

StartChar: trademark
Encoding: 8482 8482 151
Width: 1761
Flags: HW
LayerCount: 2
Fore
SplineSet
448 1289 m 1
 448 695 l 2
 448 642 447 627 540 611 c 1
 540 552 l 1
 204 552 l 1
 204 611 l 1
 296 627 295 641 295 695 c 2
 295 1289 l 1
 172 1289 l 2
 140 1289 123 1259 112 1224 c 1
 56 1224 l 1
 56 1374 l 1
 678 1374 l 1
 678 1224 l 1
 622 1224 l 1
 611 1259 593 1289 561 1289 c 2
 448 1289 l 1
1146 551 m 1
 935 1193 l 1
 931 1193 l 1
 931 761 l 2
 931 683 940 644 1025 614 c 1
 1025 552 l 1
 746 552 l 1
 746 613 l 1
 830 641 839 682 839 758 c 2
 839 1236 l 2
 839 1297 785 1314 727 1314 c 1
 727 1374 l 1
 1010 1374 l 1
 1217 752 l 1
 1219 752 l 1
 1432 1374 l 1
 1693 1374 l 1
 1693 1314 l 1
 1609 1299 1598 1274 1598 1227 c 2
 1598 737 l 2
 1598 670 1597 642 1690 613 c 1
 1690 552 l 1
 1349 552 l 1
 1349 614 l 1
 1447 643 1440 673 1440 739 c 2
 1440 1195 l 1
 1436 1195 l 1
 1221 551 l 1
 1146 551 l 1
EndSplineSet
EndChar

StartChar: Eth
Encoding: 208 208 152
Width: 1202
Flags: HW
LayerCount: 2
Fore
SplineSet
485 342 m 0
 485 210 488 117 616 117 c 0
 749 117 747 200 747 351 c 0
 747 722 671 719 671 756 c 0
 671 809 747 762 747 1218 c 0
 747 1258 747 1372 625 1372 c 0
 487 1372 485 1285 485 1220 c 0
 485 763 561 807 561 756 c 0
 561 718 485 723 485 342 c 0
175 386 m 0
 175 727 66 723 66 756 c 0
 66 802 175 773 175 1163 c 0
 175 1341 144 1419 54 1503 c 1
 54 1503 58 1562 159 1562 c 0
 270 1562 337 1462 337 1462 c 1
 414 1570 558 1586 673 1586 c 0
 888 1586 1077 1491 1077 1230 c 2
 1077 1126 l 2
 1077 770 1164 799 1164 756 c 0
 1164 723 1077 727 1077 386 c 2
 1077 283 l 2
 1077 61 917 -74 681 -74 c 0
 558 -74 415 -51 337 41 c 1
 337 41 270 -74 159 -74 c 0
 58 -74 54 -14 54 -14 c 1
 144 74 175 197 175 386 c 0
299 478 m 1
 299 478 274 481 274 524 c 2
 274 620 l 2
 274 663 299 666 299 666 c 1
 367 656 488 653 615 653 c 0
 731 653 857 659 909 666 c 1
 909 666 934 663 934 620 c 2
 934 524 l 2
 934 480 909 478 909 478 c 1
 862 484 730 491 612 491 c 0
 483 491 361 488 299 478 c 1
EndSplineSet
EndChar

StartChar: onehalf
Encoding: 189 189 153
Width: 1965
Flags: HMW
HStem: 734 21G<56 56 496 496> 743 87
VStem: 56 317<734 883 830 883>
LayerCount: 2
Fore
SplineSet
373 1579 m 1x60
 373 883 l 2
 373 861 375 846 379 833 c 1
 395 830 411 830 429 830 c 2
 496 830 l 1
 496 734 l 1
 417 741 347 743 281 743 c 0x60
 209 743 136 740 56 734 c 1xa0
 56 830 l 1x60
 138 830 l 2
 150 830 162 830 172 833 c 1
 176 847 179 867 179 898 c 2xa0
 179 1468 l 2
 179 1481 179 1493 178 1505 c 1
 164 1511 150 1514 131 1514 c 0
 125 1514 119 1513 113 1513 c 2
 48 1507 l 1
 43 1571 l 1
 131 1595 225 1619 300 1619 c 0
 359 1619 369 1608 373 1579 c 1x60
390 -35 m 1
 1066 1612 l 1
 1211 1542 l 1
 535 -105 l 1
 390 -35 l 1
1575 802 m 0
 1493 802 1416 735 1392 625 c 1
 1260 719 l 1
 1269 825 1410 891 1574 891 c 0
 1770 891 1881 804 1881 643 c 0
 1881 479 1728 344 1449 124 c 1
 1666 124 l 2
 1738 124 1791 156 1834 253 c 1
 1861 251 1886 246 1909 244 c 1
 1909 164 1906 86 1900 13 c 1
 1853 2 1789 0 1669 0 c 2
 1319 0 l 2
 1269 0 1253 14 1249 54 c 1
 1249 66 1251 81 1254 99 c 1
 1490 321 1635 464 1671 546 c 0
 1686 579 1694 619 1694 658 c 0
 1694 750 1654 802 1575 802 c 0
EndSplineSet
EndChar

StartChar: plusminus
Encoding: 177 177 154
Width: 1167
Flags: HW
LayerCount: 2
Fore
SplineSet
502 799 m 1
 502 1172 l 1
 665 1172 l 1
 665 799 l 1
 1097 799 l 1
 1097 636 l 1
 665 636 l 1
 665 262 l 1
 502 262 l 1
 502 636 l 1
 70 636 l 1
 70 799 l 1
 502 799 l 1
70 -25 m 1
 70 138 l 1
 1097 138 l 1
 1097 -25 l 1
 70 -25 l 1
EndSplineSet
EndChar

StartChar: Thorn
Encoding: 222 222 155
Width: 1085
Flags: HW
LayerCount: 2
Fore
SplineSet
56 756 m 0
 56 796 165 770 165 1097 c 2
 165 1282 l 2
 165 1468 130 1562 45 1652 c 1
 45 1652 50 1712 150 1712 c 0
 254 1712 315 1597 315 1597 c 1
 315 1597 381 1712 491 1712 c 0
 592 1712 597 1652 597 1652 c 1
 527 1575 490 1499 474 1379 c 1
 515 1413 566 1436 629 1436 c 0
 805 1436 958 1350 1001 1189 c 1
 1029 1034 1077 1041 1077 1020 c 0
 1077 1005 1033 1001 1001 818 c 1
 949 545 676 476 475 476 c 1
 475 386 l 2
 475 175 506 82 596 -14 c 1
 596 -14 591 -74 490 -74 c 0
 380 -74 314 41 314 41 c 1
 314 41 253 -74 149 -74 c 0
 49 -74 44 -14 44 -14 c 1
 134 80 165 180 165 386 c 0
 165 727 56 723 56 756 c 0
590 1222 m 0
 537 1222 475 1196 475 1172 c 2
 475 658 l 1
 608 671 691 698 691 821 c 2
 691 1152 l 2
 691 1183 649 1222 590 1222 c 0
EndSplineSet
EndChar

StartChar: onequarter
Encoding: 188 188 156
Width: 1767
Flags: HMW
HStem: 734 21G<56 56 496 496> 743 87
VStem: 56 317<734 883 830 883>
LayerCount: 2
Fore
SplineSet
373 1579 m 1x60
 373 883 l 2
 373 861 375 846 379 833 c 1
 395 830 411 830 429 830 c 2
 496 830 l 1
 496 734 l 1
 417 741 347 743 281 743 c 0x60
 209 743 136 740 56 734 c 1xa0
 56 830 l 1x60
 138 830 l 2
 150 830 162 830 172 833 c 1
 176 847 179 867 179 898 c 2xa0
 179 1468 l 2
 179 1481 179 1493 178 1505 c 1
 164 1511 150 1514 131 1514 c 0
 125 1514 119 1513 113 1513 c 2
 48 1507 l 1
 43 1571 l 1
 131 1595 225 1619 300 1619 c 0
 359 1619 369 1608 373 1579 c 1x60
390 -35 m 1
 1066 1612 l 1
 1211 1542 l 1
 535 -105 l 1
 390 -35 l 1
1371 683 m 1
 1140 348 l 1
 1371 348 l 1
 1371 683 l 1
1616 251 m 2
 1556 251 l 1
 1556 178 l 2
 1556 147 1557 124 1562 108 c 1
 1578 106 1596 105 1616 105 c 2
 1685 105 l 1
 1685 2 l 1
 1600 9 1528 12 1467 12 c 0
 1399 12 1336 9 1241 2 c 1
 1241 105 l 1
 1310 105 l 2
 1330 105 1348 105 1364 108 c 1
 1369 124 1371 147 1371 177 c 2
 1371 251 l 1
 1017 251 l 1
 998 276 975 308 975 362 c 1
 986 381 998 399 1012 419 c 0
 1198 687 1301 837 1371 931 c 1
 1457 931 l 2
 1520 931 1556 931 1556 874 c 2
 1556 348 l 1
 1730 348 l 1
 1730 306 l 2
 1730 256 1701 250 1660 250 c 0
 1647 250 1632 251 1616 251 c 2
EndSplineSet
EndChar

StartChar: divide
Encoding: 247 247 157
Width: 1139
Flags: HW
LayerCount: 2
Fore
SplineSet
1082 492 m 1
 667 492 l 1
 682 512 691 537 691 562 c 0
 691 566 691 570 690 573 c 1
 691 577 691 581 691 585 c 0
 691 611 682 635 668 655 c 1
 1082 655 l 1
 1082 492 l 1
447 562 m 2
 447 536 456 512 471 492 c 1
 56 492 l 1
 56 655 l 1
 470 655 l 1
 455 635 447 611 447 585 c 2
 447 573 l 1
 447 562 l 2
490 655 m 1
 470 655 l 1
 492 686 529 706 569 706 c 0
 608 706 645 686 668 655 c 1
 647 655 l 1
 671 634 687 605 690 573 c 1
 687 541 670 512 645 492 c 1
 667 492 l 1
 644 461 608 441 570 441 c 0
 530 441 493 462 471 492 c 1
 491 492 l 1
 467 512 450 541 447 573 c 1
 450 606 466 634 490 655 c 1
EndSplineSet
EndChar

StartChar: degree
Encoding: 176 176 159
Width: 733
Flags: HW
LayerCount: 2
Fore
SplineSet
366 1244 m 0
 251 1244 170 1157 170 1043 c 0
 170 929 251 842 366 842 c 0
 479 842 561 929 561 1043 c 0
 561 1157 479 1244 366 1244 c 0
366 742 m 0
 199 742 65 875 65 1042 c 0
 65 1209 199 1342 366 1342 c 0
 531 1342 665 1209 665 1042 c 0
 665 875 531 742 366 742 c 0
EndSplineSet
EndChar

StartChar: thorn
Encoding: 254 254 160
Width: 1167
Flags: HW
LayerCount: 2
Fore
SplineSet
142 979 m 2
 142 1222 l 2
 142 1417 105 1516 16 1611 c 1
 19 1623 35 1666 124 1666 c 0
 221 1666 288 1557 288 1557 c 1
 288 1557 356 1666 453 1666 c 0
 528 1666 547 1611 547 1611 c 1
 482 1541 447 1467 431 1351 c 1
 501 1383 577 1401 649 1401 c 0
 854 1401 1048 1295 1048 984 c 0
 1048 705 1135 707 1135 680 c 0
 1135 651 1048 653 1048 356 c 0
 1048 87 854 -1 649 -1 c 0
 579 -1 499 15 422 50 c 1
 422 -173 455 -281 547 -380 c 1
 547 -380 528 -435 453 -435 c 0
 356 -435 288 -326 288 -326 c 1
 288 -326 221 -435 124 -435 c 0
 35 -435 19 -392 16 -380 c 1
 105 -285 140 -186 142 9 c 1
 142 381 l 2
 142 650 42 657 42 680 c 0
 42 697 142 723 142 979 c 2
508 680 m 0
 508 659 421 660 421 430 c 0
 421 277 435 179 588 179 c 0
 766 179 767 253 767 430 c 0
 767 663 680 660 680 680 c 0
 680 703 767 694 767 952 c 0
 767 1129 766 1207 588 1207 c 0
 435 1207 421 1107 421 952 c 0
 421 696 508 704 508 680 c 0
EndSplineSet
EndChar

StartChar: threequarters
Encoding: 190 190 161
Width: 2227
Flags: HMW
HStem: 720 94<295.5 389 295 442> 1535 95<313.5 391>
VStem: 496 156 496 188<932 1038>
LayerCount: 2
Fore
SplineSet
490 1414 m 0xe0
 490 1494 429 1535 353 1535 c 0
 274 1535 190 1482 168 1380 c 1
 50 1466 l 1
 90 1576 203 1630 348 1630 c 0
 503 1630 652 1559 652 1421 c 0
 652 1315 579 1237 445 1209 c 1
 596 1188 684 1111 684 974 c 0xd0
 684 799 527 720 357 720 c 0
 234 720 120 762 60 818 c 1
 61 864 62 911 72 996 c 1
 168 984 l 1
 180 865 251 814 339 814 c 0
 439 814 496 884 496 980 c 0
 496 1096 417 1148 277 1148 c 2
 218 1148 l 1
 218 1188 l 2
 218 1241 244 1231 276 1237 c 1
 369 1244 490 1308 490 1414 c 0xe0
827 -35 m 1
 1503 1612 l 1
 1648 1542 l 1
 972 -105 l 1
 827 -35 l 1
1831 682 m 1
 1600 347 l 1
 1831 347 l 1
 1831 682 l 1
2076 250 m 2
 2016 250 l 1
 2016 177 l 2
 2016 146 2017 123 2022 107 c 1
 2038 105 2056 104 2076 104 c 2
 2145 104 l 1
 2145 1 l 1
 2060 8 1988 11 1927 11 c 0
 1859 11 1796 8 1701 1 c 1
 1701 104 l 1
 1770 104 l 2
 1790 104 1808 104 1824 107 c 1
 1829 123 1831 146 1831 176 c 2
 1831 250 l 1
 1477 250 l 1
 1458 275 1435 307 1435 361 c 1
 1446 380 1458 398 1472 418 c 0
 1658 686 1761 836 1831 930 c 1
 1917 930 l 2
 1980 930 2016 930 2016 873 c 2
 2016 347 l 1
 2190 347 l 1
 2190 305 l 2
 2190 255 2161 249 2120 249 c 0
 2107 249 2092 250 2076 250 c 2
EndSplineSet
EndChar

StartChar: twosuperior
Encoding: 178 178 162
Width: 807
Flags: HMW
HStem: 549 124 1351 89
VStem: 512 187<1183.5 1249>
LayerCount: 2
Fore
SplineSet
393 1347 m 0
 311 1347 234 1280 210 1170 c 1
 78 1264 l 1
 87 1370 228 1436 392 1436 c 0
 588 1436 699 1349 699 1188 c 0
 699 1024 546 889 267 669 c 1
 484 669 l 2
 556 669 609 701 652 798 c 1
 679 796 704 791 727 789 c 1
 727 709 724 631 718 558 c 1
 671 547 607 545 487 545 c 2
 137 545 l 2
 87 545 71 559 67 599 c 1
 67 611 69 626 72 644 c 1
 308 866 453 1009 489 1091 c 0
 504 1124 512 1164 512 1203 c 0
 512 1295 472 1347 393 1347 c 0
EndSplineSet
EndChar

StartChar: registered
Encoding: 174 174 163
Width: 1608
Flags: HW
LayerCount: 2
Fore
SplineSet
802 -30 m 0
 388 -30 63 295 63 707 c 0
 63 1118 388 1445 802 1445 c 0
 1218 1445 1542 1118 1542 707 c 0
 1542 296 1218 -30 802 -30 c 0
802 84 m 0
 1140 84 1406 366 1406 707 c 0
 1406 1048 1141 1330 802 1330 c 0
 465 1330 199 1048 199 707 c 0
 199 366 465 84 802 84 c 0
463 1085 m 1
 499 1103 l 1
 842 1103 l 2
 1005 1103 1098 1016 1098 896 c 0
 1098 785 1016 696 899 677 c 1
 899 675 l 1
 995 595 1082 448 1159 352 c 1
 1176 313 l 1
 1012 313 l 1
 895 459 856 572 738 655 c 1
 661 655 l 1
 661 445 l 2
 661 396 660 380 709 366 c 1
 709 313 l 1
 463 313 l 1
 463 365 l 1
 512 381 511 393 511 444 c 2
 511 973 l 2
 511 1034 512 1058 463 1085 c 1
661 1025 m 1
 661 733 l 1
 790 733 l 2
 892 733 940 798 940 885 c 0
 940 994 880 1025 773 1025 c 2
 661 1025 l 1
EndSplineSet
EndChar

StartChar: eth
Encoding: 240 240 164
Width: 1109
Flags: HW
LayerCount: 2
Fore
SplineSet
632 449 m 0
 632 465 709 469 709 656 c 0
 709 761 697 830 554 830 c 0
 384 830 383 777 383 656 c 0
 383 469 481 465 481 449 c 0
 481 432 393 436 393 240 c 0
 393 119 394 62 554 62 c 0
 706 62 719 133 719 240 c 0
 719 436 632 433 632 449 c 0
551 -132 m 0
 325 -132 112 -37 112 225 c 0
 112 432 25 430 25 449 c 0
 25 467 102 473 102 680 c 0
 102 927 315 1010 541 1010 c 0
 594 1010 647 995 708 974 c 1
 708 1160 709 1274 425 1274 c 0
 323 1274 266 1248 214 1195 c 1
 207 1197 184 1208 184 1265 c 0
 184 1332 256 1377 256 1377 c 1
 256 1377 184 1425 184 1490 c 0
 184 1545 215 1562 215 1562 c 1
 291 1511 355 1493 415 1493 c 0
 462 1493 501 1497 546 1497 c 0
 680 1497 988 1435 988 1140 c 2
 988 748 l 2
 988 489 1097 469 1097 449 c 0
 1097 430 1010 432 1010 225 c 0
 1010 -37 777 -132 551 -132 c 0
EndSplineSet
EndChar

StartChar: threesuperior
Encoding: 179 179 166
Width: 782
Flags: HMW
HStem: 531 94<315.5 409 315 462> 1346 95<333.5 411>
VStem: 516 156 516 188<743 849>
LayerCount: 2
Fore
SplineSet
510 1225 m 0xe0
 510 1305 449 1346 373 1346 c 0
 294 1346 210 1293 188 1191 c 1
 70 1277 l 1
 110 1387 223 1441 368 1441 c 0
 523 1441 672 1370 672 1232 c 0
 672 1126 599 1048 465 1020 c 1
 616 999 704 922 704 785 c 0xd0
 704 610 547 531 377 531 c 0
 254 531 140 573 80 629 c 1
 81 675 82 722 92 807 c 1
 188 795 l 1
 200 676 271 625 359 625 c 0
 459 625 516 695 516 791 c 0
 516 907 437 959 297 959 c 2
 238 959 l 1
 238 999 l 2
 238 1052 264 1042 296 1048 c 1
 389 1055 510 1119 510 1225 c 0xe0
EndSplineSet
EndChar

StartChar: copyright
Encoding: 169 169 167
Width: 1608
Flags: HW
LayerCount: 2
Fore
SplineSet
802 -30 m 0
 388 -30 63 295 63 707 c 0
 63 1118 388 1445 802 1445 c 0
 1218 1445 1542 1118 1542 707 c 0
 1542 296 1218 -30 802 -30 c 0
802 84 m 0
 1140 84 1406 366 1406 707 c 0
 1406 1048 1141 1330 802 1330 c 0
 465 1330 199 1048 199 707 c 0
 199 366 465 84 802 84 c 0
1082 565 m 1
 1164 547 l 1
 1150 488 1129 435 1101 387 c 1
 1067 342 974 294 824 294 c 0
 571 294 400 445 400 716 c 0
 400 934 537 1129 836 1129 c 0
 985 1129 1090 1081 1121 1013 c 1
 1129 976 1135 938 1139 899 c 1
 1059 884 l 1
 1030 975 960 1052 833 1052 c 0
 668 1052 575 917 575 720 c 0
 575 517 654 378 831 378 c 0
 955 378 1042 454 1082 565 c 1
EndSplineSet
EndChar

StartChar: foursuperior
Encoding: 8308 8308 226
Width: 873
Flags: HW
LayerCount: 2
Fore
SplineSet
454 1162 m 1
 223 827 l 1
 454 827 l 1
 454 1162 l 1
699 730 m 2
 639 730 l 1
 639 657 l 2
 639 626 640 603 645 587 c 1
 661 585 679 584 699 584 c 2
 768 584 l 1
 768 481 l 1
 683 488 611 491 550 491 c 0
 482 491 419 488 324 481 c 1
 324 584 l 1
 393 584 l 2
 413 584 431 584 447 587 c 1
 452 603 454 626 454 656 c 2
 454 730 l 1
 100 730 l 1
 81 755 58 787 58 841 c 1
 69 860 81 878 95 898 c 0
 281 1166 384 1316 454 1410 c 1
 540 1410 l 2
 603 1410 639 1410 639 1353 c 2
 639 827 l 1
 813 827 l 1
 813 785 l 2
 813 735 784 729 743 729 c 0
 730 729 715 730 699 730 c 2
EndSplineSet
EndChar

StartChar: Dcroat
Encoding: 272 272 244
Width: 1202
Flags: HW
LayerCount: 2
Fore
SplineSet
485 342 m 0
 485 210 488 117 616 117 c 0
 749 117 747 200 747 351 c 0
 747 722 671 719 671 756 c 0
 671 809 747 762 747 1218 c 0
 747 1258 747 1372 625 1372 c 0
 487 1372 485 1285 485 1220 c 0
 485 763 561 807 561 756 c 0
 561 718 485 723 485 342 c 0
175 386 m 0
 175 727 66 723 66 756 c 0
 66 802 175 773 175 1163 c 0
 175 1341 144 1419 54 1503 c 1
 54 1503 58 1562 159 1562 c 0
 282 1562 357 1502 357 1502 c 1
 429 1575 565 1586 673 1586 c 0
 888 1586 1077 1491 1077 1230 c 2
 1077 1126 l 2
 1077 770 1164 799 1164 756 c 0
 1164 723 1077 727 1077 386 c 2
 1077 283 l 2
 1077 61 917 -74 681 -74 c 0
 565 -74 430 -57 357 11 c 1
 357 11 282 -74 159 -74 c 0
 58 -74 54 -14 54 -14 c 1
 144 74 175 197 175 386 c 0
920 1396 m 1
 289 1396 l 1
 289 1523 l 1
 920 1523 l 1
 920 1396 l 1
EndSplineSet
EndChar

StartChar: dcroat
Encoding: 273 273 245
Width: 1103
Flags: HW
LayerCount: 2
Fore
SplineSet
447 311 m 0
 447 191 447 106 583 106 c 0
 684 106 685 182 685 319 c 0
 685 656 616 654 616 687 c 0
 616 736 685 698 685 1122 c 0
 685 1159 685 1262 594 1262 c 0
 449 1262 447 1183 447 1124 c 0
 447 699 516 735 516 687 c 0
 516 653 447 657 447 311 c 0
175 351 m 0
 175 661 76 657 76 687 c 0
 76 729 175 703 175 1057 c 0
 175 1219 147 1291 65 1367 c 1
 65 1367 69 1420 161 1420 c 0
 267 1420 331 1365 331 1365 c 1
 396 1432 520 1442 618 1442 c 0
 813 1442 985 1355 985 1118 c 2
 985 1024 l 2
 985 700 1064 726 1064 687 c 0
 1064 657 985 661 985 351 c 2
 985 257 l 2
 985 55 840 -67 625 -67 c 0
 520 -67 397 -52 331 10 c 1
 331 10 267 -67 161 -67 c 0
 69 -67 65 -13 65 -13 c 1
 147 67 175 179 175 351 c 0
280 548 m 1
 280 548 255 551 255 594 c 2
 255 690 l 2
 255 733 280 736 280 736 c 1
 348 726 469 723 596 723 c 0
 712 723 838 729 890 736 c 1
 890 736 915 733 915 690 c 2
 915 594 l 2
 915 550 890 548 890 548 c 1
 843 554 711 561 593 561 c 0
 464 561 342 558 280 548 c 1
EndSplineSet
EndChar

StartChar: uni03A9
Encoding: 937 937 280
Width: 1498
Flags: HW
LayerCount: 2
Fore
SplineSet
1433 233 m 1
 1402 0 l 1
 872 0 l 1
 862 76 l 1
 977 188 1134 406 1134 705 c 0
 1134 1012 988 1227 752 1227 c 0
 517 1227 368 1034 368 702 c 0
 368 423 513 197 636 77 c 1
 629 0 l 1
 96 0 l 1
 70 233 l 1
 249 233 l 1
 273 178 287 165 336 166 c 2
 438 168 l 1
 294 275 123 452 123 725 c 0
 123 1089 389 1338 756 1338 c 0
 1133 1338 1377 1075 1377 736 c 0
 1377 477 1207 285 1055 168 c 1
 1167 166 l 2
 1214 165 1226 175 1250 233 c 1
 1433 233 l 1
EndSplineSet
EndChar

StartChar: pi
Encoding: 960 960 281
Width: 1215
Flags: HW
LayerCount: 2
Fore
SplineSet
1147 976 m 1
 1169 891 l 1
 1150 850 1117 789 1087 773 c 1
 1058 769 1018 767 977 767 c 1
 973 656 972 549 972 434 c 0
 972 302 979 238 1018 210 c 1
 1038 210 1049 217 1065 228 c 1
 1070 139 1081 90 1093 53 c 1
 1037 14 955 -12 878 -12 c 1
 806 7 751 77 751 253 c 0
 751 437 756 608 761 769 c 1
 636 772 544 771 452 771 c 1
 447 429 364 117 313 5 c 1
 257 -4 205 -9 157 -12 c 1
 159 45 l 1
 263 248 311 574 316 773 c 1
 195 773 136 757 71 722 c 1
 41 810 l 1
 105 876 183 944 375 944 c 0
 562 944 787 941 992 941 c 0
 1052 941 1100 947 1147 976 c 1
EndSplineSet
EndChar

StartChar: Euro
Encoding: 8364 8364 282
Width: 1222
Flags: HW
LayerCount: 2
Fore
SplineSet
1127 354 m 1
 1157 165 l 1
 1113 57 1016 -12 876 -12 c 1
 871 5 866 21 862 37 c 1
 819 -15 760 -27 707 -27 c 0
 423 -27 249 153 201 470 c 1
 57 470 l 1
 79 607 l 1
 188 607 l 1
 188 662 l 2
 188 687 188 707 189 723 c 1
 57 723 l 1
 79 860 l 1
 202 860 l 1
 250 1159 427 1341 709 1341 c 0
 813 1341 903 1313 968 1229 c 1
 982 1327 l 1
 1138 1327 l 1
 1138 938 l 1
 979 938 l 1
 956 1095 870 1182 733 1182 c 0
 566 1182 486 1061 457 860 c 1
 891 860 l 1
 869 723 l 1
 447 723 l 1
 446 702 446 681 446 660 c 2
 446 607 l 1
 852 607 l 1
 830 470 l 1
 458 470 l 1
 487 267 576 134 743 134 c 0
 877 134 971 239 998 381 c 1
 1127 354 l 1
EndSplineSet
EndChar

StartChar: partialdiff
Encoding: 8706 8706 283
Width: 1084
Flags: HW
LayerCount: 2
Fore
SplineSet
504 877 m 0
 646 877 758 792 801 725 c 1
 809 756 812 841 812 879 c 0
 812 1119 711 1343 498 1343 c 0
 371 1343 270 1281 206 1231 c 1
 179 1253 139 1314 128 1368 c 1
 160 1421 299 1477 461 1477 c 0
 810 1477 1013 1141 1013 761 c 0
 1013 363 843 -22 458 -22 c 0
 199 -22 56 176 56 404 c 0
 56 705 272 877 504 877 c 0
558 758 m 0
 485 758 413 727 358 651 c 0
 305 577 276 479 276 377 c 0
 276 213 338 90 470 90 c 0
 654 90 748 352 784 596 c 1
 755 662 674 758 558 758 c 0
EndSplineSet
EndChar

StartChar: Delta
Encoding: 8710 8710 284
Width: 1308
Flags: HW
LayerCount: 2
Fore
SplineSet
1264 0 m 1
 48 0 l 1
 48 91 l 1
 571 1330 l 1
 738 1344 l 1
 1264 92 l 1
 1264 0 l 1
1004 131 m 1
 737 775 l 1
 708 852 665 961 641 1030 c 1
 605 1102 l 1
 574 1016 524 891 483 791 c 0
 391 570 302 352 211 131 c 1
 1004 131 l 1
EndSplineSet
EndChar

StartChar: product
Encoding: 8719 8719 285
Width: 1449
Flags: HW
LayerCount: 2
Fore
SplineSet
1404 1333 m 1
 1404 1221 l 1
 1309 1216 1251 1211 1207 1188 c 1
 1203 1157 1202 1122 1202 1079 c 2
 1202 130 l 2
 1202 18 1209 -33 1297 -76 c 1
 1297 -169 l 1
 896 -169 l 1
 896 -76 l 1
 975 -34 979 14 979 130 c 2
 979 1118 l 2
 979 1195 986 1210 890 1210 c 2
 558 1210 l 2
 479 1210 470 1200 470 1159 c 0
 470 1149 471 1136 471 1121 c 2
 471 130 l 2
 471 15 473 -34 547 -76 c 1
 547 -169 l 1
 154 -169 l 1
 154 -76 l 1
 237 -30 247 17 247 130 c 2
 247 1079 l 2
 247 1122 246 1157 242 1188 c 1
 197 1211 139 1216 44 1221 c 1
 44 1333 l 1
 1404 1333 l 1
EndSplineSet
EndChar

StartChar: summation
Encoding: 8721 8721 286
Width: 1166
Flags: HW
LayerCount: 2
Fore
SplineSet
1116 120 m 1
 1065 -176 l 1
 48 -176 l 1
 48 -83 l 1
 534 547 l 1
 68 1237 l 1
 68 1333 l 1
 1047 1333 l 1
 1047 1291 1056 1177 1061 1082 c 1
 966 1073 l 1
 934 1118 899 1158 863 1181 c 1
 765 1207 673 1218 516 1218 c 1
 351 1215 l 1
 748 636 l 1
 315 74 l 1
 270 11 l 1
 730 11 l 2
 865 11 918 13 1014 130 c 1
 1116 120 l 1
EndSplineSet
EndChar

StartChar: radical
Encoding: 8730 8730 287
Width: 1154
Flags: HW
LayerCount: 2
Fore
SplineSet
1121 1625 m 1
 722 -280 l 1
 615 -295 l 1
 233 652 l 1
 70 581 l 1
 39 674 l 1
 374 819 l 1
 614 189 l 1
 633 132 654 74 671 23 c 1
 674 23 l 1
 685 79 696 141 708 205 c 1
 1006 1635 l 1
 1121 1625 l 1
EndSplineSet
EndChar

StartChar: infinity
Encoding: 8734 8734 288
Width: 1482
Flags: HW
LayerCount: 2
Fore
SplineSet
1410 547 m 2
 1410 544 l 2
 1410 339 1259 215 1099 215 c 0
 984 215 878 273 744 439 c 1
 642 318 539 215 379 215 c 0
 217 215 74 347 74 536 c 0
 74 728 212 862 397 862 c 0
 544 862 652 768 754 642 c 1
 839 738 936 862 1105 862 c 0
 1279 862 1410 741 1410 547 c 2
395 340 m 2
 399 340 l 2
 512 340 600 448 675 531 c 1
 593 637 517 741 387 741 c 0
 276 741 204 652 204 535 c 0
 204 428 283 340 395 340 c 2
1097 741 m 2
 1095 741 l 2
 974 741 881 613 818 542 c 1
 939 397 1007 340 1103 340 c 0
 1217 340 1281 443 1281 535 c 0
 1281 660 1205 741 1097 741 c 2
EndSplineSet
EndChar

StartChar: integral
Encoding: 8747 8747 289
Width: 772
Flags: HW
LayerCount: 2
Fore
SplineSet
315 83 m 1
 306 387 279 705 279 1001 c 0
 279 1480 435 1614 611 1614 c 0
 667 1614 731 1587 742 1547 c 1
 738 1487 706 1448 674 1428 c 1
 628 1433 612 1502 578 1502 c 0
 512 1502 468 1426 468 1161 c 1
 475 945 485 727 496 503 c 0
 499 438 501 375 501 311 c 0
 501 -225 356 -360 174 -360 c 0
 106 -360 41 -326 30 -286 c 1
 33 -232 75 -183 111 -163 c 1
 152 -168 167 -244 207 -244 c 0
 266 -244 315 -155 315 83 c 1
EndSplineSet
EndChar

StartChar: approxequal
Encoding: 8776 8776 290
Width: 1117
Flags: HW
LayerCount: 2
Fore
SplineSet
957 854 m 1
 1042 772 l 1
 974 656 881 580 769 580 c 0
 684 580 628 609 537 660 c 0
 480 692 425 724 358 724 c 0
 268 724 211 658 157 582 c 1
 71 663 l 1
 134 774 246 855 369 855 c 0
 462 855 529 813 585 781 c 0
 659 738 701 713 767 713 c 0
 846 713 900 763 957 854 c 1
957 498 m 1
 1042 417 l 1
 976 303 883 225 768 225 c 0
 633 225 494 369 359 369 c 0
 267 369 211 303 157 228 c 1
 71 309 l 1
 134 417 248 499 369 499 c 0
 561 499 626 357 766 357 c 0
 846 357 897 406 957 498 c 1
EndSplineSet
EndChar

StartChar: notequal
Encoding: 8800 8800 291
Width: 1077
Flags: HW
LayerCount: 2
Fore
SplineSet
796 974 m 1
 715 798 l 1
 1004 798 l 1
 1004 668 l 1
 660 668 l 1
 539 402 l 1
 1004 402 l 1
 1004 271 l 1
 483 271 l 1
 378 42 l 1
 272 91 l 1
 355 271 l 1
 74 271 l 1
 74 402 l 1
 411 402 l 1
 532 668 l 1
 74 668 l 1
 74 798 l 1
 587 798 l 1
 690 1023 l 1
 796 974 l 1
EndSplineSet
EndChar

StartChar: lessequal
Encoding: 8804 8804 292
Width: 1066
Flags: HW
LayerCount: 2
Fore
SplineSet
992 201 m 1
 73 632 l 1
 73 773 l 1
 991 1203 l 1
 991 1052 l 1
 214 705 l 1
 214 701 l 1
 992 352 l 1
 992 201 l 1
996 -6 m 1
 65 -6 l 1
 65 129 l 1
 996 129 l 1
 996 -6 l 1
EndSplineSet
EndChar

StartChar: greaterequal
Encoding: 8805 8805 293
Width: 1067
Flags: HW
LayerCount: 2
Fore
SplineSet
81 1203 m 1
 1000 772 l 1
 1000 632 l 1
 82 201 l 1
 82 352 l 1
 857 700 l 1
 857 705 l 1
 81 1052 l 1
 81 1203 l 1
998 -6 m 1
 74 -6 l 1
 74 129 l 1
 998 129 l 1
 998 -6 l 1
EndSplineSet
EndChar

StartChar: lozenge
Encoding: 9674 9674 294
Width: 1073
Flags: HW
LayerCount: 2
Fore
SplineSet
1031 648 m 1
 616 -118 l 1
 452 -118 l 1
 42 648 l 1
 457 1416 l 1
 619 1416 l 1
 1031 648 l 1
861 646 m 1
 587 1164 l 1
 568 1196 554 1236 539 1267 c 1
 533 1267 l 1
 442 1065 318 852 212 650 c 1
 488 128 l 2
 507 92 522 54 533 25 c 1
 540 25 l 1
 552 56 569 98 585 127 c 2
 861 646 l 1
EndSplineSet
EndChar

StartChar: uni2620
Encoding: 9760 9760 295
Width: 1043
Flags: HW
LayerCount: 2
Fore
SplineSet
261 169 m 1
 261 193 268 214 268 237 c 0
 268 277 255 316 255 356 c 1
 316 356 279 215 323 215 c 1
 323 258 l 1
 333 258 349 253 351 249 c 1
 351 200 l 1
 366 200 l 1
 366 209 371 237 388 237 c 2
 391 237 l 1
 421 206 l 1
 428 212 437 212 446 212 c 0
 474 212 461 178 485 178 c 0
 507 178 489 206 510 206 c 0
 531 206 540 176 556 176 c 0
 571 176 575 206 586 206 c 2
 630 206 l 1
 636 215 639 218 648 218 c 0
 667 218 657 187 676 187 c 0
 679 187 685 187 685 194 c 2
 685 237 l 2
 685 251 716 242 722 255 c 0
 728 267 746 347 775 347 c 0
 784 347 784 338 784 332 c 0
 784 288 771 246 771 203 c 0
 771 187 777 172 777 156 c 0
 777 77 578 3 519 3 c 0
 418 3 316 89 261 169 c 1
476 273 m 0
 462 273 464 266 439 266 c 0
 432 266 424 267 424 273 c 2
 424 341 l 1
 406 341 415 292 384 292 c 0
 362 292 360 323 347 323 c 1
 336 316 l 1
 297 324 318 421 248 421 c 0
 245 421 213 409 200 409 c 0
 174 409 151 436 151 464 c 0
 151 485 156 510 156 532 c 0
 156 651 59 756 59 884 c 0
 59 981 66 1077 156 1145 c 0
 267 1229 383 1274 525 1274 c 0
 808 1274 979 1099 979 820 c 2
 979 758 l 1
 968 706 913 654 913 598 c 2
 913 544 l 2
 913 516 918 502 918 473 c 0
 918 343 679 418 661 261 c 1
 657 261 l 2
 632 261 636 293 613 293 c 0
 611 293 608 292 606 292 c 1
 606 258 608 242 578 242 c 0
 550 242 564 261 547 261 c 0
 531 261 538 242 519 242 c 0
 494 242 498 273 476 273 c 0
458 488 m 0
 458 470 483 464 498 464 c 0
 528 464 530 485 530 506 c 0
 530 513 529 519 528 525 c 1
 545 525 l 1
 545 487 571 461 589 461 c 0
 604 461 617 471 617 496 c 0
 617 546 575 635 531 635 c 0
 498 635 458 519 458 488 c 0
237 598 m 1
 246 599 253 599 261 599 c 0
 302 599 324 587 369 587 c 0
 409 587 470 635 470 681 c 0
 470 764 366 771 305 771 c 0
 277 771 213 764 213 725 c 0
 213 685 228 648 231 604 c 1
 237 598 l 1
811 588 m 1
 817 594 l 1
 824 630 855 661 855 695 c 0
 855 762 791 771 763 771 c 0
 706 771 608 764 608 681 c 0
 608 630 669 577 709 577 c 0
 742 577 758 591 787 591 c 0
 794 591 802 590 811 588 c 1
EndSplineSet
EndChar

StartChar: f_i
Encoding: 64257 64257 297
Width: 1154
Flags: HW
LayerCount: 2
Fore
SplineSet
778 799 m 1
 387 799 l 1
 387 168 l 1
 540 168 l 1
 540 0 l 1
 40 0 l 1
 40 168 l 1
 194 168 l 1
 194 799 l 1
 40 799 l 1
 40 967 l 1
 194 967 l 1
 194 1141 l 2
 194 1333 315 1419 452 1419 c 0
 589 1419 679 1340 702 1196 c 1
 534 1169 l 1
 528 1232 503 1264 460 1264 c 0
 413 1264 387 1226 387 1159 c 2
 387 967 l 1
 970 967 l 1
 970 168 l 1
 1124 168 l 1
 1124 0 l 1
 624 0 l 1
 624 168 l 1
 778 168 l 1
 778 799 l 1
876 1411 m 0
 940 1411 991 1360 991 1296 c 0
 991 1233 940 1182 876 1182 c 0
 813 1182 761 1233 761 1296 c 0
 761 1360 813 1411 876 1411 c 0
EndSplineSet
EndChar

StartChar: f_l
Encoding: 64258 64258 298
Width: 1153
Flags: HW
LayerCount: 2
Fore
SplineSet
387 967 m 1
 550 967 l 1
 550 799 l 1
 387 799 l 1
 387 168 l 1
 540 168 l 1
 540 0 l 1
 40 0 l 1
 40 168 l 1
 194 168 l 1
 194 799 l 1
 40 799 l 1
 40 967 l 1
 194 967 l 1
 194 1141 l 2
 194 1333 317 1419 452 1419 c 0
 505 1419 552 1406 573 1391 c 1
 970 1391 l 1
 970 168 l 1
 1124 168 l 1
 1124 0 l 1
 624 0 l 1
 624 168 l 1
 778 168 l 1
 778 1223 l 1
 536 1200 l 1
 524 1243 503 1264 460 1264 c 0
 413 1264 387 1226 387 1159 c 2
 387 967 l 1
EndSplineSet
EndChar

StartChar: ij
Encoding: 307 307 305
Width: 1434
Flags: HW
LayerCount: 2
Fore
SplineSet
174 341 m 0
 174 660 75 656 75 687 c 0
 75 728 174 700 174 1044 c 0
 174 1216 146 1286 64 1366 c 1
 64 1366 68 1420 160 1420 c 0
 254 1420 310 1343 310 1343 c 1
 310 1343 366 1420 460 1420 c 0
 552 1420 556 1366 556 1366 c 1
 474 1286 446 1216 446 1044 c 0
 446 700 545 728 545 687 c 0
 545 656 446 660 446 341 c 0
 446 154 474 73 556 -13 c 1
 556 -13 552 -67 460 -67 c 0
 366 -67 310 10 310 10 c 1
 310 10 254 -67 160 -67 c 0
 69 -67 64 -13 64 -13 c 1
 146 73 174 154 174 341 c 0
898 -289 m 0
 843 -289 784 -305 712 -349 c 1
 712 -349 672 -344 672 -278 c 0
 672 -211 729 -169 729 -169 c 1
 729 -169 672 -125 672 -51 c 0
 672 15 712 20 712 20 c 1
 750 -27 791 -49 867 -49 c 0
 977 -49 978 58 978 245 c 0
 978 594 870 584 870 617 c 0
 870 662 978 628 978 1006 c 0
 978 1179 947 1279 857 1361 c 1
 857 1361 863 1420 962 1420 c 0
 1064 1420 1125 1335 1125 1335 c 1
 1125 1335 1184 1420 1292 1420 c 0
 1393 1420 1398 1361 1398 1361 c 1
 1306 1279 1277 1179 1277 1006 c 0
 1277 628 1384 659 1384 614 c 0
 1384 581 1277 585 1277 244 c 0
 1277 -135 1168 -289 898 -289 c 0
EndSplineSet
EndChar

StartChar: kgreenlandic
Encoding: 312 312 308
Width: 1316
Flags: HW
LayerCount: 2
Fore
SplineSet
688 590 m 1
 676 600 l 1
 654 601 624 601 595 601 c 2
 534 601 l 2
 517 601 501 601 477 605 c 1
 467 369 l 1
 467 161 502 70 604 -30 c 1
 604 -30 583 -84 496 -84 c 0
 399 -84 332 23 332 23 c 1
 332 23 264 -84 167 -84 c 0
 80 -84 63 -42 60 -30 c 1
 152 69 185 160 185 369 c 0
 185 677 73 688 73 716 c 0
 73 757 185 738 185 1002 c 0
 185 1194 154 1274 59 1363 c 1
 59 1363 80 1419 167 1419 c 0
 264 1419 332 1311 332 1311 c 1
 332 1311 399 1419 496 1419 c 0
 586 1419 601 1376 604 1364 c 1
 502 1276 467 1196 467 1012 c 0
 467 866 471 829 475 772 c 1
 495 767 513 766 535 766 c 0
 602 766 687 778 687 778 c 1
 718 966 718 1168 816 1355 c 1
 816 1355 838 1420 890 1420 c 0
 958 1420 992 1324 992 1324 c 1
 992 1324 1070 1420 1142 1420 c 0
 1247 1420 1261 1384 1262 1368 c 1
 1112 1300 1036 1179 1036 1042 c 0
 1036 666 832 725 832 679 c 0
 832 635 1036 684 1036 331 c 0
 1036 184 1112 45 1262 -32 c 1
 1260 -47 1246 -84 1142 -84 c 0
 1070 -84 992 12 992 12 c 1
 992 12 958 -84 890 -84 c 0
 829 -84 818 -24 818 -24 c 1
 791 28 688 420 688 577 c 2
 688 590 l 1
EndSplineSet
EndChar

StartChar: IJ
Encoding: 306 306 316
Width: 1464
Flags: HW
LayerCount: 2
Fore
SplineSet
175 375 m 0
 175 726 66 722 66 756 c 0
 66 801 175 770 175 1148 c 0
 175 1338 144 1415 54 1503 c 1
 54 1503 58 1562 159 1562 c 0
 263 1562 324 1457 324 1457 c 1
 324 1457 386 1562 489 1562 c 0
 591 1562 595 1503 595 1503 c 1
 505 1415 474 1338 474 1148 c 0
 474 770 583 801 583 756 c 0
 583 722 474 726 474 375 c 0
 474 169 505 80 595 -14 c 1
 595 -14 591 -74 489 -74 c 0
 386 -74 324 41 324 41 c 1
 324 41 263 -74 159 -74 c 0
 59 -74 54 -14 54 -14 c 1
 144 80 175 169 175 375 c 0
927 -147 m 0
 872 -147 813 -163 741 -207 c 1
 741 -207 701 -202 701 -136 c 0
 701 -69 758 -27 758 -27 c 1
 758 -27 701 17 701 91 c 0
 701 157 741 162 741 162 c 1
 779 115 820 93 896 93 c 0
 1006 93 1007 200 1007 387 c 0
 1007 736 899 726 899 759 c 0
 899 804 1007 770 1007 1148 c 0
 1007 1321 976 1421 886 1503 c 1
 886 1503 892 1562 991 1562 c 0
 1093 1562 1154 1457 1154 1457 c 1
 1154 1457 1213 1562 1321 1562 c 0
 1422 1562 1427 1503 1427 1503 c 1
 1335 1421 1306 1321 1306 1148 c 0
 1306 770 1413 801 1413 756 c 0
 1413 723 1306 727 1306 386 c 0
 1306 7 1197 -147 927 -147 c 0
EndSplineSet
EndChar

StartChar: dotaccentcmb
Encoding: 775 775 344
Width: 414
Flags: HW
LayerCount: 2
Fore
SplineSet
82 1253 m 0
 82 1320 135 1377 206 1377 c 0
 277 1377 330 1320 330 1253 c 0
 330 1186 277 1129 206 1129 c 0
 135 1129 82 1186 82 1253 c 0
EndSplineSet
EndChar

StartChar: commaaccent
Encoding: 65542 -1 345
Width: 475
Flags: HW
LayerCount: 2
Fore
SplineSet
100 -353 m 1
 100 -259 l 1
 203 -233 262 -179 262 -57 c 1
 260 -57 l 1
 233 -69 191 -73 152 -73 c 1
 121 -32 90 33 90 113 c 1
 111 156 164 189 228 189 c 0
 279 189 323 175 362 154 c 1
 379 91 389 23 389 -48 c 0
 389 -230 276 -337 100 -353 c 1
EndSplineSet
EndChar

StartChar: dotlessj
Encoding: 567 567 346
Width: 801
Flags: HW
LayerCount: 2
Fore
SplineSet
265 -289 m 0
 210 -289 151 -305 79 -349 c 1
 79 -349 39 -344 39 -278 c 0
 39 -211 96 -169 96 -169 c 1
 96 -169 39 -125 39 -51 c 0
 39 15 79 20 79 20 c 1
 117 -27 158 -49 234 -49 c 0
 344 -49 345 58 345 245 c 0
 345 594 237 584 237 617 c 0
 237 662 345 628 345 1006 c 0
 345 1179 314 1279 224 1361 c 1
 224 1361 230 1420 329 1420 c 0
 431 1420 492 1335 492 1335 c 1
 492 1335 551 1420 659 1420 c 0
 760 1420 765 1361 765 1361 c 1
 673 1279 644 1179 644 1006 c 0
 644 628 751 659 751 614 c 0
 751 581 644 585 644 244 c 0
 644 -135 535 -289 265 -289 c 0
EndSplineSet
EndChar

StartChar: uni0311
Encoding: 785 785 347
Width: 775
Flags: HW
LayerCount: 2
Fore
SplineSet
193 1106 m 1
 77 1106 l 1
 85 1283 195 1415 380 1415 c 0
 570 1415 682 1294 695 1106 c 1
 578 1106 l 1
 559 1218 490 1268 381 1268 c 0
 277 1268 208 1209 193 1106 c 1
EndSplineSet
EndChar

StartChar: uni0326
Encoding: 806 806 348
Width: 475
Flags: HW
LayerCount: 2
Fore
SplineSet
100 -353 m 1
 100 -259 l 1
 203 -233 262 -179 262 -57 c 1
 260 -57 l 1
 233 -69 191 -73 152 -73 c 1
 121 -32 90 33 90 113 c 1
 111 156 164 189 228 189 c 0
 279 189 323 175 362 154 c 1
 379 91 389 23 389 -48 c 0
 389 -230 276 -337 100 -353 c 1
EndSplineSet
EndChar

StartChar: uni030F
Encoding: 783 783 349
Width: 896
Flags: HW
LayerCount: 2
Fore
SplineSet
458 1103 m 1
 340 1103 l 1
 177 1272 l 2
 130 1320 90 1361 66 1410 c 1
 85 1430 118 1446 163 1446 c 0
 238 1446 285 1399 333 1361 c 1
 458 1103 l 1
824 1103 m 1
 706 1103 l 1
 543 1272 l 2
 497 1319 458 1361 433 1410 c 1
 448 1430 477 1446 520 1446 c 0
 600 1446 648 1399 699 1361 c 1
 824 1103 l 1
EndSplineSet
EndChar

StartChar: A.alt
Encoding: 65543 -1 350
Width: 1369
Flags: HW
LayerCount: 2
Fore
SplineSet
1154 375 m 0
 1177 169 1220 80 1325 -14 c 1
 1325 -14 1326 -74 1229 -74 c 0
 1138 -74 1076 11 1076 11 c 1
 1076 11 1023 -74 910 -74 c 0
 808 -74 797 -14 797 -14 c 1
 841 61 866 134 866 256 c 0
 866 400 848 520 824 601 c 1
 797 627 737 640 677 640 c 0
 619 640 560 627 534 602 c 1
 510 521 493 402 493 257 c 0
 493 134 517 61 561 -14 c 1
 561 -14 550 -74 449 -74 c 0
 335 -74 282 11 282 11 c 1
 282 11 220 -74 129 -74 c 0
 32 -74 33 -14 33 -14 c 1
 138 80 181 169 204 375 c 0
 210 428 212 473 212 510 c 0
 212 721 148 726 148 754 c 0
 148 802 279 765 329 1148 c 1
 331 1188 334 1226 334 1263 c 0
 334 1346 310 1425 226 1503 c 1
 226 1503 238 1562 338 1562 c 0
 461 1562 518 1456 518 1456 c 1
 552 1531 617 1562 678 1562 c 0
 741 1562 802 1526 840 1456 c 1
 840 1456 897 1562 1020 1562 c 0
 1120 1562 1132 1503 1132 1503 c 1
 1048 1429 1024 1351 1024 1265 c 0
 1024 1228 1027 1189 1029 1148 c 1
 1078 770 1205 801 1210 756 c 1
 1210 727 1145 725 1145 510 c 0
 1145 473 1148 428 1154 375 c 0
570 857 m 0
 569 854 569 852 569 849 c 0
 569 810 626 790 677 790 c 0
 731 790 788 810 788 850 c 0
 788 853 788 855 787 858 c 0
 776 917 717 1367 681 1367 c 0
 644 1367 581 915 570 857 c 0
EndSplineSet
EndChar
